<?xml version="1.0" encoding="utf-8"?>
<!-- Generator: Adobe Illustrator 17.0.0, SVG Export Plug-In . SVG Version: 6.00 Build 0)  -->
<!DOCTYPE svg PUBLIC "-//W3C//DTD SVG 1.1//EN" "http://www.w3.org/Graphics/SVG/1.1/DTD/svg11.dtd">
<svg version="1.1" id="Layer_1" xmlns="http://www.w3.org/2000/svg" xmlns:xlink="http://www.w3.org/1999/xlink" x="0px" y="0px"
	 width="1000px" height="792px" viewBox="0 0 1000 792" enable-background="new 0 0 1000 792" xml:space="preserve">
<radialGradient id="SVGID_1_" cx="770.8636" cy="754.8754" r="511.1838" gradientTransform="matrix(0.9733 -0.0355 0.0357 0.9782 5.9222 38.7419)" gradientUnits="userSpaceOnUse">
	<stop  offset="0" style="stop-color:#6ECACE"/>
	<stop  offset="1" style="stop-color:#211C58"/>
</radialGradient>
<path fill="url(#SVGID_1_)" d="M117.881,400.743c4.985-67.467,68.084-99.612,99.179-114.184
	c75.938-35.586,228.707-54.682,461.423,42.76c170.142,71.241,212.542,166.208,216.402,236.969
	c3.03,55.561,0.163,116.149-85.424,172.504c-77.701,51.164-225.757,61.186-333.86-66.68
	C337.437,508.69,107.312,543.782,117.881,400.743z"/>
<radialGradient id="SVGID_2_" cx="633.5326" cy="290.2984" r="454.2287" gradientUnits="userSpaceOnUse">
	<stop  offset="0" style="stop-color:#2F2E7A"/>
	<stop  offset="1" style="stop-color:#211C58"/>
</radialGradient>
<path fill="url(#SVGID_2_)" d="M155.757,367.46c3.995-28.47,37.607-53.832,67.87-66.625
	c73.905-31.242,251.769-82.754,471.041,18.111c160.312,73.743,197.565,165.636,198.786,233.142
	c0.958,53.006-29.259,101.757-76.851,125.113c-79.89,39.207-240.138,87.109-339.109-38.391
	C351,478.414,133.862,523.496,155.757,367.46z"/>
<linearGradient id="SVGID_3_" gradientUnits="userSpaceOnUse" x1="195.2976" y1="489.0193" x2="861.9089" y2="489.0193">
	<stop  offset="0" style="stop-color:#211C58"/>
	<stop  offset="0.0855" style="stop-color:#23235C"/>
	<stop  offset="0.233" style="stop-color:#293465"/>
	<stop  offset="0.4245" style="stop-color:#354E76"/>
	<stop  offset="0.6529" style="stop-color:#477391"/>
	<stop  offset="0.9096" style="stop-color:#62ADBA"/>
	<stop  offset="1" style="stop-color:#6ECACE"/>
</linearGradient>
<path fill="url(#SVGID_3_)" d="M646.784,697.204c-52.603,0.003-106.929-18.166-150.512-73.433
	c-52.026-65.972-125.887-97.775-185.235-123.33c-71.169-30.645-127.381-54.85-113.666-120.737l1.245,0.259l-1.245-0.259
	c5.127-24.638,38.322-50.791,66.951-62.895c73.627-31.122,225.894-70.11,418.439,18.461
	c146.125,67.22,178.065,151.494,179.129,210.355c0.865,47.715-26.484,92.243-69.675,113.44
	C755.254,677.202,701.965,697.199,646.784,697.204z M446.776,283.38c-79.363,0-141.853,19.031-181.465,35.775
	c-28.425,12.014-60.678,38.143-65.45,61.066c-13.289,63.855,42.08,87.697,112.183,117.882
	c59.612,25.669,133.801,57.614,186.227,124.093c88.201,111.842,221.321,69.678,292.82,34.584
	c42.311-20.763,69.101-64.376,68.253-111.109c-1.049-58.131-32.72-141.421-177.647-208.089
	C593.694,297.1,514.154,283.38,446.776,283.38z"/>
<circle fill="#6ECACE" cx="331.691" cy="34.871" r="6.2"/>
<g>
	<g>
		<g>
			<g>
				<g>
					<path opacity="0.7" fill="#1A134B" d="M497.583,695.718l-0.324-34.846l364.576-211.067
						c-5.292-8.324-11.381-16.703-18.363-25.09c-0.002-0.002-0.003-0.004-0.005-0.006c-1.122-1.348-2.269-2.695-3.438-4.044
						c-0.116-0.134-0.234-0.267-0.35-0.401c-1.066-1.225-2.152-2.451-3.257-3.675c-0.173-0.191-0.346-0.382-0.519-0.574
						c-1.066-1.176-2.152-2.35-3.255-3.525c-0.202-0.215-0.403-0.43-0.606-0.645c-1.107-1.172-2.234-2.344-3.379-3.516
						c-0.194-0.199-0.387-0.398-0.582-0.598c-1.213-1.234-2.447-2.468-3.702-3.701c-0.126-0.124-0.25-0.248-0.376-0.373
						c-5.608-5.494-11.637-10.976-18.109-16.431c-0.284-0.238-0.575-0.477-0.861-0.716c-1.296-1.085-2.607-2.17-3.939-3.254
						c-0.432-0.352-0.872-0.702-1.309-1.054c-1.21-0.975-2.431-1.948-3.67-2.921c-0.51-0.4-1.025-0.8-1.54-1.2
						c-1.192-0.925-2.396-1.85-3.614-2.773c-0.561-0.425-1.124-0.85-1.69-1.274c-1.208-0.905-2.432-1.809-3.666-2.712
						c-0.583-0.426-1.164-0.852-1.752-1.278c-1.262-0.913-2.543-1.824-3.832-2.734c-0.579-0.409-1.153-0.818-1.738-1.227
						c-1.376-0.962-2.776-1.921-4.183-2.879c-0.512-0.349-1.015-0.698-1.53-1.047c-1.714-1.157-3.455-2.311-5.215-3.464
						c-0.222-0.146-0.437-0.291-0.66-0.437c-2.028-1.323-4.087-2.643-6.176-3.959c-0.228-0.144-0.463-0.286-0.692-0.429
						c-1.814-1.139-3.648-2.276-5.508-3.409c-0.651-0.396-1.317-0.791-1.973-1.187c-1.461-0.88-2.927-1.761-4.416-2.638
						c-0.799-0.47-1.611-0.94-2.418-1.409c-1.372-0.799-2.75-1.596-4.146-2.392c-0.887-0.505-1.785-1.009-2.682-1.514
						c-1.352-0.76-2.713-1.519-4.088-2.277c-0.939-0.518-1.885-1.035-2.835-1.551c-1.366-0.742-2.745-1.484-4.133-2.223
						c-0.976-0.52-1.953-1.039-2.94-1.558c-1.408-0.739-2.832-1.477-4.262-2.214c-0.991-0.51-1.978-1.021-2.979-1.53
						c-1.489-0.757-2.999-1.51-4.512-2.264c-0.963-0.48-1.917-0.96-2.889-1.438c-1.69-0.831-3.408-1.658-5.128-2.485
						c-0.823-0.395-1.633-0.793-2.463-1.187c-2.564-1.22-5.156-2.434-7.785-3.644c-3.427-1.577-6.844-3.111-10.25-4.613
						c-1.018-0.449-2.03-0.878-3.047-1.32c-2.409-1.049-4.818-2.094-7.216-3.107c-1.11-0.469-2.215-0.92-3.322-1.381
						c-2.321-0.966-4.641-1.926-6.952-2.858c-1.075-0.434-2.146-0.855-3.219-1.281c-2.361-0.939-4.719-1.867-7.069-2.771
						c-0.984-0.378-1.965-0.749-2.946-1.122c-2.474-0.938-4.944-1.861-7.406-2.763c-0.837-0.306-1.673-0.61-2.508-0.912
						c-2.651-0.959-5.296-1.896-7.932-2.811c-0.646-0.225-1.292-0.45-1.937-0.672c-2.896-0.996-5.785-1.967-8.663-2.912
						c-0.389-0.128-0.779-0.259-1.167-0.386c-3.266-1.066-6.521-2.102-9.763-3.104c-0.011-0.003-0.021-0.007-0.032-0.01
						l-397.899,230.36c25.283,11.041,53.897,21.599,83.683,34.076c0.784,0.329,1.565,0.654,2.35,0.984
						c1.633,0.688,3.271,1.389,4.911,2.09c1.066,0.455,2.131,0.91,3.2,1.371c1.526,0.659,3.054,1.326,4.584,1.996
						c1.197,0.525,2.394,1.051,3.594,1.583c1.464,0.648,2.928,1.304,4.395,1.964c1.27,0.573,2.542,1.152,3.814,1.733
						c1.422,0.649,2.844,1.3,4.269,1.962c1.351,0.628,2.702,1.266,4.055,1.905c1.357,0.641,2.712,1.278,4.07,1.93
						c1.501,0.721,3.002,1.46,4.503,2.196c1.222,0.599,2.442,1.188,3.664,1.796c2.634,1.312,5.267,2.647,7.9,4.009
						c0.985,0.508,1.968,1.039,2.953,1.555c1.747,0.917,3.494,1.833,5.239,2.773c1.159,0.624,2.314,1.266,3.472,1.901
						c1.572,0.861,3.143,1.724,4.712,2.606c1.207,0.678,2.412,1.372,3.617,2.063c1.521,0.872,3.041,1.75,4.559,2.641
						c1.215,0.715,2.428,1.438,3.641,2.166c1.52,0.911,3.037,1.834,4.553,2.768c1.192,0.734,2.383,1.471,3.572,2.219
						c1.552,0.976,3.099,1.97,4.646,2.969c1.139,0.735,2.279,1.469,3.415,2.218c1.648,1.087,3.289,2.202,4.93,3.318
						c1.026,0.698,2.056,1.385,3.079,2.095c2.019,1.399,4.027,2.836,6.032,4.281c0.632,0.456,1.27,0.895,1.901,1.356
						c2.612,1.907,5.21,3.856,7.796,5.844c0.782,0.602,1.556,1.229,2.335,1.838c1.819,1.422,3.636,2.849,5.44,4.315
						c0.982,0.797,1.955,1.617,2.932,2.427c1.592,1.319,3.181,2.645,4.76,3.998c1.037,0.89,2.067,1.797,3.098,2.702
						c1.511,1.326,3.018,2.664,4.516,4.025c1.042,0.946,2.08,1.9,3.115,2.863c1.483,1.378,2.958,2.777,4.427,4.19
						c1.016,0.977,2.031,1.955,3.039,2.949c1.501,1.479,2.988,2.987,4.473,4.503c0.948,0.968,1.899,1.927,2.84,2.912
						c1.615,1.689,3.212,3.418,4.805,5.154c0.786,0.856,1.579,1.693,2.36,2.56c2.36,2.625,4.701,5.293,7.011,8.025
						C482.762,680.581,490.103,688.43,497.583,695.718z"/>
					
						<linearGradient id="SVGID_4_" gradientUnits="userSpaceOnUse" x1="-2850.3489" y1="3213.4578" x2="-1872.9208" y2="2770.4429" gradientTransform="matrix(0.501 0.8654 0.8654 -0.501 -919.991 3598.7449)">
						<stop  offset="0" style="stop-color:#5A64AD"/>
						<stop  offset="0.1564" style="stop-color:#5E66AF"/>
						<stop  offset="0.3409" style="stop-color:#686EB4"/>
						<stop  offset="0.5395" style="stop-color:#7A7DBC"/>
						<stop  offset="0.7481" style="stop-color:#9393C8"/>
						<stop  offset="0.9625" style="stop-color:#B6B5DB"/>
						<stop  offset="1" style="stop-color:#BEBDDF"/>
					</linearGradient>
					<path fill="url(#SVGID_4_)" d="M118.363,510.272l0.082,17.734l0.046-0.024c0.06,1.339,0.857,2.613,2.519,3.57l252.93,145.627
						c3.803,2.19,10.442,1.907,14.827-0.632l536.945-310.859c2.418-1.4,3.599-3.189,3.578-4.883l0.042,0.024l-0.078-17.713
						l-27.989,15.457L673.836,227.63c-3.803-2.19-10.442-1.907-14.827,0.632l-514.147,297.66c1.317-1.445,2.268-2.515,2.273-2.593
						C147.152,523.07,118.363,510.272,118.363,510.272z"/>
					
						<linearGradient id="SVGID_5_" gradientUnits="userSpaceOnUse" x1="3070.9165" y1="2630.509" x2="3070.9165" y2="2584.3408" gradientTransform="matrix(-0.501 -0.8654 0.8654 -0.501 -338.4291 4602.8706)">
						<stop  offset="0" style="stop-color:#C2BEDF"/>
						<stop  offset="0.3027" style="stop-color:#C6C3E2"/>
						<stop  offset="0.6588" style="stop-color:#D4D2E9"/>
						<stop  offset="1" style="stop-color:#E9E8F4"/>
					</linearGradient>
					<path fill="url(#SVGID_5_)" d="M386.844,677.453l-0.105-72.054l-11.542-6.645l0.114,79.05
						C378.597,679.041,383.152,678.895,386.844,677.453z"/>
					
						<linearGradient id="SVGID_6_" gradientUnits="userSpaceOnUse" x1="3658.6582" y1="4461.2676" x2="3658.6582" y2="3908.0256" gradientTransform="matrix(-0.8666 -0.499 0.9993 -0.5785 -487.313 4673.3101)">
						<stop  offset="0" style="stop-color:#C2BEDF"/>
						<stop  offset="0.3027" style="stop-color:#C6C3E2"/>
						<stop  offset="0.6588" style="stop-color:#D4D2E9"/>
						<stop  offset="1" style="stop-color:#E9E8F4"/>
					</linearGradient>
					<path fill="url(#SVGID_6_)" d="M673.76,193.981l252.929,145.627c3.803,2.19,3.331,6.023-1.054,8.563L388.69,659.03
						c-4.386,2.539-11.024,2.822-14.828,0.632L120.933,514.035c-3.803-2.19-3.331-6.023,1.054-8.562l536.944-310.859
						C663.318,192.075,669.956,191.791,673.76,193.981z"/>
					<path fill="#FFFFFF" d="M373.862,659.662L120.933,514.035c-2.263-1.303-2.977-3.186-2.29-5.034
						c0.286,1.065,1.074,2.058,2.429,2.838l252.929,145.627c3.803,2.19,10.442,1.906,14.828-0.632l536.944-310.859
						c1.777-1.029,2.877-2.27,3.344-3.529c0.516,1.924-0.66,4.09-3.483,5.724L388.69,659.03
						C384.304,661.569,377.666,661.852,373.862,659.662z"/>
					<polygon fill="#282567" points="631.698,210.381 898.4,363.938 415.924,643.263 149.222,489.705 					"/>
					<polygon fill="#282567" points="631.698,210.381 898.4,363.938 415.924,643.263 149.222,489.705 					"/>
					
						<radialGradient id="SVGID_7_" cx="516.9786" cy="7043.7563" r="359.7337" gradientTransform="matrix(1 0 0 0.5545 0 -3472.3762)" gradientUnits="userSpaceOnUse">
						<stop  offset="0" style="stop-color:#6ECACE"/>
						<stop  offset="0.0421" style="stop-color:#66B5BD"/>
						<stop  offset="0.1947" style="stop-color:#4D8294"/>
						<stop  offset="0.3464" style="stop-color:#3B5D77"/>
						<stop  offset="0.4936" style="stop-color:#2C4361"/>
						<stop  offset="0.6352" style="stop-color:#222F53"/>
						<stop  offset="0.7698" style="stop-color:#1B2149"/>
						<stop  offset="0.8946" style="stop-color:#181744"/>
						<stop  offset="1" style="stop-color:#161342"/>
					</radialGradient>
					<polygon opacity="0.5" fill="url(#SVGID_7_)" points="631.698,210.381 898.4,363.938 415.924,643.263 149.222,489.705 					"/>
					<path fill="#5A64AD" d="M249.033,561.911l48.329,27.73c1.408,0.811,2.219,1.726,1.333,2.838
						c-0.298,0.375-0.722,0.732-1.269,1.049l0,0c-2.171,1.257-5.457,1.397-7.34,0.313l-48.755-28.071
						c-0.147-0.084-0.364-0.12-0.402-0.268c-0.398-1.543-0.268-1.913,1.733-3.071l0.671-0.138
						C245.503,561.036,247.15,560.827,249.033,561.911z"/>
					<path fill="#BEBDDF" d="M240.94,565.485c0.298-0.373,0.72-0.728,1.264-1.043c2.171-1.257,5.457-1.397,7.34-0.313l48.755,28.071
						c0.152,0.088,0.267,0.188,0.392,0.285c0.89-1.114,0.668-2.383-0.742-3.195l-48.755-28.071c-1.883-1.084-5.168-0.944-7.34,0.313
						C239.857,562.687,239.521,564.377,240.94,565.485z"/>
				</g>
			</g>
		</g>
		<g opacity="0.11">
			<defs>
				<polygon id="SVGID_8_" opacity="0.11" points="631.698,210.381 898.4,363.938 415.924,643.263 149.222,489.705 				"/>
			</defs>
			<clipPath id="SVGID_9_">
				<use xlink:href="#SVGID_8_"  overflow="visible"/>
			</clipPath>
		</g>
	</g>
	<g>
		<g>
			<g>
				<path opacity="0.2" fill="#6ECACE" d="M312.362,471.526l-17.489-10.097c-2.773-1.601-2.773-4.197,0-5.798l0,0
					c2.773-1.601,7.27-1.601,10.043,0l17.489,10.097c2.773,1.601,2.774,4.197,0,5.799l0,0
					C319.632,473.128,315.136,473.128,312.362,471.526z"/>
				<path opacity="0.6" fill="#6ECACE" d="M348.553,492.421l-17.489-10.097c-2.774-1.601-2.774-4.197,0-5.798l0,0
					c2.773-1.601,7.27-1.601,10.043,0l17.489,10.097c2.773,1.601,2.773,4.197,0,5.799l0,0
					C355.823,494.022,351.326,494.022,348.553,492.421z"/>
				<path fill="#6ECACE" d="M384.744,513.316l-17.489-10.097c-2.773-1.601-2.773-4.197,0-5.798l0,0c2.773-1.601,7.27-1.601,10.043,0
					l17.489,10.097c2.773,1.601,2.774,4.197,0,5.799l0,0C392.014,514.917,387.517,514.917,384.744,513.316z"/>
				<path opacity="0.6" fill="#6ECACE" d="M420.934,534.211l-17.489-10.098c-2.774-1.601-2.774-4.197,0-5.798l0,0
					c2.773-1.601,7.27-1.601,10.043,0l17.489,10.097c2.773,1.601,2.773,4.197,0,5.799l0,0
					C428.204,535.812,423.708,535.812,420.934,534.211z"/>
				<path opacity="0.2" fill="#6ECACE" d="M457.125,555.105l-17.489-10.098c-2.773-1.601-2.773-4.197,0-5.798l0,0
					c2.773-1.601,7.27-1.601,10.043,0l17.489,10.098c2.774,1.601,2.774,4.197,0,5.798l0,0
					C464.395,556.706,459.898,556.706,457.125,555.105z"/>
			</g>
		</g>
	</g>
	<g>
		<g>
			<path opacity="0.2" fill="#6ECACE" d="M620.499,486.637c-57.579,33.243-150.934,33.242-208.514-0.002
				s-57.582-87.143-0.003-120.386s150.934-33.242,208.514,0.002C678.076,399.495,678.078,453.393,620.499,486.637z"/>
			<path fill="#6ECACE" d="M575.387,460.591c-32.665,18.859-85.626,18.859-118.292-0.001c-32.666-18.86-32.666-49.437-0.002-68.296
				s85.626-18.859,118.292,0.001C608.051,411.155,608.052,441.732,575.387,460.591z"/>
		</g>
		<g opacity="0.3">
			<path fill="#6ECACE" d="M705.791,125.257c1.833,10.363,9.52,36.41,41.235,54.428c45.145,20.848,76.417,48.254,86.894,78.852
				c0.74,2.008,1.765,4.678,2.724,6.591c1.125-1.854,1.125-1.854,1.13-6.34v-51.375c-0.02-30.165-1.712-36.815-3.855-45.235
				c-10.477-30.599-41.749-58.005-86.894-78.852C711.01,71.7,702.291,105.466,705.791,125.257L705.791,125.257z"/>
			<path fill="#6ECACE" d="M374.736,63.615c47.797-13.866,104.341-21.672,164.691-21.177c7.963,0.065,15.85,0.274,23.649,0.62
				c52.993,4.84,71.84,60.805,39.891,85.29c-14.664,11.238-32.342,11.12-39.891,11.069c-7.798-0.347-15.685-0.555-23.648-0.621
				c-60.35-0.494-116.894,7.311-164.691,21.177c-48.261,11.757-51.112-37.288-34.234-67.289
				C346.178,82.596,356.725,69.362,374.736,63.615L374.736,63.615z"/>
			<path fill="#6ECACE" d="M230.482,281.378c1.316-15.273,2.356-27.337,17.906-48.391c32.781-48.372,26.161-104.591,8.053-101.994
				c-2.919,0.419-5.953,3.565-8.053,5.635c-11.005,14.342-17.26,29.763-17.858,45.854c-0.032,0.847-0.047,1.693-0.047,2.538V281.378
				L230.482,281.378z"/>
		</g>
		<g>
			
				<rect x="588.984" y="334.266" transform="matrix(0.3752 0.927 -0.927 0.3752 713.1044 -378.1299)" fill="#6ECACE" width="96.109" height="11.261"/>
			<g>
				<g>
					<g>
						
							<radialGradient id="SVGID_10_" cx="128.2752" cy="-200.4232" r="201.9283" gradientTransform="matrix(0.981 0.1942 -0.1942 0.981 428.4791 311.6801)" gradientUnits="userSpaceOnUse">
							<stop  offset="0" style="stop-color:#C2BEDF"/>
							<stop  offset="1" style="stop-color:#3A338F"/>
						</radialGradient>
						<circle fill="url(#SVGID_10_)" cx="425.918" cy="251.741" r="34.982"/>
					</g>
				</g>
				<g>
					<g>
						
							<radialGradient id="SVGID_11_" cx="1166.1901" cy="394.9819" r="199.4893" gradientTransform="matrix(0.7781 0 0 1.0592 -337.8804 -133.3033)" gradientUnits="userSpaceOnUse">
							<stop  offset="0" style="stop-color:#C2BEDF"/>
							<stop  offset="1" style="stop-color:#3A338F"/>
						</radialGradient>
						<path fill="url(#SVGID_11_)" d="M606.562,303.487c0,67.907-40.439,122.956-90.322,122.956
							c-49.883,0-90.322-55.049-90.322-122.956s40.438-88.256,90.322-88.256C566.123,215.231,606.562,235.581,606.562,303.487z"/>
					</g>
				</g>
				<g>
					<g>
						
							<linearGradient id="SVGID_12_" gradientUnits="userSpaceOnUse" x1="1097.7002" y1="528.4612" x2="1097.7002" y2="329.0547" gradientTransform="matrix(0.7781 0 0 1.0592 -337.8804 -133.3033)">
							<stop  offset="0" style="stop-color:#6ECACE"/>
							<stop  offset="0.0197" style="stop-color:#6CC1CA"/>
							<stop  offset="0.1321" style="stop-color:#5C9DBC"/>
							<stop  offset="0.2482" style="stop-color:#527FAF"/>
							<stop  offset="0.3656" style="stop-color:#4969A4"/>
							<stop  offset="0.4847" style="stop-color:#43569C"/>
							<stop  offset="0.6058" style="stop-color:#3F4896"/>
							<stop  offset="0.7298" style="stop-color:#3C3D92"/>
							<stop  offset="0.8587" style="stop-color:#3B3690"/>
							<stop  offset="1" style="stop-color:#3A338F"/>
						</linearGradient>
						<path fill="url(#SVGID_12_)" d="M606.562,303.487c0,67.907-40.439,122.956-90.322,122.956
							c-49.883,0-90.322-55.049-90.322-122.956s40.438-88.256,90.322-88.256C566.123,215.231,606.562,235.581,606.562,303.487z"/>
					</g>
				</g>
				<path fill="#3A338F" d="M559.829,276.906c-24.073,13.898-63.103,13.898-87.176-0.001c-24.073-13.899-24.074-36.433-0.001-50.331
					c24.073-13.898,63.103-13.898,87.176,0.001C583.901,240.474,583.902,263.008,559.829,276.906z"/>
				<path fill="#47419A" d="M472.651,236.055c24.073-13.899,63.103-13.898,87.176,0.001c9.943,5.741,15.768,12.956,17.497,20.426
					c2.457-10.616-3.367-21.749-17.497-29.906c-24.073-13.899-63.104-13.899-87.176-0.001
					c-14.129,8.157-19.953,19.289-17.496,29.905C456.884,249.01,462.708,241.795,472.651,236.055z"/>
				<radialGradient id="SVGID_13_" cx="425.2979" cy="23.8031" r="109.3088" gradientUnits="userSpaceOnUse">
					<stop  offset="0" style="stop-color:#C2BEDF"/>
					<stop  offset="1" style="stop-color:#3A338F"/>
				</radialGradient>
				<path fill="url(#SVGID_13_)" d="M445.086,167.169l11.152-19.214c6.56-6.805,11.802-15.841,14.465-24.923l11.293-19.459
					l-16.242-9.325c-0.52-0.352-1.063-0.667-1.63-0.936l-0.009-0.005l0,0.001c-4.618-2.186-10.757-1.601-17.493,2.288
					c-14.359,8.29-25.999,28.452-25.999,45.032c0,8.286,2.907,14.108,7.607,16.827l0,0l0.007,0.004l0.001,0.001L445.086,167.169z"/>
				<path fill="#BEBDDF" d="M489.348,120.246c0,16.58-11.64,36.741-26,45.032c-14.359,8.29-26,1.57-26-15.01s11.64-36.741,26-45.032
					C477.708,96.946,489.348,103.666,489.348,120.246z"/>
				<g>
					<g>
						<radialGradient id="SVGID_14_" cx="577.3115" cy="153.1466" r="155.6986" gradientUnits="userSpaceOnUse">
							<stop  offset="0" style="stop-color:#C2BEDF"/>
							<stop  offset="1" style="stop-color:#3A338F"/>
						</radialGradient>
						<circle fill="url(#SVGID_14_)" cx="519.822" cy="166.794" r="92.119"/>
					</g>
				</g>
				<g>
					<g>
						<linearGradient id="SVGID_15_" gradientUnits="userSpaceOnUse" x1="507.0003" y1="258.0279" x2="532.6445" y2="75.5599">
							<stop  offset="0" style="stop-color:#6ECACE"/>
							<stop  offset="0.0197" style="stop-color:#6CC1CA"/>
							<stop  offset="0.1321" style="stop-color:#5C9DBC"/>
							<stop  offset="0.2482" style="stop-color:#527FAF"/>
							<stop  offset="0.3656" style="stop-color:#4969A4"/>
							<stop  offset="0.4847" style="stop-color:#43569C"/>
							<stop  offset="0.6058" style="stop-color:#3F4896"/>
							<stop  offset="0.7298" style="stop-color:#3C3D92"/>
							<stop  offset="0.8587" style="stop-color:#3B3690"/>
							<stop  offset="1" style="stop-color:#3A338F"/>
						</linearGradient>
						<circle fill="url(#SVGID_15_)" cx="519.822" cy="166.794" r="92.119"/>
					</g>
				</g>
				<radialGradient id="SVGID_16_" cx="576.0653" cy="151.4903" r="73.9423" gradientUnits="userSpaceOnUse">
					<stop  offset="0" style="stop-color:#C2BEDF"/>
					<stop  offset="1" style="stop-color:#3A338F"/>
				</radialGradient>
				<path fill="url(#SVGID_16_)" d="M571.374,229.093l11.152-19.214c6.56-6.805,11.802-15.841,14.465-24.923l11.293-19.459
					l-16.242-9.325c-0.52-0.352-1.063-0.667-1.63-0.936l-0.009-0.005l0,0c-4.618-2.186-10.757-1.601-17.493,2.288
					c-14.359,8.29-26,28.452-26,45.032c0,8.285,2.907,14.108,7.607,16.826l0,0l0.007,0.004l0.001,0.001L571.374,229.093z"/>
				<linearGradient id="SVGID_17_" gradientUnits="userSpaceOnUse" x1="561.178" y1="225.3823" x2="587.1612" y2="153.994">
					<stop  offset="0" style="stop-color:#6ECACE"/>
					<stop  offset="0.0197" style="stop-color:#6CC1CA"/>
					<stop  offset="0.1321" style="stop-color:#5C9DBC"/>
					<stop  offset="0.2482" style="stop-color:#527FAF"/>
					<stop  offset="0.3656" style="stop-color:#4969A4"/>
					<stop  offset="0.4847" style="stop-color:#43569C"/>
					<stop  offset="0.6058" style="stop-color:#3F4896"/>
					<stop  offset="0.7298" style="stop-color:#3C3D92"/>
					<stop  offset="0.8587" style="stop-color:#3B3690"/>
					<stop  offset="1" style="stop-color:#3A338F"/>
				</linearGradient>
				<path fill="url(#SVGID_17_)" d="M571.374,229.093l11.152-19.214c6.56-6.805,11.802-15.841,14.465-24.923l11.293-19.459
					l-16.242-9.325c-0.52-0.352-1.063-0.667-1.63-0.936l-0.009-0.005l0,0c-4.618-2.186-10.757-1.601-17.493,2.288
					c-14.359,8.29-26,28.452-26,45.032c0,8.285,2.907,14.108,7.607,16.826l0,0l0.007,0.004l0.001,0.001L571.374,229.093z"/>
				<path fill="#BEBDDF" d="M615.636,182.17c0,16.58-11.64,36.742-26,45.032c-14.359,8.29-26,1.57-26-15.01
					c0-16.58,11.641-36.741,26-45.032C603.996,158.87,615.636,165.59,615.636,182.17z"/>
				<path fill="#FFFFFF" d="M564.831,212.405c0-16.58,11.64-36.741,26-45.032c4.975-2.873,9.623-3.94,13.574-3.423
					c-4.195-0.928-9.282,0.041-14.768,3.209c-14.359,8.29-26,28.452-26,45.032c0,10.835,4.973,17.457,12.426,18.433
					C569.278,229.124,564.831,222.65,564.831,212.405z"/>
				<path fill="#3A338F" d="M608.221,186.452c0,11.851-8.321,26.263-18.585,32.189c-10.264,5.926-18.585,1.122-18.585-10.729
					s8.321-26.263,18.585-32.189C599.9,169.797,608.221,174.6,608.221,186.452z"/>
				<path fill="#47419A" d="M600.313,173.458c1.923,2.269,3.046,5.662,3.046,10.008c0,11.851-8.321,26.263-18.585,32.189
					c-3.975,2.295-7.656,2.974-10.677,2.264c3.322,3.919,9.039,4.474,15.539,0.721c10.264-5.926,18.585-20.337,18.585-32.189
					C608.221,179.19,605.094,174.581,600.313,173.458z"/>
				<g>
					<path fill="#3A338F" d="M491.083,210.426c-2.353,18.116-16.025,23.806-30.538,12.71
						c-14.512-11.096-24.369-34.777-22.016-52.892c2.353-18.116,16.026-23.806,30.538-12.71
						C483.579,168.63,493.436,192.31,491.083,210.426z"/>
					<path fill="#6ECACE" d="M479.098,194.741c-0.855,6.583-5.824,8.652-11.098,4.619c-5.274-4.033-8.856-12.639-8.001-19.223
						c0.855-6.584,5.824-8.652,11.098-4.619C476.371,179.551,479.954,188.157,479.098,194.741z"/>
					<path fill="#47419A" d="M467.513,220.495c-14.512-11.096-24.369-34.777-22.016-52.892c0.959-7.385,3.801-12.704,7.813-15.663
						c-7.587,0.714-13.331,7.148-14.781,18.304c-2.353,18.116,7.504,41.796,22.016,52.892c8.596,6.573,16.896,7.254,22.725,2.954
						C478.537,226.534,473.089,224.758,467.513,220.495z"/>
					<path fill="#6ECACE" d="M461.794,222.546c-14.512-11.096-24.369-34.777-22.016-52.893c1.09-8.386,4.607-14.103,9.509-16.728
						c-5.55,2.284-9.578,8.235-10.758,17.318c-2.353,18.116,7.504,41.796,22.016,52.892c7.791,5.957,15.333,7.059,21.018,4.015
						C476.045,229.42,469.028,228.076,461.794,222.546z"/>
				</g>
				<g>
					<g>
						
							<radialGradient id="SVGID_18_" cx="199.6251" cy="-79.4348" r="72.9814" gradientTransform="matrix(0.981 0.1942 -0.1942 0.981 428.4791 311.6801)" gradientUnits="userSpaceOnUse">
							<stop  offset="0" style="stop-color:#C2BEDF"/>
							<stop  offset="1" style="stop-color:#3A338F"/>
						</radialGradient>
						<circle fill="url(#SVGID_18_)" cx="619.01" cy="295.353" r="34.982"/>
					</g>
				</g>
				<g>
					<g>
						
							<linearGradient id="SVGID_19_" gradientUnits="userSpaceOnUse" x1="159.9579" y1="-27.3477" x2="207.494" y2="-78.6807" gradientTransform="matrix(0.981 0.1942 -0.1942 0.981 428.4791 311.6801)">
							<stop  offset="0" style="stop-color:#6ECACE"/>
							<stop  offset="0.0197" style="stop-color:#6CC1CA"/>
							<stop  offset="0.1321" style="stop-color:#5C9DBC"/>
							<stop  offset="0.2482" style="stop-color:#527FAF"/>
							<stop  offset="0.3656" style="stop-color:#4969A4"/>
							<stop  offset="0.4847" style="stop-color:#43569C"/>
							<stop  offset="0.6058" style="stop-color:#3F4896"/>
							<stop  offset="0.7298" style="stop-color:#3C3D92"/>
							<stop  offset="0.8587" style="stop-color:#3B3690"/>
							<stop  offset="1" style="stop-color:#3A338F"/>
						</linearGradient>
						<circle fill="url(#SVGID_19_)" cx="619.01" cy="295.353" r="34.982"/>
					</g>
				</g>
			</g>
			
				<radialGradient id="SVGID_20_" cx="719.8253" cy="-1678.7626" r="67.6122" fx="719.9272" fy="-1674.3634" gradientTransform="matrix(0.9112 0.1087 -0.1791 1.501 -272.6554 2825.1118)" gradientUnits="userSpaceOnUse">
				<stop  offset="0" style="stop-color:#C2BEDF"/>
				<stop  offset="1" style="stop-color:#3A338F"/>
			</radialGradient>
			<path fill="url(#SVGID_20_)" d="M674.803,411.258c-1.984,16.623-16.665,48.108-29.952,46.522
				c-13.287-1.585-20.148-35.641-18.165-52.263c1.984-16.623,14.363-28.814,27.65-27.228
				C667.623,379.874,676.787,394.635,674.803,411.258z"/>
			
				<linearGradient id="SVGID_21_" gradientUnits="userSpaceOnUse" x1="488.9059" y1="484.1527" x2="541.7119" y2="484.1527" gradientTransform="matrix(0.9112 0.1087 -0.136 1.1399 245.8892 -189.865)">
				<stop  offset="0" style="stop-color:#6ECACE"/>
				<stop  offset="0.0197" style="stop-color:#6CC1CA"/>
				<stop  offset="0.1321" style="stop-color:#5C9DBC"/>
				<stop  offset="0.2482" style="stop-color:#527FAF"/>
				<stop  offset="0.3656" style="stop-color:#4969A4"/>
				<stop  offset="0.4847" style="stop-color:#43569C"/>
				<stop  offset="0.6058" style="stop-color:#3F4896"/>
				<stop  offset="0.7298" style="stop-color:#3C3D92"/>
				<stop  offset="0.8587" style="stop-color:#3B3690"/>
				<stop  offset="1" style="stop-color:#3A338F"/>
			</linearGradient>
			<path fill="url(#SVGID_21_)" d="M674.803,411.258c-1.984,16.623-16.665,48.108-29.952,46.522
				c-13.287-1.585-20.148-35.641-18.165-52.263c1.984-16.623,14.363-28.814,27.65-27.228
				C667.623,379.874,676.787,394.635,674.803,411.258z"/>
			<path fill="#6ECACE" d="M333.35,304.31c-2.028,0-3.987-1.101-4.993-3.022c-1.441-2.754-0.378-6.156,2.379-7.598l72.23-37.798
				c2.749-1.439,6.154-0.375,7.598,2.378c1.441,2.754,0.378,6.156-2.379,7.598l-72.23,37.798
				C335.122,304.101,334.23,304.31,333.35,304.31z"/>
			
				<radialGradient id="SVGID_22_" cx="-2132.4031" cy="-2678.7917" r="67.6121" fx="-2132.3013" fy="-2674.3926" gradientTransform="matrix(0.4411 0.8047 -1.3256 0.7266 -2232.5513 3946.1538)" gradientUnits="userSpaceOnUse">
				<stop  offset="0" style="stop-color:#C2BEDF"/>
				<stop  offset="1" style="stop-color:#3A338F"/>
			</radialGradient>
			<path fill="url(#SVGID_22_)" d="M334.622,325.291c-14.68,8.047-48.834,14.399-55.266,2.665
				c-6.432-11.734,17.293-37.11,31.973-45.157c14.68-8.047,31.795-5.058,38.227,6.676
				C355.988,301.208,349.302,317.244,334.622,325.291z"/>
			
				<linearGradient id="SVGID_23_" gradientUnits="userSpaceOnUse" x1="-2623.4841" y1="25.3923" x2="-2655.1348" y2="67.6627" gradientTransform="matrix(0.4411 0.8047 -1.0067 0.5518 1531.8159 2404.8352)">
				<stop  offset="0" style="stop-color:#6ECACE"/>
				<stop  offset="0.0197" style="stop-color:#6CC1CA"/>
				<stop  offset="0.1321" style="stop-color:#5C9DBC"/>
				<stop  offset="0.2482" style="stop-color:#527FAF"/>
				<stop  offset="0.3656" style="stop-color:#4969A4"/>
				<stop  offset="0.4847" style="stop-color:#43569C"/>
				<stop  offset="0.6058" style="stop-color:#3F4896"/>
				<stop  offset="0.7298" style="stop-color:#3C3D92"/>
				<stop  offset="0.8587" style="stop-color:#3B3690"/>
				<stop  offset="1" style="stop-color:#3A338F"/>
			</linearGradient>
			<path fill="url(#SVGID_23_)" d="M334.622,325.291c-14.68,8.047-48.834,14.399-55.266,2.665
				c-6.432-11.734,17.293-37.11,31.973-45.157c14.68-8.047,31.795-5.058,38.227,6.676
				C355.988,301.208,349.302,317.244,334.622,325.291z"/>
		</g>
		<g opacity="0.5">
			<g>
				<path fill="#6ECACE" d="M265.779,309.625c-2.2,17.688-11.372,28.213-21.015,15.036c-12.363-16.895-13.565-33.413-14.283-43.283
					v-96.359c0,15.075,5.003,29.62,14.283,43.283C265.145,262.014,267.563,295.282,265.779,309.625L265.779,309.625z"/>
				<path fill="#6ECACE" d="M551.855,327.286c-7.606,0.205-15.285,0.278-23.026,0.215c-60.584-0.497-116.714-9.29-163.561-24.033
					c-46.794-12.501-49.622,36.463-33.29,66.706c11.629,21.534,27.366,27.433,33.29,29.653
					c46.847,14.744,102.977,23.537,163.561,24.034c7.741,0.063,15.42-0.01,23.026-0.215c54.983-4.052,69.382-56.86,43.685-81.508
					C588.369,335.258,574.968,327.098,551.855,327.286L551.855,327.286z"/>
				<path fill="#6ECACE" d="M837.727,250.457c-0.266,41.669-2.712,49.254-5.809,58.858c-12.879,30.385-46.279,57.229-93.033,77.28
					c-40.932,12.076-52.237-30.456-35.59-61.991c11.326-21.455,28.954-30.836,35.59-34.368
					c46.754-20.051,80.155-46.894,93.034-77.28c0.944-2.017,2.276-4.69,3.537-6.525c0.314-0.041,0.733-0.096,1.048-0.137
					c0.792,2.227,1.12,3.149,1.224,14.524V250.457L837.727,250.457z"/>
			</g>
		</g>
	</g>
	<circle fill="#6ECACE" cx="800.08" cy="577.891" r="10.152"/>
	<circle opacity="0.5" fill="#6ECACE" cx="644.391" cy="142.609" r="4.673"/>
	<circle opacity="0.5" fill="#6ECACE" cx="302.739" cy="378.15" r="4.673"/>
	<circle opacity="0.8" fill="#6ECACE" cx="396.68" cy="192.508" r="2.439"/>
</g>
</svg>
