<?xml version="1.0" encoding="utf-8"?>
<!-- Generator: Adobe Illustrator 17.0.0, SVG Export Plug-In . SVG Version: 6.00 Build 0)  -->
<!DOCTYPE svg PUBLIC "-//W3C//DTD SVG 1.1//EN" "http://www.w3.org/Graphics/SVG/1.1/DTD/svg11.dtd">
<svg version="1.1" id="Слой_1" xmlns="http://www.w3.org/2000/svg" xmlns:xlink="http://www.w3.org/1999/xlink" x="0px" y="0px"
	 width="2540.126px" height="2000px" viewBox="0 0 2540.126 2000" enable-background="new 0 0 2540.126 2000" xml:space="preserve">
<g>
	<g>
		
			<linearGradient id="SVGID_1_" gradientUnits="userSpaceOnUse" x1="-11487.4893" y1="497.0477" x2="-11078.5137" y2="497.0477" gradientTransform="matrix(-0.9986 -0.0538 -0.0538 0.9986 -10712.3955 -262.7858)">
			<stop  offset="0" style="stop-color:#40D5E6"/>
			<stop  offset="1" style="stop-color:#5577FF"/>
		</linearGradient>
		<path fill="url(#SVGID_1_)" d="M695.082,862.257c26.51,57.853,41.407,112.594,21.886,137.015
			c-1.155,1.441-2.413,2.765-3.777,3.969c-15.037,13.247-44.608,13.545-94.534-6.175
			c-132.873-52.487-139.179-143.067-166.053-231.522c-26.493-87.348-119.037-72.59-121.396-72.194
			C546.841,618.239,650.105,764.181,695.082,862.257z"/>
		<g>
			
				<linearGradient id="SVGID_2_" gradientUnits="userSpaceOnUse" x1="-3070.002" y1="3991.5889" x2="-3070.002" y2="3704.0142" gradientTransform="matrix(0.7495 -0.662 0.662 0.7495 403.1761 -3989.7178)">
				<stop  offset="0" style="stop-color:#40D5E6"/>
				<stop  offset="1" style="stop-color:#5577FF"/>
			</linearGradient>
			<path fill="url(#SVGID_2_)" d="M716.968,999.272c-1.155,1.441-2.413,2.765-3.777,3.969
				c-24.96-15.034-72.751-46.912-95.284-82.699c-10.629-16.892-19.559-35.883-29.036-55.973
				c-17.877-38.002-36.402-77.296-68.72-107.431l3.603-3.887c33.058,30.854,51.778,70.608,69.889,109.072
				c9.393,19.954,18.256,38.792,28.736,55.394C644.351,952.629,692.638,984.632,716.968,999.272z"/>
		</g>
	</g>
	<g>
		
			<linearGradient id="SVGID_3_" gradientUnits="userSpaceOnUse" x1="-11448.3477" y1="373.6015" x2="-11254.7568" y2="373.6015" gradientTransform="matrix(-0.9986 -0.0538 -0.0538 0.9986 -10712.3955 -262.7858)">
			<stop  offset="0" style="stop-color:#40D5E6"/>
			<stop  offset="1" style="stop-color:#5577FF"/>
		</linearGradient>
		<path fill="url(#SVGID_3_)" d="M671.994,885.895c-1.563,3.849-2.575,6.029-2.686,6.273c-0.408-2.125-0.805-4.234-1.208-6.271
			c-17.726-90.823-41.43-100.312-112.503-179.76c-72.684-81.257-30.885-156.956-30.885-156.956
			C768.218,619.537,688.542,845.294,671.994,885.895z"/>
		<g>
			
				<linearGradient id="SVGID_4_" gradientUnits="userSpaceOnUse" x1="-1402.545" y1="3380.4004" x2="-1402.545" y2="3098.0281" gradientTransform="matrix(0.8707 -0.4917 0.4917 0.8707 250.2412 -2755.3765)">
				<stop  offset="0" style="stop-color:#40D5E6"/>
				<stop  offset="1" style="stop-color:#5577FF"/>
			</linearGradient>
			<path fill="url(#SVGID_4_)" d="M671.994,885.895c-1.563,3.849-2.575,6.029-2.686,6.273c-0.408-2.125-0.805-4.234-1.208-6.271
				c7.887-78.516-39.48-170.651-54.363-187.182c-15.401-17.123-24.89-40.664-28.473-49.534c-0.604-1.471-1.169-2.873-1.353-3.199
				l3.434-1.94c0.302,0.533,0.695,1.511,1.571,3.665c3.503,8.689,12.82,31.762,27.76,48.352
				C635.537,717.025,679.234,809.601,671.994,885.895z"/>
		</g>
	</g>
	<g>
		<g>
			<g>
				<g>
					<g>
						<g>
							<path fill="#F0C141" d="M2053.013,512.552l-30.011-49.134c-2.461-4.029-1.189-9.291,2.839-11.751
								c4.03-2.461,9.29-1.189,11.752,2.839l21.221,34.746l56.417-33.391c4.063-2.405,9.306-1.06,11.71,3.002
								c2.405,4.063,1.061,9.306-3.002,11.711L2053.013,512.552z"/>
						</g>
					</g>
				</g>
			</g>
		</g>
		<g>
			<path fill="#F0C141" d="M2073.162,588.297c-59.511,0-107.926-48.416-107.926-107.926c0-59.51,48.415-107.926,107.926-107.926
				c59.509,0,107.925,48.416,107.925,107.926C2181.086,539.881,2132.671,588.297,2073.162,588.297z M2073.162,387.863
				c-51.01,0-92.508,41.499-92.508,92.508s41.499,92.508,92.508,92.508c51.009,0,92.508-41.499,92.508-92.508
				S2124.171,387.863,2073.162,387.863z"/>
		</g>
	</g>
	<g>
		<g>
			<g>
				<g>
					<g>
						<g>
							<path fill="#F0C141" d="M1718.776,353.817l-18.546-30.364c-1.521-2.49-0.735-5.741,1.755-7.262
								c2.489-1.521,5.74-0.734,7.261,1.755l13.115,21.472l34.865-20.635c2.511-1.486,5.752-0.655,7.238,1.856
								c1.485,2.51,0.655,5.751-1.856,7.237L1718.776,353.817z"/>
						</g>
					</g>
				</g>
			</g>
		</g>
		<g>
			<path fill="#F0C141" d="M1731.227,400.625c-36.776,0-66.695-29.92-66.695-66.696c0-36.776,29.919-66.696,66.695-66.696
				s66.696,29.92,66.696,66.696C1797.923,370.705,1768.003,400.625,1731.227,400.625z M1731.227,276.761
				c-31.523,0-57.168,25.645-57.168,57.168s25.645,57.168,57.168,57.168c31.522,0,57.168-25.645,57.168-57.168
				S1762.75,276.761,1731.227,276.761z"/>
		</g>
	</g>
	<g>
		<g>
			<g>
				<g>
					<g>
						<g>
							<path fill="#F0C141" d="M1375.809,241.74l-28.45-46.578c-2.333-3.82-1.128-8.808,2.692-11.14
								c3.819-2.332,8.806-1.127,11.139,2.691l20.118,32.939l53.483-31.654c3.852-2.279,8.823-1.005,11.101,2.846
								c2.28,3.852,1.005,8.822-2.845,11.102L1375.809,241.74z"/>
						</g>
					</g>
				</g>
			</g>
		</g>
		<g>
			<path fill="#F0C141" d="M1394.908,313.543c-56.413,0-102.311-45.897-102.311-102.311c0-56.414,45.897-102.311,102.311-102.311
				c56.414,0,102.311,45.897,102.311,102.311C1497.219,267.647,1451.323,313.543,1394.908,313.543z M1394.908,123.538
				c-48.355,0-87.694,39.34-87.694,87.695c0,48.355,39.34,87.695,87.694,87.695c48.356,0,87.695-39.34,87.695-87.695
				C1482.603,162.878,1443.264,123.538,1394.908,123.538z"/>
		</g>
	</g>
	<g>
		<g>
			<g>
				<g>
					<g>
						<g>
							<path fill="#F0C141" d="M1074.899,353.391l-18.799-30.777c-1.543-2.524-0.745-5.82,1.778-7.361
								c2.523-1.541,5.819-0.745,7.361,1.778l13.293,21.765l35.34-20.916c2.545-1.507,5.83-0.665,7.336,1.881
								c1.507,2.545,0.664,5.829-1.881,7.335L1074.899,353.391z"/>
						</g>
					</g>
				</g>
			</g>
		</g>
		<g>
			<path fill="#F0C141" d="M1087.519,400.837c-37.278,0-67.605-30.328-67.605-67.605c0-37.277,30.327-67.605,67.605-67.605
				c37.277,0,67.604,30.327,67.604,67.605C1155.123,370.51,1124.797,400.837,1087.519,400.837z M1087.519,275.285
				c-31.953,0-57.948,25.995-57.948,57.947c0,31.952,25.995,57.947,57.948,57.947c31.952,0,57.947-25.995,57.947-57.947
				C1145.466,301.28,1119.471,275.285,1087.519,275.285z"/>
		</g>
	</g>
	<g>
		<g>
			<g>
				<g>
					<g>
						<g>
							<path fill="#F0C141" d="M810.799,205.547l-23.531-38.529c-1.931-3.16-0.933-7.286,2.226-9.215
								c3.159-1.93,7.284-0.932,9.215,2.226l16.641,27.247l44.24-26.184c3.186-1.886,7.297-0.832,9.183,2.354
								c1.885,3.187,0.832,7.297-2.355,9.183L810.799,205.547z"/>
						</g>
					</g>
				</g>
			</g>
		</g>
		<g>
			<path fill="#F0C141" d="M826.599,264.941c-46.665,0-84.63-37.965-84.63-84.63c0-46.664,37.965-84.63,84.63-84.63
				c46.665,0,84.63,37.965,84.63,84.63C911.228,226.977,873.264,264.941,826.599,264.941z M826.599,107.772
				c-39.998,0-72.54,32.541-72.54,72.54c0,39.999,32.541,72.54,72.54,72.54s72.54-32.541,72.54-72.54
				C899.138,140.313,866.597,107.772,826.599,107.772z"/>
		</g>
	</g>
	<g>
		<g>
			<g>
				<g>
					<g>
						<g>
							<path fill="#F0C141" d="M511.03,397.088l-26.089-42.715c-2.141-3.503-1.034-8.077,2.468-10.216
								c3.503-2.138,8.076-1.033,10.216,2.468l18.449,30.207l49.047-29.029c3.532-2.091,8.091-0.922,10.181,2.61
								c2.09,3.532,0.921,8.09-2.611,10.181L511.03,397.088z"/>
						</g>
					</g>
				</g>
			</g>
		</g>
		<g>
			<path fill="#F0C141" d="M528.546,462.936c-51.735,0-93.826-42.09-93.826-93.825c0-51.735,42.09-93.825,93.826-93.825
				c51.735,0,93.825,42.09,93.825,93.825C622.371,420.846,580.281,462.936,528.546,462.936z M528.546,288.689
				c-44.345,0-80.421,36.077-80.421,80.422c0,44.344,36.076,80.422,80.421,80.422c44.344,0,80.422-36.077,80.422-80.422
				C608.968,324.766,572.89,288.689,528.546,288.689z"/>
		</g>
	</g>
	<g>
		<g>
			<g>
				<g>
					<g>
						<g>
							<path fill="#F0C141" d="M1942.395,221.456l-14.835-24.288c-1.217-1.992-0.589-4.593,1.404-5.809
								c1.991-1.216,4.592-0.588,5.808,1.404l10.491,17.176l27.889-16.506c2.009-1.189,4.601-0.524,5.79,1.484
								c1.189,2.009,0.524,4.601-1.484,5.789L1942.395,221.456z"/>
						</g>
					</g>
				</g>
			</g>
		</g>
		<g>
			<path fill="#F0C141" d="M1952.354,258.899c-29.418,0-53.351-23.933-53.351-53.351s23.933-53.351,53.351-53.351
				c29.418,0,53.352,23.933,53.352,53.351S1981.772,258.899,1952.354,258.899z M1952.354,159.818
				c-25.215,0-45.729,20.514-45.729,45.73c0,25.215,20.514,45.729,45.729,45.729c25.216,0,45.73-20.514,45.73-45.729
				C1998.085,180.332,1977.57,159.818,1952.354,159.818z"/>
		</g>
	</g>
	<g>
		<rect x="1195.802" y="1254.815" fill="#8F8F8F" width="147.149" height="446.941"/>
	</g>
	<g>
		<path fill="#F0F0F0" d="M698.687,1470.111h1141.378c35.691,0,64.626-28.934,64.626-64.627V638.373
			c0-35.693-28.934-64.627-64.626-64.627H698.687c-35.691,0-64.626,28.934-64.626,64.627v767.111
			C634.061,1441.176,662.996,1470.111,698.687,1470.111z"/>
	</g>
	<g>
		<rect x="683.824" y="478.344" fill="#FFFFFF" width="1171.104" height="851.298"/>
	</g>
	<g>
		<linearGradient id="SVGID_5_" gradientUnits="userSpaceOnUse" x1="683.8238" y1="529.7549" x2="1854.9277" y2="529.7549">
			<stop  offset="0" style="stop-color:#40D5E6"/>
			<stop  offset="1" style="stop-color:#5577FF"/>
		</linearGradient>
		<rect x="683.824" y="478.344" fill="url(#SVGID_5_)" width="1171.104" height="102.821"/>
	</g>
	<g>
		<ellipse fill="#CCCCCC" cx="1760.607" cy="1393.919" rx="48.194" ry="40.986"/>
	</g>
	<rect x="938.375" y="1684.887" fill="#CCCCCC" width="662.001" height="33.737"/>
	<path fill="#F5F7FF" d="M885.802,549.181H746.704c-7.714,0-13.967-6.253-13.967-13.967v-10.919c0-7.714,6.253-13.967,13.967-13.967
		h139.098c7.714,0,13.967,6.253,13.967,13.967v10.919C899.769,542.928,893.517,549.181,885.802,549.181z"/>
	<rect x="769.625" y="939.423" fill="#E6E6E6" width="613.144" height="21.076"/>
	<rect x="769.625" y="977.383" fill="#E6E6E6" width="454.765" height="21.076"/>
	<rect x="769.625" y="1059.865" fill="#E6E6E6" width="288.357" height="21.076"/>
	<rect x="769.625" y="1097.823" fill="#E6E6E6" width="518.055" height="21.076"/>
	<rect x="769.625" y="1188.524" fill="#E6E6E6" width="485.308" height="21.075"/>
	<rect x="769.625" y="1226.481" fill="#E6E6E6" width="592.613" height="21.076"/>
	<rect x="739.704" y="939.423" fill="#78C2FF" width="15.407" height="59.035"/>
	<rect x="739.704" y="1059.865" fill="#78C2FF" width="15.407" height="59.035"/>
	<rect x="739.704" y="1188.524" fill="#78C2FF" width="15.407" height="59.034"/>
	<g>
		<g>
			<path fill="#78C2FF" d="M1586.403,1274.141h-49.108c-9.759,0-17.671-7.912-17.671-17.672v-49.108
				c0-9.76,7.912-17.672,17.671-17.672h49.108c9.76,0,17.672,7.912,17.672,17.672v49.108
				C1604.075,1266.229,1596.163,1274.141,1586.403,1274.141z"/>
		</g>
		<g>
			<g>
				<g>
					<path fill="#F3F3F3" d="M1559.175,1250.516l-21.35-18.611c-1.75-1.527-1.933-4.183-0.407-5.934
						c1.527-1.751,4.183-1.932,5.934-0.406l15.098,13.162l21.529-24.014c1.55-1.729,4.209-1.874,5.938-0.323
						c1.73,1.55,1.874,4.209,0.324,5.938L1559.175,1250.516z"/>
				</g>
			</g>
		</g>
	</g>
	<g>
		<g>
			<g>
				<path fill="#78C2FF" d="M1584.871,1145.523h-46.042c-10.613,0-19.243-8.632-19.243-19.246v-46.039
					c0-10.613,8.63-19.249,19.243-19.249h46.042c10.613,0,19.243,8.635,19.243,19.249v46.039
					C1604.114,1136.891,1595.484,1145.523,1584.871,1145.523z M1538.829,1066.348c-7.656,0-13.884,6.23-13.884,13.89v46.039
					c0,7.657,6.227,13.887,13.884,13.887h46.042c7.657,0,13.884-6.23,13.884-13.887v-46.039c0-7.66-6.227-13.89-13.884-13.89
					H1538.829z"/>
			</g>
		</g>
	</g>
	<g>
		<g>
			<g>
				<path fill="#78C2FF" d="M1712.024,1274.18h-46.042c-10.613,0-19.249-8.632-19.249-19.245v-46.039
					c0-10.613,8.635-19.246,19.249-19.246h46.042c10.613,0,19.242,8.633,19.242,19.246v46.039
					C1731.266,1265.548,1722.637,1274.18,1712.024,1274.18z M1665.982,1195.009c-7.657,0-13.889,6.229-13.889,13.887v46.039
					c0,7.657,6.232,13.887,13.889,13.887h46.042c7.656,0,13.884-6.23,13.884-13.887v-46.039c0-7.658-6.227-13.887-13.884-13.887
					H1665.982z"/>
			</g>
		</g>
	</g>
	<g>
		<g>
			<path fill="#78C2FF" d="M1713.555,1145.482h-49.107c-9.76,0-17.672-7.912-17.672-17.672v-49.107
				c0-9.76,7.912-17.672,17.672-17.672h49.107c9.76,0,17.672,7.912,17.672,17.672v49.107
				C1731.227,1137.57,1723.315,1145.482,1713.555,1145.482z"/>
		</g>
		<g>
			<g>
				<g>
					<path fill="#F3F3F3" d="M1686.327,1121.858l-21.35-18.611c-1.75-1.527-1.933-4.184-0.406-5.934
						c1.526-1.75,4.183-1.932,5.934-0.406l15.097,13.162l21.53-24.014c1.55-1.73,4.209-1.875,5.938-0.324
						c1.73,1.551,1.875,4.209,0.324,5.938L1686.327,1121.858z"/>
				</g>
			</g>
		</g>
	</g>
	<g>
		<g>
			<g>
				<path fill="#78C2FF" d="M1712.024,1016.866h-46.042c-10.613,0-19.249-8.632-19.249-19.246v-46.04
					c0-10.613,8.635-19.248,19.249-19.248h46.042c10.613,0,19.242,8.635,19.242,19.248v46.04
					C1731.266,1008.233,1722.637,1016.866,1712.024,1016.866z M1665.982,937.691c-7.657,0-13.889,6.23-13.889,13.889v46.04
					c0,7.656,6.232,13.887,13.889,13.887h46.042c7.656,0,13.884-6.231,13.884-13.887v-46.04c0-7.659-6.227-13.889-13.884-13.889
					H1665.982z"/>
			</g>
		</g>
	</g>
	<g>
		<g>
			<path fill="#78C2FF" d="M1586.403,1016.825h-49.108c-9.759,0-17.671-7.912-17.671-17.671v-49.108
				c0-9.76,7.912-17.671,17.671-17.671h49.108c9.76,0,17.672,7.912,17.672,17.671v49.108
				C1604.075,1008.913,1596.163,1016.825,1586.403,1016.825z"/>
		</g>
		<g>
			<g>
				<g>
					<path fill="#F3F3F3" d="M1559.175,993.2l-21.35-18.612c-1.75-1.526-1.933-4.183-0.407-5.933
						c1.527-1.75,4.183-1.932,5.934-0.406l15.098,13.162l21.529-24.013c1.55-1.729,4.209-1.874,5.938-0.324
						c1.73,1.55,1.874,4.209,0.324,5.938L1559.175,993.2z"/>
				</g>
			</g>
		</g>
	</g>
	<g>
		
			<linearGradient id="SVGID_6_" gradientUnits="userSpaceOnUse" x1="-4649.2188" y1="1353.7535" x2="-4418.0073" y2="1353.7535" gradientTransform="matrix(-1 0 0 1 -4081.0078 0)">
			<stop  offset="0" style="stop-color:#40D5E6"/>
			<stop  offset="1" style="stop-color:#5577FF"/>
		</linearGradient>
		<path fill="url(#SVGID_6_)" d="M548.009,1048.232c-19.936-9.535-39.778,53.933-39.778,53.933
			c-33.885,44.776-81.242-14.791-76.611,52.143c8.102,117.126-134.817,36.833-68.882,159.115
			c65.935,122.283-58.22,69.144-17.245,167.743c40.976,98.601-12.133,216.201,49.52,167.874c0,0,54.286-119.044,110.271-155.877
			c55.985-36.832-33.54-80.534-16.023-130.56c25.441-72.661,86.741-69.807,42.542-147.891
			C487.604,1136.629,615.78,1080.644,548.009,1048.232z"/>
		<g>
			<path fill="#FFFFFF" d="M375.489,1604.239c26.725-18.794,58.001-149.769,59.867-227.78c0.956-39.96,12.768-56.609,23.19-71.298
				c9.962-14.04,18.565-26.166,13.553-54.009c-9.577-53.208,15.603-76.175,15.858-76.401l-2.914-3.322
				c-1.121,0.981-27.344,24.67-17.294,80.507c4.682,26.015-3.036,36.893-12.808,50.667c-10.254,14.453-23.016,32.437-24.004,73.749
				c-2.003,83.721-33.978,207.384-57.99,224.271L375.489,1604.239z"/>
		</g>
		<g>
			
				<linearGradient id="SVGID_7_" gradientUnits="userSpaceOnUse" x1="-4479.6069" y1="1482.7704" x2="-4270.5195" y2="1482.7704" gradientTransform="matrix(-1 0 0 1 -4081.0078 0)">
				<stop  offset="0" style="stop-color:#40D5E6"/>
				<stop  offset="1" style="stop-color:#5577FF"/>
			</linearGradient>
			<path fill="url(#SVGID_7_)" d="M319.473,1566.036c-2.522-5.718-5.132-11.63-8.087-17.868
				c-15.267-32.226-28.79-37.534-51.195-46.326c-5.475-2.149-11.68-4.584-18.492-7.645c-32.095-14.424-25.881-35.68-20.397-54.432
				c0.766-2.624,1.531-5.239,2.194-7.827c2.823-11.029-2.6-16.562-10.81-24.938c-6.102-6.225-13.694-13.974-19.548-26.21
				c-6.406-13.392-3.141-20.572,0.727-24.238c8.142-7.717,26.916-6.294,44.641,3.382l0,0c5.507,3.007,10.04,7.752,14.839,12.777
				c11.3,11.834,25.362,26.558,60.928,26.726c20.281,0.095,31.388,2.894,37.141,9.359c6.53,7.337,5.299,18.32,3.595,33.521
				c-0.59,5.259-1.257,11.217-1.662,17.655c-2.419,38.414,20.257,66.125,20.481,66.395c13.548,16.133,30.239,49.603,23.034,70.206
				c-3.019,8.635-9.773,14.07-20.073,16.152c-4.105,0.83-7.852,1.226-11.3,1.225
				C340.617,1613.946,331.508,1593.314,319.473,1566.036z M236.388,1363.811c-15.829-8.642-32.805-10.385-39.483-4.053
				c-5.076,4.811-2.682,13.053,0.22,19.121c5.538,11.575,12.54,18.721,18.718,25.024c8.589,8.765,15.374,15.688,11.934,29.129
				c-0.675,2.636-1.453,5.299-2.234,7.972c-5.459,18.675-10.616,36.314,17.968,49.161c6.713,3.016,12.866,5.432,18.294,7.562
				c22.617,8.875,37.558,14.739,53.575,48.548c2.98,6.292,5.601,12.233,8.136,17.977c13.825,31.334,22.171,50.244,52.396,44.138
				c8.664-1.751,14.309-6.22,16.778-13.28c6.349-18.156-8.841-49.94-22.251-65.908c-0.983-1.177-24.038-29.283-21.504-69.511
				c0.413-6.546,1.087-12.562,1.682-17.871c1.576-14.064,2.715-24.225-2.504-30.089c-4.771-5.362-15.214-7.791-33.861-7.879
				c-37.445-0.176-52.227-15.655-64.104-28.093C245.396,1370.786,241.292,1366.489,236.388,1363.811L236.388,1363.811z"/>
		</g>
		<g>
			
				<linearGradient id="SVGID_8_" gradientUnits="userSpaceOnUse" x1="-4461.7344" y1="1513.1755" x2="-4304.7998" y2="1513.1755" gradientTransform="matrix(-1 0 0 1 -4081.0078 0)">
				<stop  offset="0" style="stop-color:#40D5E6"/>
				<stop  offset="1" style="stop-color:#5577FF"/>
			</linearGradient>
			<path fill="url(#SVGID_8_)" d="M376.313,1639.462l4.414-0.232c-0.217-4.146-5.786-101.891-45.031-130.497
				c-43.056-31.384-56.631-65.111-63.095-87.749c-7.618-26.677-46.393-33.806-48.04-34.096l-0.769,4.353
				c0.376,0.067,37.701,6.945,44.558,30.956c6.645,23.267,20.585,57.92,64.742,90.106
				C370.655,1539.684,376.261,1638.467,376.313,1639.462z"/>
		</g>
		
			<linearGradient id="SVGID_9_" gradientUnits="userSpaceOnUse" x1="-4518.4058" y1="1386.889" x2="-4335.6406" y2="1386.889" gradientTransform="matrix(-1 0 0 1 -4081.0078 0)">
			<stop  offset="0" style="stop-color:#40D5E6"/>
			<stop  offset="1" style="stop-color:#5577FF"/>
		</linearGradient>
		<path fill="url(#SVGID_9_)" d="M286.583,1146.872c27.894-9.565,22.099,44.198,33.885,83.977
			c11.786,39.779,131.123,17.353,81.031,116.963s63.351,33.312,29.465,120.236c-33.885,86.924-2.946,179.89-39.779,156.243
			c-36.832-23.648-20.692-133.108-58.998-146.113c-38.305-13.007-44.556-28.177-6.629-63.536
			c37.927-35.359-99.381-70.462-65.495-141.86C293.949,1201.383,254.355,1157.921,286.583,1146.872z"/>
		<g>
			<path fill="#FFFFFF" d="M374.096,1620.124c3.507-14.881,33.465-145.835,5.513-161.664
				c-24.637-13.952-24.03-68.216-20.186-119.459c3.401-45.36-54.855-66.559-57.336-67.44l-1.479,4.166
				c0.576,0.205,57.555,20.959,54.406,62.945c-3.947,52.623-4.37,108.466,22.417,123.634c21.226,12.021,1.684,117.266-7.638,156.804
				L374.096,1620.124z"/>
		</g>
		
			<linearGradient id="SVGID_10_" gradientUnits="userSpaceOnUse" x1="304.6588" y1="1649.0403" x2="473.3106" y2="1649.0403" gradientTransform="matrix(1 0 0 1 6.0278 0)">
			<stop  offset="0" style="stop-color:#FF9340"/>
			<stop  offset="1" style="stop-color:#FFCE45"/>
		</linearGradient>
		<polygon fill="url(#SVGID_10_)" points="479.338,1573.494 439.513,1724.587 350.512,1724.587 310.687,1573.494 		"/>
		
			<linearGradient id="SVGID_11_" gradientUnits="userSpaceOnUse" x1="304.6588" y1="1649.0403" x2="473.3106" y2="1649.0403" gradientTransform="matrix(1 0 0 1 6.0278 0)">
			<stop  offset="0" style="stop-color:#C97332"/>
			<stop  offset="1" style="stop-color:#FFCE45"/>
		</linearGradient>
		<path fill="url(#SVGID_11_)" d="M479.338,1573.494c0,0-87.675,16.462-87.675,151.093h-41.152l-39.825-151.093H479.338z"/>
	</g>
	<g>
		<g>
			<g>
				<g>
					<path fill="#EEA886" d="M1176.837,1473.22c0,0,3.064,5.021,3.448,9.12c0.304,3.243,3.031,8.091,4.212,10.77
						c1.181,2.678,4.982,14.8,5.118,17.952c0.057,1.29-2.821,9.418-2.413,12.018c0.408,2.599,1.896,7.751-0.439,8.093
						c-2.335,0.343-4.981-3.881-4.981-3.881s0.22,2.395-1.756,3.307c-3.841,1.778-5.874,0.213-5.874,0.213s-1.416,2.633-3.195,2.988
						c-3.922,0.78-5.842-0.79-5.842-0.79s-1.728,1.476-4.438,1.424c-3.465-0.067-4.922-3.062-4.922-3.062s-4.39,0.888-5.663-1.16
						c-1.273-2.049-1.053-4.233-1.58-6.088c-0.528-1.855-0.129-18.615,5.564-30.682c5.694-12.067-1.449-23.836-1.449-23.836
						L1176.837,1473.22z"/>
				</g>
			</g>
		</g>
		<g>
			<g>
				<path fill="#DB9C7C" d="M1182.398,1525.721c0,0,0.391-15.038-3.567-18.239c-3.957-3.201-4.408,2.226-4.408,2.226
					s0.538-5.363-3.787-6.087c-4.324-0.725-4.506,5.647-4.506,5.647s-0.709-4.135-5.252-3.286c-4.543,0.85-3.461,6.128-3.461,6.128
					s-4.339-5.176-7.153-0.205c-4.752,8.393-0.173,18.307-0.173,18.307s1.34,2.273,5.663,1.16c0,0,2.892,5.826,9.36,1.637
					c0,0,6.624,3.645,9.038-2.197C1174.152,1530.812,1181.452,1534.281,1182.398,1525.721z"/>
			</g>
		</g>
		<path fill="#323657" d="M1227.846,1256.609c0,0-25.741,85.794-34.439,117.442c-2.728,9.926-9.33,104.709-10.495,108.525
			c-1.165,3.817-33.816,9.045-33.816,9.045s3.957-118.575,4.325-125.042c0.37-6.468,36.026-138.882,46.396-143.607
			c7.769-3.538,11.87-0.611,21.66,6.657C1235.217,1239.831,1227.846,1256.609,1227.846,1256.609z"/>
		<g>
			
				<rect x="1507.16" y="1084.124" transform="matrix(0.5476 0.8367 -0.8367 0.5476 1619.5557 -756.906)" fill="#4DA8F2" width="5.23" height="70.42"/>
		</g>
		<path fill="#EFAA88" d="M1546.951,1120.036c0,0-0.563,3.333-1.519,4.67c0,0-1.928,2.3-3.199,4.018
			c-0.401,0.547-0.74,1.031-0.924,1.368c-0.776,1.404-2.058,4.718-4.869,7.565c-2.804,2.847-13.734,11.897-13.734,11.897
			l-9.365-7.948l-9.723-4.358c0,0,5.444-23.663,7.752-26.618c0.227-0.287,0.462-0.564,0.703-0.805
			c2.196-2.312,4.804-3.109,6.093-4.193c0.476-0.394,5.478-3.998,7.261-3.533c2.474,0.642,3.929,2.092,4.493,3.75
			c0,0,4.792,1.472,6.657,4.282c0,0,4.463,1.216,5.789,5.373C1542.367,1115.504,1546.756,1117.246,1546.951,1120.036z"/>
		<g>
			<g>
				<path fill="#424773" d="M1206.959,1842.397c0,0-2.346,16.287-2.64,18.733s-26.103-1.441-26.103-1.441l-2.09-19.389
					C1176.126,1840.3,1203.733,1840.099,1206.959,1842.397z"/>
			</g>
		</g>
		<g>
			<g>
				<path fill="#292C47" d="M1204.595,1859.059c0,0,8.177,9.813,16.086,14.092c7.91,4.278,20.338,5.973,25.014,10.4
					c3.377,3.197,12.297,16.958-20.552,16.68c-32.848-0.278-48.686,1.944-52.206-3.332c-3.52-5.276,5.093-38.942,5.093-38.942
					S1185.809,1860.756,1204.595,1859.059z"/>
			</g>
		</g>
		<g>
			<g>
				<path fill="#424773" d="M1391.888,1842.397c0,0-2.346,16.287-2.64,18.733c-0.293,2.446-26.102-1.441-26.102-1.441l-2.09-19.389
					C1361.056,1840.3,1388.661,1840.099,1391.888,1842.397z"/>
			</g>
		</g>
		<g>
			<g>
				<path fill="#292C47" d="M1389.523,1859.059c0,0,8.177,9.813,16.087,14.092c7.909,4.278,37.014,7.792,41.691,12.22
					c3.376,3.196,8.99,16.063-37.229,14.86c-32.838-0.855-48.686,1.944-52.205-3.332c-3.52-5.276,5.092-38.942,5.092-38.942
					S1370.288,1860.945,1389.523,1859.059z"/>
			</g>
		</g>
		<g>
			<g>
				<path fill="#292C47" d="M1228.332,1423.891c0,0-24.252,38.531-22.443,73.36c1.809,34.828-8.793,72.853-12.436,109.238
					c-4.061,40.561-20.682,136.584-21.285,158.281c-0.603,21.697,2.58,90.978,2.58,90.978l33.271,0.762
					c0,0,27.943-167.873,35.18-185.002c7.237-17.129,43.125-139.243,44.331-152.947
					C1288.736,1504.856,1228.332,1423.891,1228.332,1423.891z"/>
			</g>
		</g>
		<g>
			<g>
				<path fill="#292C47" d="M1355.995,1429.112c0,0,18.276,95.459,20.688,116.777c2.413,21.317,4.021,103.159,5.227,116.482
					c1.206,13.324,11.267,173.943,14.474,194.138h-42.534c0,0-32.651-117.056-32.651-172.44c0-55.383-25.224-120.403-41.508-156.945
					c-16.283-36.542-53.554-37.407-63.564-105.204C1216.127,1421.92,1342.443,1407.609,1355.995,1429.112z"/>
			</g>
		</g>
		<g>
			<g>
				<path fill="#EEA886" d="M1268.799,1099.952c0,0,32.552-12.159,47.56,12.62c15.01,24.778,13.563,74.384-2.844,80.484
					c-16.408,6.099-41.055,2.91-49.456-12.594c-8.4-15.505-15.984-37.921-15.62-52.899
					C1248.804,1112.583,1260.253,1104.276,1268.799,1099.952z"/>
			</g>
		</g>
		<g>
			<g>
				<path fill="#EEA886" d="M1309.981,1194.19c0,0-1.354,8.788,0.884,13.118c2.239,4.329-42.171,4.442-42.171,4.442
					s-3.606-23.548-10.44-43.444C1251.419,1148.409,1309.981,1194.19,1309.981,1194.19z"/>
			</g>
		</g>
		<g>
			<g>
				<path fill="#D88A51" d="M1258.254,1168.306c0,0,3.065,5.057,15.577,3.094c12.512-1.961,27.776-18.608,32.999-20.436
					c5.224-1.827,5.274-4.897,5.274-4.897l3.271,4.778l5.549,0.35c0,0-5.061-14.89,2.574-20.963
					c7.634-6.073-7.924-48.197-48.05-34.173c0,0-30.819,8.494-29.699,26.023C1246.869,1139.611,1251.357,1159.577,1258.254,1168.306
					z"/>
			</g>
		</g>
		<g>
			<g>
				<path fill="#E2D2CA" d="M1313.502,1206.787c0,0-0.14-8.272-3.89-9.066c-3.749-0.793-41.385-4.412-45.988-2.603v9.636
					C1263.624,1204.755,1272.492,1210.212,1313.502,1206.787z"/>
			</g>
		</g>
		<g>
			<g>
				<path fill="#EEA886" d="M1311.276,1139.693c-0.702-2.939-8.178-11.341-11.04-2.344c-2.863,8.994,4.324,21.095,8.334,20.058
					C1312.579,1156.371,1313.054,1147.146,1311.276,1139.693z"/>
			</g>
		</g>
		<g>
			<g>
				<path fill="#323657" d="M1375.751,1219.311c-25.805-3.4-62.251-12.525-62.251-12.525l-49.878-2.032
					c0,0-45.777,10.077-63.806,18.219c-1.709,0.772-1.717,40.839-6.41,51.346l14.947,31.533c0,0,8.635,62.463,10.426,90.243
					c0.823,12.754-17.807,119.586-17.807,119.586s19.961,5.877,54.003,9.629c34.042,3.752,119.096-1.356,119.633-5.376
					c0.537-4.023-16.472-149.714-17.225-157.259c-1.156-11.58,3.992-73.115,3.992-73.115c7.859-6.096,76.869-38.128,95.695-54.823
					c5.039-4.468,26.304-25.176,32.349-32.324c21.405-25.313,38.955-47.028,41.09-51.707c2.426-2.664-23.809-16.803-26.138-17.58
					c-2.04-0.68-30.426,36.99-41.564,49.054c-4.966,5.379-25.609,20.396-25.609,20.396S1391.895,1220.239,1375.751,1219.311z"/>
			</g>
		</g>
		<g>
			<g>
				<path fill="#D88A51" d="M1259.529,1102.875c0,0-41.505,3.248-1.275,65.431L1259.529,1102.875z"/>
			</g>
		</g>
		<polygon fill="#DFE1E8" points="1540.667,1102.238 1544.072,1097.043 1537.803,1097.862 		"/>
	</g>
	<g>
		<path fill="#DE9673" d="M709.689,1400.791c0,0,20.192,1.219,25.848,4.365c5.656,3.146,43.835-8.885,44.542-11.661
			c0.707-2.777,0-4.145,0-4.145h-74.944L709.689,1400.791z"/>
		<g>
			<path fill="#DE9673" d="M619.045,1311.749c0,0-6.441,50.616,0,57.248c24.606,25.342,115.802,23.331,115.802,23.331l-0.036,10.305
				c0,0-138.622,17.288-151.501-9.598c-15.477-32.308-9.471-84.993-9.471-84.993L619.045,1311.749z"/>
		</g>
		<g>
			<polygon fill="#2F4563" points="573.295,1845.142 581.53,1835.756 566.663,1820.206 554.108,1828.999 			"/>
		</g>
		<g>
			<path fill="#1E2D40" d="M554.108,1828.999c0,0,16.966,12.781,21.685,13.295c4.718,0.515,6.946,2.618,6.385,9.809
				c-0.562,7.189,6.896,37.472,12.091,37.957s22.882,0.581,26.092,12.242c3.211,11.66-56.116,9.209-59.79-0.352
				c-3.675-9.563-29.216-55.917-26.191-59.647C537.407,1838.573,545.401,1830.191,554.108,1828.999z"/>
		</g>
		<g>
			<path fill="#23344A" d="M662.975,1466.722c0,0,110.842,193.087,65.848,233.036c-17.644,15.666-34.629,29.836-59.044,50.801
				c-12.979,11.142-28.648,24.051-47.224,43.39l-0.772,0.809c-13.248,13.81-24.181,25.481-27.55,29.09
				c-0.12,0.119-0.226,0.233-0.318,0.338l-0.376,0.4l-12.337,11.772l-18.102-15.911c0,0,20.518-28.391,32.088-50.198
				c16.239-30.604,43.523-66.579,56.146-76.616c21.625-17.191,27.569-20.568,27.569-37.005c0-17.63-101.595-116.122-101.595-116.122
				s-14.739-61.64,20.469-77.77C632.083,1447.014,662.975,1466.722,662.975,1466.722z"/>
		</g>
		<path fill="#41608A" d="M578.445,1875.048c0,0-0.7-8.891,0.801-14.577c1.501-5.686-22.947-2.423-22.947-2.423
			s-3.147,23.749-2.237,29.188C554.971,1892.674,578.445,1875.048,578.445,1875.048z"/>
		<g>
			<path fill="#2F4563" d="M583.012,1860.502l-32.969,5.941c0,0-2.376-42.069-1.948-74.297c0.461-34.643-1.282-61.881,9.298-89.455
				c9.898-25.792,7.646-35.62,8.51-53.225c0.871-17.607-8.452-108.281-8.452-108.281s-11.262-40.595,14.809-69.232
				c25.398-27.909,91.11-0.117,91.11-0.117s-13.688,123.869-46.554,200.486c-9.303,21.683-4.274,34.859-16.137,68.365
				C600.677,1740.685,582.659,1813.753,583.012,1860.502z"/>
		</g>
		<g>
			<path fill="#EEA987" d="M611.711,1226.925c-1.727,2.911-2.99,6.643-3.908,10.601c-0.873,3.736-1.44,7.673-1.808,11.312
				c-0.8,7.899-0.664,14.401-0.664,14.401s-43.978-9.574-36.761-19.828c7.213-10.259,2.969-41.342,2.969-41.342
				S617.405,1217.333,611.711,1226.925z"/>
		</g>
		<g>
			<path fill="#EEA886" d="M636.455,1142.211c0,0,11.256,9.777,6.225,37.944c0,0,2.488,22.436,5.924,26.347
				c3.435,3.911-9.221,5.357-10.552,8.176c-1.332,2.819-3.849,16.006-12.672,23.953c-8.823,7.949-52.506-16.013-54.633-29.548
				c-2.127-13.537-32.395-71.558,15.513-74.214C634.167,1132.213,636.455,1142.211,636.455,1142.211z"/>
		</g>
		<g>
			<path fill="#EB4747" d="M666.595,1350.034c-0.892,2.825,2.465,46.162,2.16,49.902c-1.677,20.497,3.616,51.647,5.7,62.8
				c0.496,2.639,0.772,3.986,0.772,3.986c-47.487,23.225-113.536,21.193-113.536,21.193c0.236-1.797,9.456-24.112,9.692-25.82
				c3.91-27.879,9.685-40.606,8.113-59.462l0.005-0.002c-0.877-10.594-3.573-21.671-9.156-35.389
				c-16.127-39.622-15.25-66.001-12.62-87.771c2.624-21.767,9.152-34.181,9.152-34.181l40.119,4.308
				c8.516,9.432,16.094,14.461,40.297,35.945C673.043,1308.408,677.547,1315.349,666.595,1350.034z"/>
		</g>
		<g>
			<path fill="#23344A" d="M552.586,1881.071c0,0,23.204-6.599,23.893-7.247c0.688-0.646,0.844-2.052,4.045-0.772
				c3.201,1.281,4.525,6.131,7.667,7.667c3.142,1.536,22.291,7.135,32.782,12.298c3.792,1.866,19.835,7.983,22.147,13.094
				c2.312,5.111,1.594,12.786-25.971,10.967c-27.566-1.821-57.719,2.067-63.756-0.947
				C547.357,1913.114,551.005,1889.046,552.586,1881.071z"/>
		</g>
		<g>
			<path fill="#464240" d="M643.878,1170.03c0,0,5.387-58.487-51.32-48.044c-56.708,10.443-27.477,74.364-19.837,95.2
				c0,0-0.927-32.359,26.376-33.413C626.399,1182.718,632.041,1176.4,643.878,1170.03z"/>
		</g>
		<g>
			<path fill="#EEA987" d="M594.66,1175.561c-3.413-5.94-15.122-2.772-13.784,6.274c1.338,9.047,10.72,18.074,13.83,13.698
				C597.817,1191.156,599.673,1184.287,594.66,1175.561z"/>
		</g>
		<g>
			<path fill="#EEA987" d="M595.952,1290.468c0,0-4.673,50.104,1.767,56.738c24.606,25.342,121.693,25.824,121.693,25.824
				l4.637,14.568c0,0-144.315,9.824-157.193-17.061c-15.477-32.308-9.471-84.994-9.471-84.994L595.952,1290.468z"/>
		</g>
		<path fill="#464240" d="M574.584,1136.38c0,0-21.839-20.952-37.365,2.781c-15.526,23.732,18.444,56.835,32.215,37.185
			S574.584,1136.38,574.584,1136.38z"/>
		<path fill="#A77860" d="M607.804,1237.526c-0.873,3.736-1.44,7.673-1.808,11.312c-14.611-6.659-25.536-27.004-25.536-27.004
			c10.58,9.12,27.34,15.688,27.34,15.688S607.8,1237.521,607.804,1237.526z"/>
		<rect x="678.917" y="1387.598" fill="#6E6760" width="137.641" height="7.684"/>
		
			<rect x="775.307" y="1328.268" transform="matrix(0.4505 -0.8928 0.8928 0.4505 -725.4252 1485.6418)" fill="#6E6760" width="137.641" height="7.684"/>
		<path fill="#EEA987" d="M699.143,1373.03c0,0,20.192-1.55,25.848-5.557c5.656-4.006,43.835,11.313,44.542,14.848
			c0.707,3.535,0,5.277,0,5.277h-74.944L699.143,1373.03z"/>
		<polygon fill="#EB4747" points="566.878,1245.291 569.703,1237.618 608.236,1245.291 608.236,1252.112 		"/>
		<g>
			<path fill="#EEA987" d="M595.892,1291.129c0,0,4.135-29.042-16.084-31.594c-20.219-2.551-22.436,26.118-22.436,26.118
				L595.892,1291.129z"/>
		</g>
	</g>
	<g>
		<g>
			<path fill="#5C544D" d="M1913.051,1838.618c0,0,2.345,16.44,2.64,18.91c0.292,2.47,26.098-1.455,26.098-1.455l2.089-19.571
				C1943.877,1836.501,1916.277,1836.298,1913.051,1838.618z"/>
		</g>
		<g>
			<path fill="#3C4145" d="M1915.416,1855.437c0,0-8.176,9.907-16.084,14.225c-7.908,4.318-20.335,6.028-25.011,10.498
				c-3.375,3.226-12.294,17.117,20.549,16.836c32.843-0.28,48.679,1.963,52.197-3.363c3.518-5.326-5.092-39.309-5.092-39.309
				S1934.197,1857.149,1915.416,1855.437z"/>
		</g>
		<g>
			<path fill="#5C544D" d="M1728.152,1838.618c0,0,2.345,16.44,2.639,18.91c0.293,2.47,26.099-1.455,26.099-1.455l2.089-19.571
				C1758.979,1836.501,1731.377,1836.298,1728.152,1838.618z"/>
		</g>
		<g>
			<path fill="#3C4145" d="M1730.517,1855.437c0,0-8.176,9.907-16.085,14.225c-7.908,4.318-37.008,7.864-41.684,12.335
				c-3.376,3.225-8.989,16.214,37.223,14.999c32.832-0.862,48.678,1.963,52.197-3.363c3.518-5.326-5.092-39.309-5.092-39.309
				S1749.748,1857.341,1730.517,1855.437z"/>
		</g>
		<g>
			<path fill="#33373B" d="M1903.884,1414.18c0,0,13.734,40.796,11.925,75.953c-1.808,35.156,7.102,73.627,10.744,110.354
				c4.061,40.943,20.679,137.871,21.282,159.772c0.603,21.901-2.579,91.835-2.579,91.835l-33.265,0.769
				c0,0-27.94-169.453-35.175-186.745c-7.236-17.29-43.118-140.556-44.325-154.389
				C1831.286,1497.897,1903.884,1414.18,1903.884,1414.18z"/>
		</g>
		<g>
			<path fill="#3C4145" d="M1764.039,1421.439c0,0-18.273,96.359-20.685,117.877c-2.412,21.519-4.02,104.132-5.226,117.581
				c-1.206,13.448-8.039,175.986-14.471,195.966h42.527c0,0,32.645-118.159,32.645-174.064c0-55.906,25.221-121.537,41.502-158.424
				c16.28-36.886,53.546-37.759,63.553-106.195C1903.884,1414.18,1777.589,1399.734,1764.039,1421.439z"/>
		</g>
		<g>
			<path fill="#EEA886" d="M1850.468,1092.125c0,0-33.522-12.52-48.979,12.998c-15.458,25.518-13.968,76.606,2.929,82.887
				c16.898,6.283,42.282,2.997,50.932-12.97c8.651-15.968,16.462-39.052,16.086-54.479
				C1871.061,1105.134,1859.27,1096.579,1850.468,1092.125z"/>
		</g>
		<g>
			<path fill="#EEA886" d="M1810.045,1186.442c0,0,1.354,8.788-0.884,13.116c-2.238,4.328,42.164,4.442,42.164,4.442
				s3.605-23.544,10.438-43.438C1868.598,1140.669,1810.045,1186.442,1810.045,1186.442z"/>
		</g>
		<g>
			<path fill="#FCCCA2" d="M1861.764,1160.562c0,0-3.064,5.056-15.573,3.095c-12.511-1.962-27.771-18.605-32.995-20.433
				c-5.223-1.827-5.273-4.896-5.273-4.896l-3.269,4.777l-5.548,0.35c0,0,5.06-14.887-2.574-20.959
				c-7.633-6.073,7.923-48.19,48.043-34.168c0,0,30.813,8.494,29.693,26.019C1873.147,1131.871,1868.66,1151.834,1861.764,1160.562z
				"/>
		</g>
		<g>
			<path fill="#E2D2CA" d="M1806.526,1199.037c0,0,0.14-8.271,3.889-9.063c3.748-0.793,41.379-4.411,45.98-2.603v9.634
				C1856.395,1197.005,1847.528,1202.462,1806.526,1199.037z"/>
		</g>
		<g>
			<path fill="#EEA886" d="M1808.752,1131.954c0.702-2.939,8.175-11.339,11.038-2.344c2.863,8.993-4.324,21.09-8.333,20.055
				C1807.449,1148.629,1806.972,1139.406,1808.752,1131.954z"/>
		</g>
		<g>
			<path fill="#EB4747" d="M1806.526,1199.037c0,0-20.629,7.417-44.522,17.57c0,0-27.487,10.264-30.464,40.619
				c-1.581,16.112-18.736,101.626-21.952,108.862c-3.216,7.237-41.26,123.474-42.6,125.886c-1.34,2.411,31.048,15.855,33.192,14.783
				c2.145-1.071,36.836-106.017,40.319-113.789c0,0,19.969-62.928,20.505-72.307c0,0,0.573,26.737,1.646,34.24
				c1.072,7.504-17.758,153.212-17.222,157.232c0.535,4.02,85.577,9.127,119.614,5.376c34.034-3.752,61.5-11.584,61.5-11.584
				s-26.782-114.991-25.96-127.742c1.792-27.776,11.074-80.097,11.074-80.097l27.752,52.322l-35.524,91.391l8.136,27.776
				c0,0,66.011-99.75,68.155-108.863c2.144-9.112-3.235-20.72-6.719-28.223c-3.485-7.504-26.368-64.616-31.728-72.656
				c-5.36-8.04-14.416-40.238-36.309-49.198c-18.306-7.491-49.024-13.629-49.024-13.629L1806.526,1199.037z"/>
		</g>
		<g>
			
				<rect x="1617.022" y="1414.471" transform="matrix(0.9687 0.2484 -0.2484 0.9687 418.4355 -375.5007)" fill="#D6D6D6" width="160.539" height="111.998"/>
		</g>
		<g>
			<path fill="#C98462" d="M1653.446,1515.697c0,0-4.444,7.181-6.067,9.23c-1.622,2.047,3.99,3.333,6.395,1.26
				C1656.18,1524.114,1653.446,1515.697,1653.446,1515.697z"/>
		</g>
		<g>
			<path fill="#DE9D7D" d="M1685.83,1540.224c0,0,2.626-2.736,3.19-4.494c0,0,0.781-3.275,1.478-5.569
				c0.223-0.728,0.434-1.357,0.613-1.75c0.745-1.637,2.871-5.01,3.556-9.447c0.688-4.431,2.624-24.328,2.624-24.328l-12.046-3.034
				l-9.678-2.043c0,0-20.906,20.854-22.024,24.911c-0.107,0.397-0.199,0.793-0.255,1.171c-0.612,3.527,0.414,6.408,0.303,8.296
				c-0.036,0.693,0.065,7.61,1.676,8.905c2.235,1.799,4.515,2.14,6.386,1.539c0,0,4.532,3.33,8.313,3.128
				c0,0,4.081,3.208,8.714,1.619C1678.681,1539.127,1683.186,1541.915,1685.83,1540.224z"/>
		</g>
		<g>
			<path fill="#EB4747" d="M1732.851,1414.397c0,0-27.602,83.588-32.671,92.36c0,0-20.24-4.255-33.192-14.783l30.303-90.21
				L1732.851,1414.397z"/>
		</g>
	</g>
	<g>
		<g>
			<g>
				<path fill="#1D3B54" d="M2322.721,1514.191c0,0-1.12-19.251-6.219-22.24c-5.098-2.99-2.151,2.968-2.151,2.968
					s2.865,13.971,3.497,19.631C2317.879,1514.824,2322.721,1514.191,2322.721,1514.191z"/>
			</g>
		</g>
		<path fill="#434343" d="M2187.076,1109.384c0,0,47.863-3.981,46.554,46.368c-1.308,50.349-9.29,57.923,0.027,93.501
			c9.315,35.578-46.663-20.202-46.663-20.202L2187.076,1109.384z"/>
		<path fill="#EEA987" d="M2146.818,1245.432c0,0-67.799,42.302-73.536,37.802c-8.02-6.289-29.803-59.96-29.803-59.96l-17.065,8.121
			c0,0,20.351,92.797,47.768,85.967c27.416-6.83,90.36-45.757,90.36-45.757L2146.818,1245.432z"/>
		<path fill="#EEA987" d="M2239.228,1420.514c0,0,17.625,22.464,23.845,37.325c6.221,14.859,16.588,47.432,15.206,72.66
			c-1.382,25.229-9.677,72.575-7.257,83.289c2.419,10.713,4.835,32.831,7.428,40.434c2.594,7.603,12.962,29.721,13.998,52.531
			c1.037,22.808-14.515,123.031-13.823,132.361s-17.625,3.802-17.625,3.802s-6.221-90.546-9.677-106.097
			c-3.456-15.552-7.603-68.427-10.713-72.23c-3.111-3.802-11.615-43.199-10.3-49.42c1.314-6.22-33.936-99.53-36.01-118.192
			c-2.074-18.663-54.051-76.463-54.051-76.463S2185.661,1403.148,2239.228,1420.514z"/>
		<path fill="#EEA987" d="M2155.111,1420.514c0,0-0.899,9.417-1.936,12.873c-1.037,3.456-24.883,91.582-27.302,125.45
			c-2.418,33.868-8.639,62.595-9.677,69.832c-1.036,7.236,1.037,31.427,3.111,37.648c2.073,6.221-10.368,153.097-11.405,156.553
			c-1.037,3.457,8.293,4.493,14.86,3.457c6.565-1.037,39.743-107.824,37.669-125.796c-2.073-17.971-4.147-56.289,1.728-71.861
			c5.875-15.573,58.75-128.237,59.096-135.149C2221.602,1486.608,2244.135,1367.552,2155.111,1420.514z"/>
		<path fill="#EEA987" d="M2261.327,1831.895c0,0-1.704,11.931-3.564,15.184c-1.859,3.254-6.972,19.834-9.297,22.933
			c-2.324,3.1-7.438,26.341,0,29.13c7.438,2.789,24.947,7.438,30.835-1.858c5.888-9.298,6.663-18.594,5.733-25.722
			c-0.93-7.128-8-39.839-7.902-43.075C2277.229,1825.25,2261.327,1831.895,2261.327,1831.895z"/>
		<path fill="#EB4747" d="M2251.434,1863.573c0,0-0.799,18.06,12.837,18.06s19.677-16.433,19.677-16.433s4.647,8.066,0,25.265
			c-4.646,17.199-24.015,13.635-28.354,13.015C2251.256,1902.861,2230.694,1897.42,2251.434,1863.573z"/>
		<path fill="#EB4747" d="M2109.376,1815.675c0,0-9.639,17.241-15.363,20.733c-7.134,4.352-20.977,18.318-25.814,18.963
			c-4.836,0.644-22.217,3.729-18.862,13.542c2.751,8.041,44.212,6.888,48.888,2.858c4.675-4.031,18.659-18.496,24.301-18.173
			c5.643,0.322,3.546,20.863,3.546,20.863h6.126c0,0,2.141-19.987,2.399-23.423c0.765-10.171-6.49-17.652-6.812-23.455
			c-0.323-5.804-0.655-10.134-0.655-10.134L2109.376,1815.675z"/>
		<path fill="#EEA987" d="M2069.587,1854.899c0,0,13.666,4.724,24.184-1.321c10.52-6.046,30.707-15.227,37.842-15.29
			c0,0-3.892-11.906-3.973-13.237c-0.081-1.333-0.507-7.601-0.507-7.601l-17.648-2.829c0,0-11.448,16.806-16.492,20.762
			C2087.946,1839.338,2075.024,1849.209,2069.587,1854.899z"/>
		<path fill="#EB4747" d="M2139.956,1418.959c0,0-4.925,20.476-6.74,26.438c-1.814,5.962-13.461,98.446-16.329,156.294
			c0,0,69.723,26.438,165.625,22.031c0,0,2.333-106.269-6.48-136.336c-8.812-30.066-24.767-58.199-36.805-66.872
			C2228.514,1412.796,2139.956,1418.959,2139.956,1418.959z"/>
		<g>
			<g>
				<path fill="#EEA987" d="M2299.129,1470.85c0,0-1.423,8.631-4.038,16.953c-2.615,8.32-5.023,10.972-3.974,15.741
					c0.792,3.599,4.864,6.3,5.892,5.146c1.027-1.155,1.525-15.145,7.322-15.082c5.798,0.065-1.733,17.328,1.716,16.06
					c3.452-1.268,16.737-8.544,15.901-15.597c-0.836-7.054-6.149-12.149-5.808-22.684c0.311-9.558-2.667-13.549-2.667-13.549
					L2299.129,1470.85z"/>
			</g>
		</g>
		<g>
			<g>
				<path fill="#EEA886" d="M2021.815,1227.268c0,0,8.089,10.512,13.078,11.628c4.989,1.114,10.416-10.77,10.416-10.77
					l-2.946-10.688L2021.815,1227.268z"/>
			</g>
		</g>
		<g>
			<g>
				<path fill="#EEA886" d="M2041.792,1223.752c0,0,3.874-12.129,4.408-14c0.533-1.871-1.363-7.359-4.802-12.588
					c-3.339-5.08-7.547-10.675-9.016-12.135c-0.765-0.762-1.188-1.619-3.713-0.48c-2.524,1.139-4.032,3.49-4.032,3.49
					s-3.773-0.059-5.412,2.979c0,0-3.551,0.107-4.849,3.861c0,0-3.465,0.198-4.177,3.005c0,0,1.672,5.18,1.738,7.275
					c0.065,2.095,4.28,12.629,9.878,22.109C2021.815,1227.268,2030.135,1234.435,2041.792,1223.752z"/>
			</g>
		</g>
		<g>
			<g>
				<path fill="#CF8C6C" d="M2032.905,1208.001c0,0-4.174,4.846-4.658,6.799c-0.484,1.954-12.67-5.31-12.67-5.31
					S2026.879,1203.085,2032.905,1208.001z"/>
			</g>
		</g>
		<g>
			<g>
				<path fill="#DB9C7C" d="M2033.021,1186.257c0,0,6.744,14.287,4.483,15.52c-2.26,1.233-3.839,0.315-3.839,0.315l-0.355,7.163
					c0,0-2.912,4.609-7.082,0.09c0,0-2.273,4.587-5.78-0.256c0,0-2.85,2.358-4.87,0.401c-2.02-1.956-5.379-11.606-5.379-11.606
					s0.207-2.355,4.177-3.005c0,0,1.03-3.671,4.849-3.861c0,0,2.162-3.761,6.289-3.93c0,0,2.357-3.369,6.868-2.059
					C2032.381,1185.029,2032.779,1185.634,2033.021,1186.257z"/>
			</g>
		</g>
		<g>
			<g>
				<path fill="#EEA886" d="M2046.067,1209.269c0,0-8.179-7.188-14.368-9.15c-1.401-0.445-2.837-0.62-3.778,0.512
					c-0.94,1.133-0.493,3.932,2.891,7.227c3.385,3.295,6.251,9.101,6.251,9.101S2041.532,1219.327,2046.067,1209.269z"/>
			</g>
		</g>
		<g>
			<path fill="#EEA886" d="M2025.513,1187.088c0,0,8.345,14.849,8.252,16.591c-0.094,1.742,5.468-1.226,5.444-2.72
				c-0.025-1.494-6.05-14.71-6.828-15.931C2031.604,1183.807,2027.011,1182.916,2025.513,1187.088z"/>
		</g>
		<g>
			<path fill="#EEA886" d="M2034.093,1187.889c0,0-13.302-24.816-15.262-23.911c-2.845,1.313-2.085,8.184,9.135,26.709
				C2038.878,1208.697,2034.093,1187.889,2034.093,1187.889z"/>
		</g>
		<path fill="#323657" d="M2143.178,1296.872l-27.378-36.324c0,0,48.942-37.907,64.045-13.803
			C2179.845,1246.744,2180.922,1286.455,2143.178,1296.872z"/>
		<path fill="#323657" d="M2126.737,1295.583c0.777,12.182,6.998,22.29,8.035,26.697c1.036,4.406,0,14.515,1.296,24.623
			c1.296,10.109,5.184,58.318,3.888,72.056s94.29,7.532,101.547,3.385c0,0-16.102-28.786-16.532-40.708
			c-0.15-4.096-2.591-16.848,4.147-26.178c3.556-4.925,10.153-20.602,16.742-32.063c0,0-1.219-2.379,0,0
			c2.555-4.448,5.228-8.881,7.095-12.178l0,0c2.436-4.308,3.79-9.41,3.79-9.41s4.253-52.879-7.41-58.84
			c-11.664-5.961-17.884-6.998-29.289-7.517c-11.406-0.519-18.922-2.851-18.922-2.851l-26.697,2.851c0,0-17.106,5.963-23.845,6.48
			c-6.739,0.518-15.293,15.033-14.515,24.364C2136.845,1275.625,2125.959,1283.4,2126.737,1295.583z"/>
		<g>
			<g>
				<path fill="#1D3B54" d="M2303.757,1493.022c0,0-7.719,1.973-7.261,28.086l8.742-1.459c0,0-0.16-14.433,2.45-22.298
					C2307.688,1497.351,2307.242,1492.241,2303.757,1493.022z"/>
			</g>
		</g>
		<g>
			<g>
				<polygon fill="#1D3B54" points="2271.704,1527.003 2339.782,1507.688 2339.581,1591.534 2271.831,1632.135 				"/>
			</g>
		</g>
		<g>
			<polygon fill="#1D3B54" points="2271.831,1632.135 2280.36,1633.711 2346.256,1592.731 2345.44,1508.075 2339.782,1507.688 			
				"/>
		</g>
		<path fill="#EEA886" d="M2237.987,1238.116c0,0,21.199-0.075,30.789,18.587c9.59,18.663,10.628,38.361,12.959,45.36
			c2.333,6.998,8.43,48.172,10.763,54.133c2.333,5.962,16.193,46.433,19.563,69.243c3.369,22.809,4.078,45.949,4.078,45.949
			l-17.01-0.537c0,0-16.883-62.057-22.698-76.828c-4.972-12.627-6.878-34.679-9.729-42.454
			c-2.851-7.776-20.476-62.467-24.104-66.355C2238.968,1281.326,2219.898,1241.562,2237.987,1238.116z"/>
		<path fill="#323657" d="M2244.93,1313.744l43.202-13.607c0,0-13.244-63.725-50.145-62.021
			C2208.376,1239.485,2244.93,1313.744,2244.93,1313.744z"/>
		<path fill="#EEA886" d="M2191.758,1114.487c-11.864-1.943-39.008,1.032-46.701,32.18c0,0-0.021,8.633,1.281,15.566
			c1.303,6.933-6.956,25.991-5.5,27.144c1.454,1.153,7.782,3.137,7.782,3.137s4.492,22.367,12.086,23.049
			c7.593,0.68,36.937-1.959,53.507-27.251C2230.784,1163.02,2239.662,1122.327,2191.758,1114.487z"/>
		<path fill="#EEA886" d="M2172.061,1206.893c0,0,0.586,3.129,1.13,7.737c0.28,2.355,0.547,5.093,0.721,7.993
			c0.474,8.029,0.228,17.319-2.512,23.211c0,0,14.865,9.213,30.8-12.936c0,0-1.553-27.641,7.597-42.255
			C2218.945,1176.035,2172.061,1206.893,2172.061,1206.893z"/>
		<path fill="#434343" d="M2145.057,1146.667c0,0,17.855,15.418,36.769,20.282c18.914,4.865,28.925,26.109,28.925,26.109
			s33.464-33.377,13.269-65.77C2203.825,1094.892,2145.088,1109.34,2145.057,1146.667z"/>
		<path fill="#A77860" d="M2173.191,1214.63c0.28,2.355,0.547,5.093,0.721,7.993c16.679-8.094,25.874-19.188,25.874-19.188
			C2189.98,1210.456,2173.191,1214.63,2173.191,1214.63z"/>
		<path fill="#434343" d="M2185.306,1168.058c0,0,19.345,52.02,17.028,64.54c0,0,10.238-1.763,28.473,3.814
			C2230.807,1236.412,2221.991,1143.602,2185.306,1168.058z"/>
		<path fill="#EEA886" d="M2208.794,1234.278c0,0-6.372,39.014-29.959,34.608c-23.586-4.406-5.696-32.995-5.696-32.995
			S2182.35,1227.621,2208.794,1234.278z"/>
	</g>
	<g>
		<path fill="#EEF0F7" d="M1748.533,749.246c0,30.488-10.963,58.406-29.158,80.044c-22.779,27.071-56.936,44.38-95.265,44.38
			c-39.497,0-75.44-18.524-98.464-48.349c-16.281-21.034-25.967-47.424-25.967-76.075c0-68.721,55.71-124.43,124.43-124.43
			C1692.824,624.816,1748.533,680.525,1748.533,749.246z"/>
		<path fill="#78C2FF" d="M1713.101,815.956c-0.458-0.457-1.49-0.835-2.088-1.227c-0.038-0.032-0.077-0.051-0.115-0.077
			l-0.007,0.013c-5.458-3.019-21.469-10.97-53.043-20.033c-0.006,0-0.018-0.006-0.026-0.006c-5.727-1.746-10.054-2.883-11.546-3.262
			l-2.677-4.259c-0.434-4.292-0.347-10.693-0.215-14.978c4.445-5.159,8.455-13.223,10.713-25.801
			c0.719,0.542,1.278-0.641,1.278-0.641c-0.399-0.709,6.005-16.341,4.851-19.867c-0.655-2.001-1.985-1.748-3.022-1.165
			c0.155-0.913,0.314-1.859,0.476-2.867c0,0,2.538-23.968-9.595-37.322c-1.252-1.206-5.721-1.504-5.721-1.504
			c-19.483-5.965-31.172-3.302-38.491-0.168c-10.848,8.887-11.672,24.013-11.177,32.344c0.216,1.972,0.442,3.957,0.665,5.889
			c0.004,0.04,0.009,0.06,0.009,0.06c0.091,0.771,0.182,1.52,0.273,2.267c-1.015-0.629-2.34-0.945-3.079,1.034
			c-1.298,3.476,3.44,19.086,4.031,20.05c0,0,1.02,1.601,1.822,0.875c0.006-0.005,0.007-0.03,0.012-0.036
			c2.238,13.713,6.27,22.185,10.508,27.388c-0.309,5.567-1.111,12.112-1.676,16.292l-4.819,5.031l0.003,0.004
			c-0.001,0-0.001,0.001-0.001,0.001c-0.251,0.083-0.507,0.167-0.765,0.257c0-0.02,0-0.032,0-0.032
			c-54.463,14.533-69.858,24.65-69.858,24.65c-1.368,0.84-2.768,3.096-4.175,6.453c22.734,29.453,58.508,48.349,98.464,48.349
			c38.397,0,72.528-17.359,95.265-44.379C1717.023,823.567,1715.338,818.19,1713.101,815.956z"/>
	</g>
	<g>
		<g>
			<rect x="747.761" y="651.193" fill="#E0E0E0" width="2.228" height="210.263"/>
		</g>
		<g>
			<rect x="906.194" y="651.193" fill="#E0E0E0" width="2.228" height="210.263"/>
		</g>
		<g>
			<rect x="1064.627" y="651.193" fill="#E0E0E0" width="2.228" height="210.263"/>
		</g>
		<g>
			<rect x="1223.06" y="651.193" fill="#E0E0E0" width="2.228" height="210.263"/>
		</g>
		<g>
			<rect x="1381.493" y="651.193" fill="#E0E0E0" width="2.228" height="210.263"/>
		</g>
		<rect x="748.875" y="873.912" fill="#B8B8B8" width="25.207" height="7.308"/>
		<rect x="748.875" y="625.284" fill="#D9D9D9" width="37.948" height="5.481"/>
		<rect x="748.875" y="635.415" fill="#D9D9D9" width="53.828" height="5.481"/>
		<rect x="905.6" y="625.284" fill="#D9D9D9" width="44.552" height="5.481"/>
		<rect x="905.6" y="635.415" fill="#D9D9D9" width="28.488" height="5.481"/>
		<rect x="1066.855" y="625.284" fill="#D9D9D9" width="27.608" height="5.481"/>
		<rect x="1066.855" y="635.415" fill="#D9D9D9" width="32.178" height="5.481"/>
		<rect x="1225.288" y="625.284" fill="#D9D9D9" width="40.214" height="5.481"/>
		<rect x="1225.288" y="635.415" fill="#D9D9D9" width="32.178" height="5.481"/>
		<rect x="1382.607" y="625.284" fill="#D9D9D9" width="24.02" height="5.481"/>
		<rect x="1382.607" y="635.415" fill="#D9D9D9" width="19.221" height="5.481"/>
		<rect x="907.309" y="873.912" fill="#B8B8B8" width="25.206" height="7.308"/>
		<rect x="1066.855" y="873.912" fill="#B8B8B8" width="25.207" height="7.308"/>
		<rect x="1225.288" y="873.912" fill="#B8B8B8" width="25.207" height="7.308"/>
		<rect x="1383.721" y="873.912" fill="#B8B8B8" width="25.207" height="7.308"/>
		<g>
			<linearGradient id="SVGID_12_" gradientUnits="userSpaceOnUse" x1="1452.3324" y1="752.3443" x2="805.7287" y2="752.3443">
				<stop  offset="0" style="stop-color:#40D5E6"/>
				<stop  offset="1" style="stop-color:#5577FF"/>
			</linearGradient>
			<path fill="url(#SVGID_12_)" d="M1327.703,798.982c-49.417,0.003-92.374-19.214-137.156-39.243
				c-55.288-24.727-112.456-50.296-188.625-43.295c-48.639,4.471-79.168,22.286-106.103,38.004
				c-24.389,14.232-47.447,26.747-78.675,27.816c-50.468,1.727-67.977-17.633-68.27-18.814v-12.424l0,0l0,0
				c0.064,0.215,11.082,21.944,68.216,21.686c28.137-0.127,48.903-12.246,72.948-26.277c27.943-16.307,59.615-34.788,110.804-39.494
				c79.223-7.282,137.792,18.912,194.432,44.244c59.267,26.507,115.822,51.364,187.332,29.798V791.2
				C1362.223,797.347,1345.92,798.981,1327.703,798.982z"/>
		</g>
		<g>
			<linearGradient id="SVGID_13_" gradientUnits="userSpaceOnUse" x1="748.8746" y1="736.9207" x2="1382.9418" y2="736.9207">
				<stop  offset="0" style="stop-color:#40D5E6"/>
				<stop  offset="1" style="stop-color:#5577FF"/>
			</linearGradient>
			<path fill="url(#SVGID_13_)" d="M1031.083,796.602c-36.477,0.003-65.406-22.063-93.729-43.661
				c-21.475-16.376-43.755-33.12-69.474-41.378c-78.491-25.205-118.647,20.819-119.006,21.224v-14
				c0.424-0.479,7.588-8.844,28.31-16.832c18.868-7.272,50.522-13.073,94.185,0.587c27.661,8.654,50.635,26.172,72.852,43.114
				c45.069,34.367,83.992,64.047,151.586,17.557c51.197-35.211,99.458-68.766,146.944-81.025
				c46.446-11.99,94.866-3.213,140.19,37.553l-0.334,12.715c-96.278-86.976-178.257-31.871-280.349,38.344
				C1075.216,789.399,1051.917,796.6,1031.083,796.602z"/>
		</g>
	</g>
</g>
</svg>
