<?xml version="1.0" encoding="utf-8"?>
<!-- Generator: Adobe Illustrator 17.0.0, SVG Export Plug-In . SVG Version: 6.00 Build 0)  -->
<!DOCTYPE svg PUBLIC "-//W3C//DTD SVG 1.1//EN" "http://www.w3.org/Graphics/SVG/1.1/DTD/svg11.dtd">
<svg version="1.1" id="Ñëîé_1" xmlns="http://www.w3.org/2000/svg" xmlns:xlink="http://www.w3.org/1999/xlink" x="0px" y="0px"
	 width="650px" height="400px" viewBox="0 0 650 400" enable-background="new 0 0 650 400" xml:space="preserve">
<radialGradient id="SVGID_1_" cx="455.3084" cy="378.2267" r="265.7549" gradientTransform="matrix(0.9733 -0.0355 0.0357 0.9782 8.2469 28.2566)" gradientUnits="userSpaceOnUse">
	<stop  offset="0" style="stop-color:#42E8E0"/>
	<stop  offset="1" style="stop-color:#180D5B"/>
</radialGradient>
<path fill="url(#SVGID_1_)" d="M119.039,200.608c2.591-35.075,35.396-51.787,51.561-59.362
	c39.479-18.501,118.9-28.428,239.885,22.23c88.453,37.037,110.497,86.408,112.503,123.196c1.575,28.885,0.085,60.383-44.41,89.682
	c-40.395,26.599-117.367,31.81-173.568-34.666C233.182,256.728,113.544,274.972,119.039,200.608z"/>
<radialGradient id="SVGID_2_" cx="387.1165" cy="143.1906" r="236.145" gradientUnits="userSpaceOnUse">
	<stop  offset="0" style="stop-color:#2B237C"/>
	<stop  offset="1" style="stop-color:#180D5B"/>
</radialGradient>
<path fill="url(#SVGID_2_)" d="M138.73,183.306c2.077-14.801,19.551-27.986,35.284-34.637
	c38.422-16.242,130.89-43.022,244.885,9.416c83.343,38.338,102.71,86.111,103.345,121.206c0.498,27.557-15.211,52.902-39.953,65.044
	c-41.533,20.383-124.843,45.287-176.297-19.958C240.233,240.988,127.347,264.425,138.73,183.306z"/>
<linearGradient id="SVGID_3_" gradientUnits="userSpaceOnUse" x1="159.2863" y1="246.5019" x2="505.845" y2="246.5019">
	<stop  offset="0" style="stop-color:#180D5B"/>
	<stop  offset="0.0961" style="stop-color:#1A1761"/>
	<stop  offset="0.2616" style="stop-color:#1F3372"/>
	<stop  offset="0.4768" style="stop-color:#28608E"/>
	<stop  offset="0.7332" style="stop-color:#349FB4"/>
	<stop  offset="1" style="stop-color:#42E8E0"/>
</linearGradient>
<path fill="url(#SVGID_3_)" d="M394.006,354.733c-27.347,0.001-55.59-9.444-78.249-38.176c-27.047-34.298-65.446-50.831-96.3-64.117
	c-36.999-15.932-66.223-28.515-59.093-62.769l0.647,0.134l-0.647-0.134c2.666-12.809,19.923-26.405,34.807-32.698
	c38.277-16.18,117.438-36.449,217.538,9.598c75.968,34.946,92.573,78.759,93.126,109.36c0.45,24.806-13.769,47.955-36.223,58.976
	C450.397,344.335,422.693,354.731,394.006,354.733z M290.025,139.594c-41.259,0-73.747,9.894-94.34,18.599
	c-14.778,6.246-31.545,19.83-34.026,31.747c-6.909,33.197,21.877,45.592,58.322,61.285c30.991,13.345,69.56,29.952,96.816,64.513
	c45.854,58.145,115.061,36.224,152.232,17.98c21.997-10.794,35.924-33.468,35.484-57.763c-0.545-30.221-17.01-73.522-92.356-108.181
	C366.405,146.727,325.054,139.594,290.025,139.594z"/>
<circle fill="#42E8E0" cx="230.195" cy="10.399" r="3.223"/>
<g>
	<g>
		<g>
			<g>
				<g>
					<path opacity="0.7" fill="#0F054C" d="M316.439,353.961l-0.168-18.116l189.536-109.73c-2.751-4.327-5.917-8.684-9.547-13.044
						c-0.001-0.001-0.002-0.002-0.003-0.003c-0.583-0.701-1.18-1.401-1.787-2.102c-0.06-0.069-0.122-0.139-0.182-0.209
						c-0.554-0.637-1.119-1.274-1.693-1.911c-0.09-0.099-0.18-0.199-0.27-0.298c-0.554-0.611-1.119-1.222-1.692-1.833
						c-0.105-0.112-0.21-0.224-0.315-0.335c-0.576-0.61-1.162-1.219-1.756-1.828c-0.101-0.103-0.201-0.207-0.303-0.311
						c-0.63-0.642-1.272-1.283-1.924-1.924c-0.066-0.065-0.13-0.129-0.196-0.194c-2.915-2.856-6.05-5.706-9.415-8.542
						c-0.148-0.124-0.299-0.248-0.447-0.372c-0.674-0.564-1.355-1.128-2.048-1.692c-0.225-0.183-0.454-0.365-0.68-0.548
						c-0.629-0.507-1.264-1.013-1.908-1.519c-0.265-0.208-0.533-0.416-0.801-0.624c-0.619-0.481-1.246-0.962-1.879-1.442
						c-0.292-0.221-0.584-0.442-0.879-0.662c-0.628-0.471-1.264-0.94-1.906-1.41c-0.303-0.222-0.605-0.443-0.911-0.664
						c-0.656-0.474-1.322-0.948-1.992-1.421c-0.301-0.213-0.6-0.425-0.904-0.638c-0.715-0.5-1.443-0.999-2.175-1.497
						c-0.266-0.181-0.528-0.363-0.796-0.544c-0.891-0.601-1.796-1.202-2.711-1.801c-0.116-0.076-0.227-0.152-0.343-0.227
						c-1.054-0.688-2.125-1.374-3.211-2.058c-0.118-0.075-0.241-0.149-0.36-0.223c-0.943-0.592-1.896-1.183-2.864-1.772
						c-0.338-0.206-0.685-0.411-1.026-0.617c-0.759-0.458-1.521-0.915-2.296-1.372c-0.415-0.245-0.838-0.488-1.257-0.732
						c-0.713-0.415-1.43-0.83-2.156-1.244c-0.461-0.263-0.928-0.525-1.394-0.787c-0.703-0.395-1.41-0.79-2.125-1.184
						c-0.488-0.269-0.98-0.538-1.474-0.806c-0.71-0.386-1.427-0.771-2.149-1.156c-0.507-0.27-1.015-0.54-1.528-0.81
						c-0.732-0.384-1.472-0.768-2.216-1.151c-0.515-0.265-1.028-0.531-1.549-0.795c-0.774-0.393-1.559-0.785-2.345-1.177
						c-0.5-0.249-0.997-0.499-1.502-0.748c-0.879-0.432-1.772-0.862-2.666-1.292c-0.428-0.205-0.849-0.412-1.28-0.617
						c-1.333-0.634-2.68-1.266-4.048-1.895c-1.782-0.82-3.558-1.617-5.329-2.398c-0.529-0.234-1.056-0.456-1.584-0.686
						c-1.253-0.546-2.505-1.089-3.752-1.615c-0.577-0.244-1.151-0.478-1.727-0.718c-1.207-0.502-2.413-1.001-3.614-1.486
						c-0.559-0.225-1.116-0.444-1.673-0.666c-1.228-0.488-2.453-0.971-3.675-1.441c-0.511-0.197-1.021-0.39-1.532-0.583
						c-1.286-0.488-2.57-0.968-3.85-1.437c-0.435-0.159-0.87-0.317-1.304-0.474c-1.378-0.498-2.753-0.986-4.124-1.462
						c-0.336-0.117-0.672-0.234-1.007-0.35c-1.506-0.518-3.007-1.022-4.504-1.514c-0.202-0.067-0.405-0.135-0.607-0.201
						c-1.698-0.554-3.39-1.093-5.075-1.614c-0.006-0.002-0.011-0.004-0.017-0.005l-206.86,119.76
						c13.144,5.74,28.02,11.229,43.505,17.715c0.408,0.171,0.814,0.34,1.222,0.512c0.849,0.358,1.701,0.722,2.553,1.087
						c0.554,0.237,1.108,0.473,1.663,0.713c0.793,0.342,1.587,0.689,2.383,1.038c0.622,0.273,1.245,0.547,1.868,0.823
						c0.761,0.337,1.522,0.678,2.285,1.021c0.66,0.298,1.322,0.599,1.983,0.901c0.739,0.337,1.479,0.676,2.219,1.02
						c0.702,0.326,1.405,0.658,2.108,0.99c0.705,0.333,1.41,0.664,2.116,1.003c0.78,0.375,1.561,0.759,2.341,1.142
						c0.635,0.311,1.27,0.618,1.905,0.934c1.369,0.682,2.738,1.376,4.107,2.084c0.512,0.264,1.023,0.54,1.535,0.808
						c0.908,0.477,1.816,0.953,2.724,1.441c0.602,0.324,1.203,0.658,1.805,0.988c0.817,0.448,1.634,0.896,2.45,1.355
						c0.628,0.353,1.254,0.713,1.881,1.072c0.791,0.454,1.581,0.91,2.37,1.373c0.632,0.372,1.262,0.748,1.893,1.126
						c0.79,0.474,1.579,0.954,2.367,1.439c0.62,0.382,1.239,0.765,1.857,1.154c0.807,0.507,1.611,1.024,2.415,1.543
						c0.592,0.382,1.185,0.764,1.776,1.153c0.857,0.565,1.71,1.145,2.563,1.725c0.533,0.363,1.069,0.72,1.601,1.089
						c1.05,0.727,2.094,1.474,3.136,2.226c0.329,0.237,0.66,0.465,0.988,0.705c1.358,0.992,2.709,2.005,4.053,3.038
						c0.407,0.313,0.809,0.639,1.214,0.956c0.946,0.739,1.89,1.481,2.828,2.243c0.51,0.414,1.016,0.841,1.524,1.262
						c0.827,0.686,1.654,1.375,2.474,2.078c0.539,0.463,1.074,0.934,1.611,1.405c0.786,0.689,1.569,1.385,2.348,2.092
						c0.542,0.492,1.081,0.988,1.619,1.489c0.771,0.716,1.538,1.444,2.302,2.178c0.528,0.508,1.056,1.016,1.58,1.533
						c0.78,0.769,1.553,1.553,2.325,2.341c0.493,0.503,0.987,1.002,1.476,1.514c0.839,0.878,1.67,1.777,2.498,2.68
						c0.408,0.445,0.821,0.88,1.227,1.331c1.227,1.365,2.444,2.752,3.645,4.172C308.733,346.091,312.55,350.172,316.439,353.961z"/>
					
						<linearGradient id="SVGID_4_" gradientUnits="userSpaceOnUse" x1="-2651.3508" y1="2829.7217" x2="-2143.2043" y2="2599.4065" gradientTransform="matrix(0.501 0.8654 0.8654 -0.501 -837.6976 3455.9939)">
						<stop  offset="0" style="stop-color:#5761D7"/>
						<stop  offset="0.1779" style="stop-color:#5C66D9"/>
						<stop  offset="0.3876" style="stop-color:#6A73DF"/>
						<stop  offset="0.6134" style="stop-color:#8289E8"/>
						<stop  offset="0.849" style="stop-color:#A3A7F5"/>
						<stop  offset="1" style="stop-color:#BCBEFF"/>
					</linearGradient>
					<path fill="url(#SVGID_4_)" d="M119.29,257.551l0.043,9.219l0.024-0.012c0.031,0.696,0.446,1.359,1.309,1.856l131.493,75.709
						c1.977,1.139,5.428,0.991,7.708-0.329l279.147-161.61c1.257-0.728,1.871-1.658,1.86-2.539l0.022,0.013l-0.041-9.208
						l-14.551,8.036L408.069,110.61c-1.977-1.138-5.428-0.991-7.708,0.329L133.066,265.687c0.685-0.751,1.179-1.307,1.182-1.348
						C134.256,264.204,119.29,257.551,119.29,257.551z"/>
					
						<linearGradient id="SVGID_5_" gradientUnits="userSpaceOnUse" x1="2973.1631" y1="2526.5537" x2="2973.1631" y2="2502.5515" gradientTransform="matrix(-0.501 -0.8654 0.8654 -0.501 -431.4857 4157.2295)">
						<stop  offset="0" style="stop-color:#C0BFF6"/>
						<stop  offset="0.2938" style="stop-color:#C5C4F7"/>
						<stop  offset="0.6399" style="stop-color:#D3D2F9"/>
						<stop  offset="1" style="stop-color:#E9E9FD"/>
					</linearGradient>
					<path fill="url(#SVGID_5_)" d="M258.868,344.465l-0.055-37.46l-6-3.455l0.059,41.096
						C254.58,345.29,256.948,345.215,258.868,344.465z"/>
					
						<linearGradient id="SVGID_6_" gradientUnits="userSpaceOnUse" x1="3511.1414" y1="4137.5405" x2="3511.1414" y2="3849.9202" gradientTransform="matrix(-0.8666 -0.499 0.9993 -0.5785 -618.1052 4276.5991)">
						<stop  offset="0" style="stop-color:#C0BFF6"/>
						<stop  offset="0.2938" style="stop-color:#C5C4F7"/>
						<stop  offset="0.6399" style="stop-color:#D3D2F9"/>
						<stop  offset="1" style="stop-color:#E9E9FD"/>
					</linearGradient>
					<path fill="url(#SVGID_6_)" d="M408.03,93.117l131.493,75.709c1.977,1.139,1.732,3.131-0.548,4.451l-279.147,161.61
						c-2.28,1.32-5.731,1.467-7.709,0.329l-131.493-75.709c-1.977-1.138-1.732-3.131,0.548-4.451l279.147-161.61
						C402.601,92.126,406.053,91.979,408.03,93.117z"/>
					<path fill="#FFFFFF" d="M252.119,335.216l-131.493-75.709c-1.176-0.677-1.548-1.657-1.191-2.617
						c0.149,0.553,0.558,1.07,1.263,1.476l131.493,75.709c1.977,1.138,5.429,0.991,7.709-0.329l279.147-161.61
						c0.924-0.535,1.495-1.18,1.739-1.835c0.268,1-0.343,2.126-1.811,2.976l-279.147,161.61
						C257.547,336.207,254.096,336.354,252.119,335.216z"/>
					<polygon fill="#24126A" points="386.163,101.643 524.816,181.474 273.986,326.69 135.332,246.859 					"/>
					<polygon fill="#24126A" points="386.163,101.643 524.816,181.474 273.986,326.69 135.332,246.859 					"/>
					
						<radialGradient id="SVGID_7_" cx="326.5222" cy="6811.8066" r="187.0188" gradientTransform="matrix(1 0 0 0.5545 0 -3559.6868)" gradientUnits="userSpaceOnUse">
						<stop  offset="0" style="stop-color:#42E8E0"/>
						<stop  offset="0.1205" style="stop-color:#39BDC0"/>
						<stop  offset="0.2841" style="stop-color:#2F899A"/>
						<stop  offset="0.4453" style="stop-color:#265F7B"/>
						<stop  offset="0.6004" style="stop-color:#1F3D62"/>
						<stop  offset="0.7478" style="stop-color:#1A2550"/>
						<stop  offset="0.8845" style="stop-color:#171746"/>
						<stop  offset="1" style="stop-color:#161242"/>
					</radialGradient>
					<polygon opacity="0.5" fill="url(#SVGID_7_)" points="386.163,101.643 524.816,181.474 273.986,326.69 135.332,246.859 					
						"/>
					<path fill="#5761D7" d="M187.222,284.397l25.125,14.416c0.732,0.422,1.153,0.897,0.693,1.476
						c-0.155,0.195-0.375,0.381-0.66,0.545l0,0c-1.129,0.654-2.837,0.726-3.816,0.163l-25.347-14.594
						c-0.076-0.044-0.189-0.062-0.209-0.139c-0.207-0.802-0.14-0.994,0.901-1.597l0.349-0.072
						C185.387,283.942,186.243,283.834,187.222,284.397z"/>
					<path fill="#BCBEFF" d="M183.015,286.255c0.155-0.194,0.374-0.379,0.657-0.542c1.129-0.653,2.837-0.726,3.816-0.163
						l25.347,14.594c0.079,0.046,0.139,0.098,0.204,0.148c0.463-0.579,0.347-1.239-0.386-1.661l-25.347-14.594
						c-0.979-0.564-2.687-0.491-3.816,0.163C182.452,284.801,182.277,285.679,183.015,286.255z"/>
				</g>
			</g>
		</g>
		<g opacity="0.11">
			<defs>
				<polygon id="SVGID_8_" opacity="0.11" points="386.163,101.643 524.816,181.474 273.986,326.69 135.332,246.859 				"/>
			</defs>
			<clipPath id="SVGID_9_">
				<use xlink:href="#SVGID_8_"  overflow="visible"/>
			</clipPath>
		</g>
	</g>
	<g>
		<g>
			<g>
				<path opacity="0.2" fill="#42E8E0" d="M220.146,237.408l-9.092-5.249c-1.442-0.833-1.442-2.182,0-3.014l0,0
					c1.442-0.833,3.779-0.833,5.221,0l9.092,5.249c1.442,0.833,1.442,2.182,0,3.015l0,0
					C223.926,238.24,221.588,238.24,220.146,237.408z"/>
				<path opacity="0.6" fill="#42E8E0" d="M238.961,248.27l-9.092-5.249c-1.442-0.832-1.442-2.182,0-3.014l0,0
					c1.442-0.833,3.779-0.833,5.221,0l9.092,5.249c1.442,0.833,1.442,2.182,0,3.015l0,0
					C242.74,249.103,240.403,249.103,238.961,248.27z"/>
				<path fill="#42E8E0" d="M257.776,259.133l-9.092-5.249c-1.442-0.832-1.442-2.182,0-3.014l0,0c1.442-0.833,3.779-0.832,5.221,0
					l9.092,5.249c1.442,0.832,1.442,2.182,0,3.015l0,0C261.555,259.966,259.218,259.966,257.776,259.133z"/>
				<path opacity="0.6" fill="#42E8E0" d="M276.591,269.996l-9.092-5.25c-1.442-0.832-1.442-2.182,0-3.014l0,0
					c1.442-0.832,3.779-0.832,5.221,0l9.092,5.249c1.442,0.832,1.442,2.182,0,3.015l0,0
					C280.37,270.828,278.033,270.828,276.591,269.996z"/>
				<path opacity="0.2" fill="#42E8E0" d="M295.406,280.859l-9.092-5.25c-1.442-0.832-1.442-2.182,0-3.014l0,0
					c1.442-0.832,3.779-0.832,5.221,0l9.092,5.25c1.442,0.832,1.442,2.182,0,3.014l0,0
					C299.185,281.691,296.847,281.691,295.406,280.859z"/>
			</g>
		</g>
	</g>
	<g>
		<g>
			<path opacity="0.2" fill="#42E8E0" d="M380.34,245.263c-29.934,17.283-78.468,17.282-108.403-0.001
				c-29.935-17.283-29.936-45.304-0.002-62.586s78.468-17.282,108.403,0.001C410.274,199.96,410.275,227.981,380.34,245.263z"/>
			<path fill="#42E8E0" d="M356.888,231.723c-16.982,9.805-44.515,9.804-61.498-0.001c-16.982-9.805-16.983-25.701-0.001-35.506
				c16.982-9.805,44.515-9.804,61.498,0.001C373.869,206.022,373.87,221.918,356.888,231.723z"/>
		</g>
		<g opacity="0.3">
			<path fill="#42E8E0" d="M424.682,57.389c0.953,5.387,4.949,18.929,21.437,28.296c23.47,10.838,39.728,25.086,45.175,40.994
				c0.385,1.044,0.918,2.432,1.416,3.426c0.585-0.964,0.585-0.964,0.588-3.296V100.1c-0.011-15.682-0.89-19.14-2.004-23.517
				c-5.447-15.908-21.705-30.156-45.175-40.994C427.395,29.545,422.863,47.1,424.682,57.389L424.682,57.389z"/>
			<path fill="#42E8E0" d="M252.573,25.342c24.849-7.208,54.245-11.267,85.62-11.009c4.14,0.034,8.24,0.142,12.294,0.323
				c27.55,2.516,37.348,31.611,20.738,44.341c-7.624,5.843-16.814,5.781-20.738,5.755c-4.054-0.18-8.154-0.289-12.294-0.323
				c-31.375-0.257-60.771,3.801-85.62,11.01c-25.09,6.112-26.572-19.385-17.798-34.982C237.726,35.21,243.209,28.33,252.573,25.342
				L252.573,25.342z"/>
			<path fill="#42E8E0" d="M177.578,138.553c0.684-7.94,1.225-14.212,9.309-25.158c17.042-25.148,13.601-54.375,4.187-53.025
				c-1.517,0.218-3.095,1.853-4.187,2.93c-5.722,7.456-8.973,15.473-9.284,23.838c-0.016,0.441-0.025,0.88-0.025,1.319V138.553
				L177.578,138.553z"/>
		</g>
		<g>
			
				<rect x="363.957" y="166.049" transform="matrix(0.3752 0.927 -0.927 0.3752 399.6506 -254.9486)" fill="#42E8E0" width="49.965" height="5.855"/>
			<g>
				<g>
					<g>
						
							<radialGradient id="SVGID_10_" cx="-74.2932" cy="-267.5562" r="104.9787" gradientTransform="matrix(0.981 0.1942 -0.1942 0.981 387.0909 341.9411)" gradientUnits="userSpaceOnUse">
							<stop  offset="0" style="stop-color:#C0BFF6"/>
							<stop  offset="1" style="stop-color:#393091"/>
						</radialGradient>
						<circle fill="url(#SVGID_10_)" cx="279.182" cy="123.145" r="18.187"/>
					</g>
				</g>
				<g>
					<g>
						
							<radialGradient id="SVGID_11_" cx="938.8982" cy="247.5153" r="103.7108" gradientTransform="matrix(0.7781 0 0 1.0592 -376.7129 -121.7001)" gradientUnits="userSpaceOnUse">
							<stop  offset="0" style="stop-color:#C0BFF6"/>
							<stop  offset="1" style="stop-color:#393091"/>
						</radialGradient>
						<path fill="url(#SVGID_11_)" d="M373.095,150.047c0,35.303-21.023,63.922-46.957,63.922
							c-25.933,0-46.957-28.619-46.957-63.922s21.023-45.882,46.957-45.882C352.072,104.165,373.095,114.744,373.095,150.047z"/>
					</g>
				</g>
				<g>
					<g>
						
							<linearGradient id="SVGID_12_" gradientUnits="userSpaceOnUse" x1="903.2916" y1="316.9087" x2="903.2916" y2="213.241" gradientTransform="matrix(0.7781 0 0 1.0592 -376.7129 -121.7001)">
							<stop  offset="0" style="stop-color:#42E8E0"/>
							<stop  offset="0.0047" style="stop-color:#42E6DF"/>
							<stop  offset="0.1358" style="stop-color:#40B6CB"/>
							<stop  offset="0.2707" style="stop-color:#3E8DB9"/>
							<stop  offset="0.4074" style="stop-color:#3C6BAA"/>
							<stop  offset="0.5467" style="stop-color:#3B519F"/>
							<stop  offset="0.6893" style="stop-color:#3A3F97"/>
							<stop  offset="0.8375" style="stop-color:#393493"/>
							<stop  offset="1" style="stop-color:#393091"/>
						</linearGradient>
						<path fill="url(#SVGID_12_)" d="M373.095,150.047c0,35.303-21.023,63.922-46.957,63.922
							c-25.933,0-46.957-28.619-46.957-63.922s21.023-45.882,46.957-45.882C352.072,104.165,373.095,114.744,373.095,150.047z"/>
					</g>
				</g>
				<path fill="#393091" d="M348.799,136.228c-12.515,7.226-32.806,7.225-45.321,0c-12.515-7.226-12.516-18.941-0.001-26.166
					c12.515-7.226,32.806-7.225,45.321,0C361.314,117.288,361.314,129.003,348.799,136.228z"/>
				<path fill="#453C9E" d="M303.477,114.991c12.515-7.226,32.806-7.225,45.321,0c5.169,2.985,8.197,6.735,9.097,10.619
					c1.278-5.519-1.75-11.307-9.097-15.548c-12.515-7.226-32.806-7.226-45.321,0c-7.346,4.241-10.373,10.028-9.096,15.547
					C295.28,121.725,298.308,117.975,303.477,114.991z"/>
				<radialGradient id="SVGID_13_" cx="278.8591" cy="4.6447" r="56.8276" gradientUnits="userSpaceOnUse">
					<stop  offset="0" style="stop-color:#C0BFF6"/>
					<stop  offset="1" style="stop-color:#393091"/>
				</radialGradient>
				<path fill="url(#SVGID_13_)" d="M289.147,79.178l5.797-9.989c3.41-3.538,6.136-8.235,7.52-12.957l5.871-10.116l-8.444-4.848
					c-0.27-0.183-0.552-0.347-0.848-0.487l-0.005-0.003l0,0c-2.401-1.137-5.592-0.833-9.094,1.19
					c-7.465,4.31-13.517,14.791-13.517,23.411c0,4.308,1.511,7.335,3.955,8.748l0,0l0.004,0.002l0.001,0L289.147,79.178z"/>
				<path fill="#BCBEFF" d="M312.158,54.784c0,8.62-6.052,19.101-13.517,23.411c-7.465,4.31-13.517,0.816-13.517-7.803
					s6.052-19.101,13.517-23.411C306.106,42.67,312.158,46.164,312.158,54.784z"/>
				<g>
					<g>
						<radialGradient id="SVGID_14_" cx="357.8882" cy="71.888" r="80.9448" gradientUnits="userSpaceOnUse">
							<stop  offset="0" style="stop-color:#C0BFF6"/>
							<stop  offset="1" style="stop-color:#393091"/>
						</radialGradient>
						<circle fill="url(#SVGID_14_)" cx="328.001" cy="78.983" r="47.891"/>
					</g>
				</g>
				<g>
					<g>
						<linearGradient id="SVGID_15_" gradientUnits="userSpaceOnUse" x1="321.3347" y1="126.4138" x2="334.6666" y2="31.5521">
							<stop  offset="0" style="stop-color:#42E8E0"/>
							<stop  offset="0.0047" style="stop-color:#42E6DF"/>
							<stop  offset="0.1358" style="stop-color:#40B6CB"/>
							<stop  offset="0.2707" style="stop-color:#3E8DB9"/>
							<stop  offset="0.4074" style="stop-color:#3C6BAA"/>
							<stop  offset="0.5467" style="stop-color:#3B519F"/>
							<stop  offset="0.6893" style="stop-color:#3A3F97"/>
							<stop  offset="0.8375" style="stop-color:#393493"/>
							<stop  offset="1" style="stop-color:#393091"/>
						</linearGradient>
						<circle fill="url(#SVGID_15_)" cx="328.001" cy="78.983" r="47.891"/>
					</g>
				</g>
				<radialGradient id="SVGID_16_" cx="357.2403" cy="71.0269" r="38.4412" gradientUnits="userSpaceOnUse">
					<stop  offset="0" style="stop-color:#C0BFF6"/>
					<stop  offset="1" style="stop-color:#393091"/>
				</radialGradient>
				<path fill="url(#SVGID_16_)" d="M354.801,111.371l5.797-9.989c3.41-3.538,6.136-8.235,7.52-12.957l5.871-10.116l-8.444-4.848
					c-0.27-0.183-0.552-0.347-0.848-0.487l-0.005-0.003l0,0c-2.401-1.137-5.592-0.832-9.094,1.19
					c-7.465,4.31-13.517,14.791-13.517,23.411c0,4.307,1.511,7.335,3.955,8.748l0,0l0.004,0.002l0.001,0L354.801,111.371z"/>
				<linearGradient id="SVGID_17_" gradientUnits="userSpaceOnUse" x1="349.5007" y1="109.442" x2="363.0089" y2="72.3285">
					<stop  offset="0" style="stop-color:#42E8E0"/>
					<stop  offset="0.0047" style="stop-color:#42E6DF"/>
					<stop  offset="0.1358" style="stop-color:#40B6CB"/>
					<stop  offset="0.2707" style="stop-color:#3E8DB9"/>
					<stop  offset="0.4074" style="stop-color:#3C6BAA"/>
					<stop  offset="0.5467" style="stop-color:#3B519F"/>
					<stop  offset="0.6893" style="stop-color:#3A3F97"/>
					<stop  offset="0.8375" style="stop-color:#393493"/>
					<stop  offset="1" style="stop-color:#393091"/>
				</linearGradient>
				<path fill="url(#SVGID_17_)" d="M354.801,111.371l5.797-9.989c3.41-3.538,6.136-8.235,7.52-12.957l5.871-10.116l-8.444-4.848
					c-0.27-0.183-0.552-0.347-0.848-0.487l-0.005-0.003l0,0c-2.401-1.137-5.592-0.832-9.094,1.19
					c-7.465,4.31-13.517,14.791-13.517,23.411c0,4.307,1.511,7.335,3.955,8.748l0,0l0.004,0.002l0.001,0L354.801,111.371z"/>
				<path fill="#BCBEFF" d="M377.812,86.977c0,8.62-6.052,19.101-13.517,23.411c-7.465,4.31-13.517,0.816-13.517-7.803
					c0-8.62,6.052-19.101,13.517-23.411C371.761,74.864,377.812,78.357,377.812,86.977z"/>
				<path fill="#FFFFFF" d="M351.4,102.696c0-8.62,6.052-19.101,13.517-23.411c2.587-1.493,5.003-2.048,7.057-1.779
					c-2.181-0.483-4.825,0.022-7.678,1.668c-7.465,4.31-13.517,14.792-13.517,23.411c0,5.633,2.585,9.075,6.46,9.583
					C353.712,111.387,351.4,108.022,351.4,102.696z"/>
				<path fill="#393091" d="M373.957,89.203c0,6.161-4.326,13.653-9.662,16.734s-9.662,0.583-9.662-5.578s4.326-13.653,9.662-16.734
					C369.632,80.544,373.957,83.041,373.957,89.203z"/>
				<path fill="#453C9E" d="M369.846,82.448c1,1.18,1.583,2.944,1.583,5.203c0,6.161-4.326,13.653-9.662,16.734
					c-2.067,1.193-3.98,1.546-5.551,1.177c1.727,2.037,4.699,2.326,8.078,0.375c5.336-3.081,9.662-10.573,9.662-16.734
					C373.957,85.427,372.332,83.031,369.846,82.448z"/>
				<g>
					<path fill="#393091" d="M313.059,101.666c-1.223,9.418-8.331,12.376-15.876,6.608c-7.545-5.769-12.669-18.08-11.446-27.498
						c1.223-9.418,8.331-12.376,15.876-6.607C309.159,79.937,314.283,92.248,313.059,101.666z"/>
					<path fill="#42E8E0" d="M306.829,93.512c-0.445,3.423-3.028,4.498-5.77,2.401c-2.742-2.096-4.604-6.571-4.16-9.993
						c0.445-3.423,3.028-4.498,5.77-2.401C305.411,85.615,307.274,90.089,306.829,93.512z"/>
					<path fill="#453C9E" d="M300.806,106.901c-7.545-5.769-12.669-18.08-11.445-27.498c0.499-3.839,1.976-6.604,4.062-8.143
						c-3.944,0.371-6.931,3.716-7.684,9.516c-1.223,9.418,3.901,21.729,11.446,27.498c4.469,3.417,8.784,3.771,11.814,1.535
						C306.537,110.041,303.705,109.117,300.806,106.901z"/>
					<path fill="#42E8E0" d="M297.833,107.967c-7.545-5.769-12.669-18.08-11.446-27.498c0.566-4.36,2.395-7.332,4.944-8.697
						c-2.886,1.187-4.98,4.281-5.593,9.003c-1.223,9.418,3.901,21.729,11.446,27.498c4.05,3.097,7.971,3.67,10.927,2.087
						C305.242,111.541,301.593,110.842,297.833,107.967z"/>
				</g>
				<g>
					<g>
						
							<radialGradient id="SVGID_18_" cx="-37.1997" cy="-204.6565" r="37.9417" gradientTransform="matrix(0.981 0.1942 -0.1942 0.981 387.0909 341.9411)" gradientUnits="userSpaceOnUse">
							<stop  offset="0" style="stop-color:#C0BFF6"/>
							<stop  offset="1" style="stop-color:#393091"/>
						</radialGradient>
						<circle fill="url(#SVGID_18_)" cx="379.566" cy="145.818" r="18.187"/>
					</g>
				</g>
				<g>
					<g>
						
							<linearGradient id="SVGID_19_" gradientUnits="userSpaceOnUse" x1="-57.8219" y1="-177.5774" x2="-33.1088" y2="-204.2645" gradientTransform="matrix(0.981 0.1942 -0.1942 0.981 387.0909 341.9411)">
							<stop  offset="0" style="stop-color:#42E8E0"/>
							<stop  offset="0.0047" style="stop-color:#42E6DF"/>
							<stop  offset="0.1358" style="stop-color:#40B6CB"/>
							<stop  offset="0.2707" style="stop-color:#3E8DB9"/>
							<stop  offset="0.4074" style="stop-color:#3C6BAA"/>
							<stop  offset="0.5467" style="stop-color:#3B519F"/>
							<stop  offset="0.6893" style="stop-color:#3A3F97"/>
							<stop  offset="0.8375" style="stop-color:#393493"/>
							<stop  offset="1" style="stop-color:#393091"/>
						</linearGradient>
						<circle fill="url(#SVGID_19_)" cx="379.566" cy="145.818" r="18.187"/>
					</g>
				</g>
			</g>
			
				<radialGradient id="SVGID_20_" cx="441.9183" cy="-1864.5421" r="35.1503" fx="441.9713" fy="-1862.255" gradientTransform="matrix(0.9112 0.1087 -0.1791 1.501 -323.3076 2942.3418)" gradientUnits="userSpaceOnUse">
				<stop  offset="0" style="stop-color:#C0BFF6"/>
				<stop  offset="1" style="stop-color:#393091"/>
			</radialGradient>
			<path fill="url(#SVGID_20_)" d="M408.572,206.075c-1.031,8.642-8.664,25.01-15.571,24.186
				c-6.908-0.824-10.475-18.529-9.443-27.171c1.031-8.642,7.467-14.98,14.375-14.155
				C404.84,189.759,409.604,197.433,408.572,206.075z"/>
			
				<linearGradient id="SVGID_21_" gradientUnits="userSpaceOnUse" x1="239.3568" y1="285.5604" x2="266.8096" y2="285.5604" gradientTransform="matrix(0.9112 0.1087 -0.136 1.1399 203.6932 -143.4221)">
				<stop  offset="0" style="stop-color:#42E8E0"/>
				<stop  offset="0.0047" style="stop-color:#42E6DF"/>
				<stop  offset="0.1358" style="stop-color:#40B6CB"/>
				<stop  offset="0.2707" style="stop-color:#3E8DB9"/>
				<stop  offset="0.4074" style="stop-color:#3C6BAA"/>
				<stop  offset="0.5467" style="stop-color:#3B519F"/>
				<stop  offset="0.6893" style="stop-color:#3A3F97"/>
				<stop  offset="0.8375" style="stop-color:#393493"/>
				<stop  offset="1" style="stop-color:#393091"/>
			</linearGradient>
			<path fill="url(#SVGID_21_)" d="M408.572,206.075c-1.031,8.642-8.664,25.01-15.571,24.186
				c-6.908-0.824-10.475-18.529-9.443-27.171c1.031-8.642,7.467-14.98,14.375-14.155
				C404.84,189.759,409.604,197.433,408.572,206.075z"/>
			<path fill="#42E8E0" d="M231.057,150.475c-1.054,0-2.073-0.572-2.596-1.571c-0.749-1.432-0.196-3.201,1.237-3.95l37.551-19.65
				c1.429-0.748,3.199-0.195,3.95,1.236c0.749,1.432,0.196,3.201-1.237,3.95l-37.551,19.65
				C231.979,150.366,231.515,150.475,231.057,150.475z"/>
			
				<radialGradient id="SVGID_22_" cx="-2230.8032" cy="-2888.0308" r="35.1503" fx="-2230.7502" fy="-2885.7437" gradientTransform="matrix(0.4411 0.8047 -1.3256 0.7266 -2590.1775 4033.3896)" gradientUnits="userSpaceOnUse">
				<stop  offset="0" style="stop-color:#C0BFF6"/>
				<stop  offset="1" style="stop-color:#393091"/>
			</radialGradient>
			<path fill="url(#SVGID_22_)" d="M231.719,161.383c-7.632,4.184-25.388,7.486-28.732,1.385c-3.344-6.1,8.99-19.293,16.622-23.476
				c7.632-4.184,16.53-2.63,19.873,3.471C242.826,148.863,239.35,157.199,231.719,161.383z"/>
			
				<linearGradient id="SVGID_23_" gradientUnits="userSpaceOnUse" x1="-2725.6221" y1="-203.425" x2="-2742.0767" y2="-181.4494" gradientTransform="matrix(0.4411 0.8047 -1.0067 0.5518 1236.6952 2457.8103)">
				<stop  offset="0" style="stop-color:#42E8E0"/>
				<stop  offset="0.0047" style="stop-color:#42E6DF"/>
				<stop  offset="0.1358" style="stop-color:#40B6CB"/>
				<stop  offset="0.2707" style="stop-color:#3E8DB9"/>
				<stop  offset="0.4074" style="stop-color:#3C6BAA"/>
				<stop  offset="0.5467" style="stop-color:#3B519F"/>
				<stop  offset="0.6893" style="stop-color:#3A3F97"/>
				<stop  offset="0.8375" style="stop-color:#393493"/>
				<stop  offset="1" style="stop-color:#393091"/>
			</linearGradient>
			<path fill="url(#SVGID_23_)" d="M231.719,161.383c-7.632,4.184-25.388,7.486-28.732,1.385c-3.344-6.1,8.99-19.293,16.622-23.476
				c7.632-4.184,16.53-2.63,19.873,3.471C242.826,148.863,239.35,157.199,231.719,161.383z"/>
		</g>
		<g opacity="0.5">
			<g>
				<path fill="#42E8E0" d="M195.928,153.238c-1.144,9.196-5.912,14.668-10.925,7.817c-6.428-8.783-7.052-17.371-7.425-22.502
					V88.458c0,7.837,2.601,15.399,7.425,22.502C195.599,128.486,196.856,145.782,195.928,153.238L195.928,153.238z"/>
				<path fill="#42E8E0" d="M344.654,162.42c-3.954,0.107-7.946,0.144-11.971,0.112c-31.497-0.258-60.678-4.83-85.032-12.495
					c-24.328-6.499-25.798,18.957-17.307,34.679c6.046,11.195,14.227,14.262,17.307,15.416
					c24.355,7.665,53.536,12.237,85.032,12.495c4.025,0.033,8.017-0.005,11.971-0.112c28.584-2.107,36.071-29.56,22.711-42.374
					C363.637,166.564,356.67,162.322,344.654,162.42L344.654,162.42z"/>
				<path fill="#42E8E0" d="M493.273,122.478c-0.138,21.663-1.41,25.606-3.02,30.599c-6.695,15.797-24.06,29.752-48.366,40.176
					c-21.28,6.278-27.157-15.833-18.503-32.228c5.888-11.154,15.053-16.031,18.503-17.867
					c24.307-10.424,41.671-24.379,48.366-40.176c0.491-1.048,1.183-2.438,1.839-3.392c0.163-0.021,0.381-0.05,0.545-0.071
					c0.412,1.158,0.582,1.637,0.636,7.551V122.478L493.273,122.478z"/>
			</g>
		</g>
	</g>
	<circle fill="#42E8E0" cx="473.701" cy="292.705" r="5.278"/>
	<circle opacity="0.5" fill="#42E8E0" cx="392.761" cy="66.41" r="2.43"/>
	<circle opacity="0.5" fill="#42E8E0" cx="215.143" cy="188.863" r="2.43"/>
	<circle opacity="0.8" fill="#42E8E0" cx="263.981" cy="92.351" r="1.268"/>
</g>
</svg>
