<?xml version="1.0" encoding="UTF-8"?>
<svg width="451px" height="398px" viewBox="0 0 451 398" version="1.1" xmlns="http://www.w3.org/2000/svg" xmlns:xlink="http://www.w3.org/1999/xlink">
    <!-- Generator: sketchtool 55.2 (78181) - https://sketchapp.com -->
    <title>A816E036-DDFD-4F5F-9C2A-F01914A0140F</title>
    <desc>Created with sketchtool.</desc>
    <defs>
        <polygon id="path-1" points="0 397.359736 450.760396 397.359736 450.760396 0.116171617 0 0.116171617"></polygon>
        <path d="M14.0726073,0.299669967 C14.0726073,0.299669967 10.4356436,16.3419142 8.91749175,21.6079208 L8.91749175,21.6079208 C7.1960396,27.5841584 0.999339934,45.1854785 0.999339934,45.1854785 L0.999339934,45.1854785 C0.545214521,46.7471947 1.71617162,48.3115512 3.34521452,48.3115512 L3.34521452,48.3115512 L98.4567657,48.3115512 C100.312871,48.3115512 101.650165,46.5280528 101.131353,44.7458746 L101.131353,44.7458746 L88.1861386,0.299669967 L14.0726073,0.299669967 Z" id="path-3"></path>
        <path d="M5.12211221,1.12871287 C2.68646865,1.12871287 0.693069307,3.12079208 0.693069307,5.55643564 L0.693069307,5.55643564 C0.693069307,7.99207921 2.68646865,9.98415842 5.12211221,9.98415842 L5.12211221,9.98415842 L122.117492,9.98415842 C124.553135,9.98415842 126.545215,7.99207921 126.545215,5.55643564 L126.545215,5.55643564 C126.545215,3.12079208 124.553135,1.12871287 122.117492,1.12871287 L122.117492,1.12871287 L5.12211221,1.12871287 Z" id="path-5"></path>
        <path d="M5.12211221,1.12871287 C2.68646865,1.12871287 0.693069307,3.12079208 0.693069307,5.55643564 L0.693069307,5.55643564 C0.693069307,7.99207921 2.68646865,9.98415842 5.12211221,9.98415842 L5.12211221,9.98415842 L122.117492,9.98415842 C124.553135,9.98415842 126.545215,7.99207921 126.545215,5.55643564 L126.545215,5.55643564 C126.545215,3.12079208 124.553135,1.12871287 122.117492,1.12871287 L122.117492,1.12871287 L5.12211221,1.12871287 Z" id="path-7"></path>
        <linearGradient x1="0%" y1="50%" x2="100%" y2="50%" id="linearGradient-9">
            <stop stop-color="#CFD9E0" offset="0%"></stop>
            <stop stop-color="#A5B7C6" offset="100%"></stop>
        </linearGradient>
        <polygon id="path-10" points="0.808316832 0.345810266 179.26486 0.345810266 179.26486 68.6468647 0.808316832 68.6468647"></polygon>
    </defs>
    <g id="Page-1" stroke="none" stroke-width="1" fill="none" fill-rule="evenodd">
        <g id="Icons" transform="translate(-809.000000, -1687.000000)">
            <g id="4th-block" transform="translate(0.000000, 1570.000000)">
                <g id="Group-2" transform="translate(142.000000, 64.000000)">
                    <g id="Group-256" transform="translate(667.000000, 53.000000)">
                        <g id="Group-19" transform="translate(0.000000, 0.203960)">
                            <path d="M107.77769,317.001584 C192.953927,326.196304 278.856238,328.66099 364.417954,324.365281 C367.447657,324.213465 371.059538,323.682772 372.341386,320.932937 C373.738086,318.597624 367.718284,317.499274 369.495182,315.26033 C371.272079,313.021386 374.509043,312.744158 377.365809,312.649109 C393.706403,312.102574 410.045677,311.55736 426.386271,311.012145 C431.571749,310.839208 445.590231,308.819406 440.630495,306.200264 C433.518944,301.892673 426.406073,297.585083 419.295842,293.276172 C414.928845,290.630627 410.510363,287.96264 405.649637,286.406205 C398.57505,284.142178 390.98165,284.35736 383.557228,284.581782 C297.265479,287.187723 210.918284,288.000924 124.589571,287.022706 C114.506403,286.907855 104.007393,286.85637 94.9116832,291.211485 C92.8337954,292.206865 90.7176238,293.55736 90.680123,296.374521 C90.6542574,298.241188 91.6034323,299.974521 93.0661386,301.132277 C96.0007921,303.451749 99.819934,303.409505 103.412013,303.315776 L107.77769,317.001584 Z" id="Fill-1" fill="#E1EAEE"></path>
                            <path d="M7.86666667,273.050429 L81.980198,231.100594 L85.2422442,229.236568 C85.2422442,229.236568 88.5056106,228.303234 89.9049505,231.100594 C91.3016502,233.896634 91.3016502,236.226667 89.9049505,237.16 C88.5056106,238.092013 13.9273927,280.975182 13.9273927,280.975182 C13.9273927,280.975182 2.27458746,283.771221 1.80726073,282.839208 C1.34125413,281.907195 7.86666667,273.050429 7.86666667,273.050429" id="Fill-3" fill="#E1EAEE"></path>
                            <path d="M99.4236304,253.315512 C99.4236304,260.227723 105.079076,265.884488 111.991287,265.884488 L415.468515,265.884488 C422.382046,265.884488 428.037492,260.227723 428.037492,253.315512 L427.92,221.839604 L99.4236304,225.79736 L99.4236304,253.315512 Z" id="Fill-5" fill="#E3E9ED"></path>
                            <path d="M415.353003,35.6213861 C415.353003,35.6213861 374.786667,34.8451485 346.692937,35.1025743 C298.877756,35.5408581 111.874455,35.6213861 111.874455,35.6213861 C104.962244,35.6213861 99.0427723,38.6458086 99.3081188,48.1890429 C101.045413,110.86495 99.4256106,166.929637 99.4242904,225.798284 C99.4242904,226.092673 217.367525,224.887393 276.384026,225.822046 C326.999208,226.623366 377.408449,225.798284 427.922308,225.798284 C427.922308,225.798284 427.178746,93.2015842 427.922308,48.1890429 C428.034191,41.2768317 422.265215,35.6213861 415.353003,35.6213861" id="Fill-7" fill="#294757"></path>
                            <mask id="mask-2" fill="white">
                                <use xlink:href="#path-1"></use>
                            </mask>
                            <g id="Clip-10"></g>
                            <polygon id="Fill-9" fill="#4E7E97" mask="url(#mask-2)" points="119.351815 208.550495 413.005941 208.550495 413.005941 54.7313531 119.351815 54.7313531"></polygon>
                            <path d="M145.802376,148.924488 C145.802376,154.385875 150.271023,158.853201 155.731089,158.853201 L287.929109,158.853201 C293.390495,158.853201 297.859142,154.385875 297.859142,148.924488 L297.859142,35.6215182 L145.802376,35.6215182 L145.802376,148.924488 Z" id="Fill-11" fill-opacity="0.5" fill="#294757" mask="url(#mask-2)"></path>
                            <path d="M360.851089,149.56264 L334.643828,149.56264 C319.178482,149.56264 306.523696,136.907855 306.523696,121.441188 L306.523696,93.5811221 C306.523696,78.1144554 319.178482,65.45967 334.643828,65.45967 L360.851089,65.45967 C376.319076,65.45967 388.973861,78.1144554 388.973861,93.5811221 L388.973861,121.441188 C388.973861,136.907855 376.319076,149.56264 360.851089,149.56264" id="Fill-12" fill-opacity="0.5" fill="#294757" mask="url(#mask-2)"></path>
                            <path d="M263.729901,208.550891 C263.729901,208.550891 401.226931,93.060462 413.005149,62.7726733 L413.005149,162.095446 L413.005149,208.550891 L263.729901,208.550891 Z" id="Fill-13" fill-opacity="0.5" fill="#294757" mask="url(#mask-2)"></path>
                            <path d="M265.841584,152.173333 L170.027723,152.173333 C154.561056,152.173333 141.906271,139.518548 141.906271,124.050561 L141.906271,28.2366997 C141.906271,12.770033 154.561056,0.115247525 170.027723,0.115247525 L265.841584,0.115247525 C281.308251,0.115247525 293.963036,12.770033 293.963036,28.2366997 L293.963036,124.050561 C293.963036,139.518548 281.308251,152.173333 265.841584,152.173333" id="Fill-14" fill="#D6FFE1" mask="url(#mask-2)"></path>
                            <path d="M427.92,167.477228 L300.483696,167.477228 C295.02231,167.477228 290.553663,171.945875 290.553663,177.405941 L290.553663,203.70297 C290.553663,209.164356 295.02231,213.633003 300.483696,213.633003 L427.92,213.633003 L427.92,167.477228 Z" id="Fill-15" fill-opacity="0.5" fill="#294757" mask="url(#mask-2)"></path>
                            <path d="M370.306007,144.809373 L331.016238,144.809373 C320.030099,144.809373 311.04132,135.820594 311.04132,124.834455 L311.04132,82.7473267 C311.04132,71.7611881 320.030099,62.7724092 331.016238,62.7724092 L370.306007,62.7724092 C381.292145,62.7724092 390.282244,71.7611881 390.282244,82.7473267 L390.282244,124.834455 C390.282244,135.820594 381.292145,144.809373 370.306007,144.809373" id="Fill-16" fill="#FFFFFF" mask="url(#mask-2)"></path>
                            <path d="M436.272607,215.076832 L311.429043,215.076832 C303.460726,215.076832 296.940594,208.55802 296.940594,200.589703 L296.940594,188.080132 C296.940594,180.111815 303.460726,173.591683 311.429043,173.591683 L436.272607,173.591683 C444.240924,173.591683 450.761056,180.111815 450.761056,188.080132 L450.761056,200.589703 C450.761056,208.55802 444.240924,215.076832 436.272607,215.076832" id="Fill-17" fill="#E3E9ED" mask="url(#mask-2)"></path>
                            <path d="M310.941386,313.894653 L215.827195,313.894653 C214.200792,313.894653 213.028515,312.331617 213.48396,310.769901 C213.48396,310.769901 219.128845,295.043168 220.714323,289.651749 C222.433135,283.807525 226.557228,265.884092 226.557228,265.884092 L300.670759,265.884092 L313.614653,310.328977 C314.134785,312.111155 312.797492,313.894653 310.941386,313.894653" id="Fill-18" fill="#E1EAEE" mask="url(#mask-2)"></path>
                        </g>
                        <g id="Group-22" transform="translate(212.541254, 265.550495)">
                            <mask id="mask-4" fill="white">
                                <use xlink:href="#path-3"></use>
                            </mask>
                            <use id="Clip-21" fill="#CFD9E0" xlink:href="#path-3"></use>
                            <polygon id="Fill-20" fill="#A5B7C6" mask="url(#mask-4)" points="5.39273927 16.7722772 93.9815182 16.7722772 93.9815182 -4.01188119 5.39273927 -4.01188119"></polygon>
                        </g>
                        <path d="M6.08369637,270.749571 L80.1972277,228.798416 L83.4592739,226.934389 C83.4592739,226.934389 86.7213201,226.002376 88.1206601,228.798416 C89.5186799,231.595776 89.5186799,233.924488 88.1206601,234.859142 C86.7213201,235.791155 12.1431023,278.673003 12.1431023,278.673003 C12.1431023,278.673003 0.49029703,281.469043 0.024290429,280.53703 C-0.441716172,279.605017 6.08369637,270.749571 6.08369637,270.749571" id="Fill-23" fill="#5F5FFA"></path>
                        <g id="Group-121" transform="translate(310.231023, 188.982838)">
                            <g id="Group-27">
                                <mask id="mask-6" fill="white">
                                    <use xlink:href="#path-5"></use>
                                </mask>
                                <g id="Clip-26"></g>
                                <path d="M0.69359736,1.12778878 L0.69359736,9.98455446 L0.69359736,1.12778878 Z" id="Fill-25" fill="#B5C9D4" mask="url(#mask-6)"></path>
                            </g>
                            <mask id="mask-8" fill="white">
                                <use xlink:href="#path-7"></use>
                            </mask>
                            <g id="Clip-29"></g>
                            <path d="M125.163036,9.98415842 L123.780858,9.98415842 L122.39736,9.98415842 L121.013861,9.98415842 L119.630363,9.98415842 L118.246865,9.98415842 L116.864686,9.98415842 L115.482508,9.98415842 L114.09901,9.98415842 L112.715512,9.98415842 L111.333333,9.98415842 L109.949835,9.98415842 L108.566337,9.98415842 L107.182838,9.98415842 L105.80198,9.98415842 L104.418482,9.98415842 L103.034983,9.98415842 L101.651485,9.98415842 L100.269307,9.98415842 L98.8858086,9.98415842 L97.5023102,9.98415842 L96.120132,9.98415842 L94.7379538,9.98415842 L93.3544554,9.98415842 L91.9709571,9.98415842 L90.5874587,9.98415842 L89.2052805,9.98415842 L87.8217822,9.98415842 L86.439604,9.98415842 L85.0561056,9.98415842 L83.6739274,9.98415842 L82.290429,9.98415842 L80.9069307,9.98415842 L79.5234323,9.98415842 L78.1412541,9.98415842 L76.7590759,9.98415842 L75.3755776,9.98415842 L73.9920792,9.98415842 L72.609901,9.98415842 L71.2264026,9.98415842 L69.8429043,9.98415842 L68.4594059,9.98415842 L67.0772277,9.98415842 L65.6950495,9.98415842 L64.3115512,9.98415842 L62.9280528,9.98415842 L61.5445545,9.98415842 L60.1623762,9.98415842 L58.7788779,9.98415842 L57.3966997,9.98415842 L56.0132013,9.98415842 L54.6310231,9.98415842 L53.2475248,9.98415842 L51.8640264,9.98415842 L50.4805281,9.98415842 L49.0983498,9.98415842 L47.7161716,9.98415842 L46.3326733,9.98415842 L44.9491749,9.98415842 L43.5669967,9.98415842 L42.1834983,9.98415842 L40.8,9.98415842 L39.4165017,9.98415842 L38.0343234,9.98415842 L36.6521452,9.98415842 L35.2686469,9.98415842 L33.8851485,9.98415842 L32.5029703,9.98415842 L31.1194719,9.98415842 L29.7359736,9.98415842 L28.3537954,9.98415842 L26.9716172,9.98415842 L25.5881188,9.98415842 L24.2046205,9.98415842 L22.8211221,9.98415842 L21.4389439,9.98415842 L20.0554455,9.98415842 L18.6732673,9.98415842 L17.289769,9.98415842 L15.9075908,9.98415842 L14.5240924,9.98415842 L13.1405941,9.98415842 L11.7570957,9.98415842 L10.3735974,9.98415842 L8.99141914,9.98415842 L7.60924092,9.98415842 L6.22574257,9.98415842 L4.84224422,9.98415842 L3.46006601,9.98415842 L2.07656766,9.98415842 L0.693069307,9.98415842 L0.693069307,1.12739274 L2.07656766,1.12739274 L3.46006601,1.12739274 L4.84224422,1.12739274 L6.22574257,1.12739274 L7.60924092,1.12739274 L8.99141914,1.12739274 L10.3735974,1.12739274 L11.7570957,1.12739274 L13.1405941,1.12739274 L14.5240924,1.12739274 L15.9075908,1.12739274 L17.289769,1.12739274 L18.6732673,1.12739274 L20.0554455,1.12739274 L21.4389439,1.12739274 L22.8211221,1.12739274 L24.2046205,1.12739274 L25.5881188,1.12739274 L26.9716172,1.12739274 L28.3537954,1.12739274 L29.7359736,1.12739274 L31.1194719,1.12739274 L32.5029703,1.12739274 L33.8851485,1.12739274 L35.2686469,1.12739274 L36.6521452,1.12739274 L38.0343234,1.12739274 L39.4165017,1.12739274 L40.8,1.12739274 L42.1834983,1.12739274 L43.5669967,1.12739274 L44.9491749,1.12739274 L46.3326733,1.12739274 L47.7161716,1.12739274 L49.0983498,1.12739274 L50.4805281,1.12739274 L51.8640264,1.12739274 L53.2475248,1.12739274 L54.6310231,1.12739274 L56.0132013,1.12739274 L57.3966997,1.12739274 L58.7788779,1.12739274 L60.1623762,1.12739274 L61.5445545,1.12739274 L62.9280528,1.12739274 L64.3115512,1.12739274 L65.6950495,1.12739274 L67.0772277,1.12739274 L68.4594059,1.12739274 L69.8429043,1.12739274 L71.2264026,1.12739274 L72.609901,1.12739274 L73.9920792,1.12739274 L75.3755776,1.12739274 L76.7590759,1.12739274 L78.1412541,1.12739274 L79.5234323,1.12739274 L80.9069307,1.12739274 L82.290429,1.12739274 L83.6739274,1.12739274 L85.0561056,1.12739274 L86.439604,1.12739274 L87.8217822,1.12739274 L89.2052805,1.12739274 L90.5874587,1.12739274 L91.9709571,1.12739274 L93.3544554,1.12739274 L94.7379538,1.12739274 L96.120132,1.12739274 L97.5023102,1.12739274 L98.8858086,1.12739274 L100.269307,1.12739274 L101.651485,1.12739274 L103.034983,1.12739274 L104.418482,1.12739274 L105.80198,1.12739274 L107.182838,1.12739274 L108.566337,1.12739274 L109.949835,1.12739274 L111.333333,1.12739274 L112.715512,1.12739274 L114.09901,1.12739274 L115.482508,1.12739274 L116.864686,1.12739274 L118.246865,1.12739274 L119.630363,1.12739274 L121.013861,1.12739274 L122.39736,1.12739274 L123.780858,1.12739274 L125.163036,1.12739274 L126.545215,1.12739274 L126.545215,9.98415842 L125.163036,9.98415842 Z M126.545743,9.98455446 L126.545743,1.12778878 L126.545743,9.98455446 Z" id="Combined-Shape" fill="url(#linearGradient-9)" mask="url(#mask-8)"></path>
                        </g>
                        <g id="Group-255" transform="translate(0.000000, 29.246865)">
                            <path d="M331.046205,165.174785 C331.046205,169.529901 327.514851,173.061254 323.159736,173.061254 C318.805941,173.061254 315.274587,169.529901 315.274587,165.174785 C315.274587,160.81967 318.805941,157.289637 323.159736,157.289637 C327.514851,157.289637 331.046205,160.81967 331.046205,165.174785" id="Fill-122" fill="#4E7E97"></path>
                            <path d="M66.2333993,300.431551 C74.410297,296.291617 82.8987459,292.909439 91.5350495,289.858614 C95.6366997,288.411749 99.7594719,287.01901 103.871683,285.598548 C107.925809,284.199208 112.234719,283.036172 115.931089,280.811749 C116.913267,280.22033 116.030099,278.702178 115.033399,279.273795 C111.104686,281.52462 106.473663,282.698218 102.206997,284.156964 C97.960132,285.606469 93.7172277,287.066535 89.5007261,288.597888 C81.2763036,291.587987 73.1060066,294.839472 65.3858746,298.982046 C64.430099,299.495578 65.2736634,300.91736 66.2333993,300.431551" id="Fill-124" fill="#B5C9D4"></path>
                            <path d="M103.373729,279.906403 C119.491221,291.148647 136.119604,301.770429 152.67934,312.348647 C153.666799,312.98099 154.546007,311.436436 153.591551,310.790891 C137.323564,299.767789 120.988251,288.698482 104.28462,278.346007 C103.285281,277.725545 102.432475,279.250297 103.373729,279.906403" id="Fill-126" fill="#B5C9D4"></path>
                            <path d="M6.01531353,242.733861 C9.6760396,242.632211 10.8747195,245.842772 11.6258746,248.844752 C11.8542574,249.755644 13.1189439,249.343762 12.9948515,248.467195 C12.5156436,245.054653 9.9479868,240.605809 5.85425743,241.535182 C5.18363036,241.686997 5.32752475,242.752343 6.01531353,242.733861" id="Fill-128" fill="#3333D1"></path>
                            <path d="M1.31617162,250.265347 C1.40990099,250.290429 1.49570957,250.344554 1.5339934,250.405281 C1.55775578,250.442244 1.57755776,250.479208 1.59735974,250.517492 C1.64092409,250.608581 1.58019802,250.448845 1.60660066,250.545215 C1.60924092,250.557096 1.63432343,250.674587 1.62508251,250.619142 C1.61584158,250.571617 1.61848185,250.592739 1.63168317,250.682508 C1.63828383,250.731353 1.64488449,250.780198 1.65148515,250.829043 C1.7320132,251.427063 2.74983498,251.412541 2.84488449,250.829043 C2.97425743,250.046205 2.42640264,249.252805 1.6330033,249.115512 C1.31749175,249.060066 0.991419142,249.2 0.900330033,249.531353 C0.815841584,249.840264 1.00462046,250.183498 1.31617162,250.265347" id="Fill-130" fill="#3333D1"></path>
                            <path d="M83.0006601,200.043564 C84.7353135,201.115512 85.7940594,203.193399 85.6422442,205.226403" id="Fill-132" fill="#B4B4FF"></path>
                            <path d="M82.4076568,201.058086 C83.8175578,202.042904 84.3456106,203.566337 84.3310891,205.225743 C84.3165677,206.935314 86.8155776,206.885149 86.9528713,205.225743 C87.1614521,202.725413 85.6723432,200.317492 83.5931353,199.029043 C82.2914851,198.222442 81.1852145,200.20396 82.4076568,201.058086" id="Fill-134" fill="#3333D1"></path>
                            <g id="Group-138" transform="translate(26.402640, 299.669967)">
                                <mask id="mask-11" fill="white">
                                    <use xlink:href="#path-10"></use>
                                </mask>
                                <g id="Clip-137"></g>
                                <path d="M0.808316832,3.58877888 L0.808316832,12.4759076 C0.808316832,13.5821782 1.37333333,14.6132013 2.30666667,15.2072607 L80.3858746,64.930033 C86.3462706,68.7254125 93.6848845,69.6693069 100.412277,67.5069307 L176.356832,43.0963696 C176.478284,43.0567657 176.601056,43.0250825 176.727789,43.0013201 C177.357492,42.8811881 179.603036,42.339934 179.221518,40.8151815 C178.779274,39.0448845 178.33703,38.6013201 178.33703,37.7168317 C178.33703,36.8323432 178.779274,33.7326733 178.33703,32.8468647 C177.894785,31.9610561 177.451221,30.1907591 177.894785,28.8627063 C178.33703,27.5346535 178.33703,27.0924092 177.894785,25.7643564 C177.865743,25.679868 177.8433,25.5940594 177.820858,25.5056106 C177.411617,23.7735974 175.793135,22.6184818 174.045281,22.9485149 C156.647261,26.2369637 86.1984158,39.5966997 85.810297,40.3729373 C85.430099,41.1306931 23.2888449,9.71023102 5.51062706,0.700330033 C3.35617162,-0.392739274 0.808316832,1.17425743 0.808316832,3.58877888" id="Fill-136" fill="#E1EAEE" mask="url(#mask-11)"></path>
                            </g>
                            <path d="M31.2087129,291.18165 L31.6456766,308.236436 L119.540066,364.208713 L205.248317,336.660198 C205.248317,336.660198 208.308383,336.221914 207.871419,334.474059 C207.433135,332.724884 206.996172,332.287921 206.996172,331.412673 C206.996172,330.537426 207.433135,327.47604 206.996172,326.602112 C206.559208,325.728185 206.122244,323.97901 206.559208,322.666799 C206.996172,321.354587 206.996172,320.917624 206.559208,319.605413 C206.122244,318.293201 206.559208,316.107063 206.559208,316.107063 C206.559208,316.107063 116.041716,333.161848 115.604752,334.035776 C115.167789,334.911023 31.2087129,291.18165 31.2087129,291.18165" id="Fill-139" fill="#CCDAE1"></path>
                            <path d="M206.996436,317.419274 L119.406997,345.78363 C118.786535,345.986931 118.106667,345.906403 117.549571,345.564488 L31.2089769,291.18165 C29.5825743,290.18495 31.1416502,290.017294 32.9568317,289.433795 L111.178614,264.806733 C111.770033,264.616634 112.414257,264.68132 112.955512,264.98495 L202.960792,314.627195 C204.655842,315.57901 208.84462,316.817294 206.996436,317.419274" id="Fill-141" fill="#FFFFFF"></path>
                            <path d="M35.0530693,291.717888 C33.3223762,290.594455 30.46033,291.080264 28.7005941,291.799736 C26.1844224,292.830759 24.1461386,294.805677 23.090033,297.308647 C22.0220462,299.84198 21.9573597,302.803036 23.0926733,305.328449 C24.4233663,308.284224 27.0068647,308.953531 30.0194059,309.168713 C31.7012541,309.290165 31.6827723,306.689505 30.0194059,306.554851 C27.4992739,306.352871 25.719736,305.731089 25.26033,302.968053 C24.9368977,301.019538 25.2986139,298.979934 26.3916832,297.324488 C27.8174257,295.166073 31.439868,292.94429 34.1910231,293.762772 C35.4411881,294.13505 36.0920132,292.392475 35.0530693,291.717888" id="Fill-143" fill="#4E7E97"></path>
                            <path d="M41.0477888,295.826667 C36.3375578,295.290693 31.140198,296.398284 29.1652805,301.247129 C27.5639604,305.181122 28.8576898,311.952079 34.3692409,310.885413 C35.7685809,310.614785 35.4636304,308.291353 34.0312871,308.386403 C29.5269967,308.682112 31.2444884,301.966601 33.2009241,300.115776 C35.2708911,298.1567 38.3666007,298.072211 41.0477888,298.286073 C42.6425083,298.414125 42.589703,296.003564 41.0477888,295.826667" id="Fill-145" fill="#4E7E97"></path>
                            <path d="M47.4872607,299.401584 C42.9539274,298.737558 36.8324752,301.343498 34.9737294,305.65505 C34.0707591,307.747459 34.390231,310.390363 35.6932013,312.431287 C37.2007921,314.790363 40.3994719,315.290693 42.9592079,314.684752 C44.6925413,314.276832 43.9585479,311.607525 42.2238944,312.018086 C40.0456766,312.531617 38.1908911,311.897954 37.6337954,309.76462 C37.2139934,308.15802 37.3631683,306.26363 38.5024422,305.008185 C40.3347855,302.991023 44.4667987,301.55868 47.1691089,301.750099 C48.4945215,301.846469 48.8271947,299.598284 47.4872607,299.401584" id="Fill-147" fill="#4E7E97"></path>
                            <path d="M53.2113531,303.342574 C48.9988119,300.446205 42.0588779,304.405281 41.1123432,309.032343 C40.6331353,311.378218 40.5367657,313.771617 42.4483168,315.440264 C44.3334653,317.085149 46.6753795,318.00132 49.0885809,317.39934 C50.5671287,317.032343 50.3031023,314.545215 48.7215842,314.682508 C47.1928713,314.814521 46.0285149,314.463366 44.7057426,313.589439 C43.3380858,312.687789 43.5149835,310.867327 43.8608581,309.429703 C44.5842904,306.411881 49.140066,304.081848 51.9875908,305.436304 C53.3974917,306.108251 54.5050825,304.232343 53.2113531,303.342574" id="Fill-149" fill="#4E7E97"></path>
                            <path d="M58.3384818,305.923564 C53.9424422,303.433795 49.6256106,307.458878 47.9582838,311.338746 C47.0711551,313.399472 47.0038284,316.364488 47.729901,318.507063 C48.4374917,320.598152 51.0566337,320.859538 52.9576238,320.942706 C54.5233003,321.011353 54.929901,318.421254 53.3338614,318.158548 C52.3741254,318.000132 50.9233003,318.066139 50.4176898,317.214653 C49.7285809,316.051617 50.1668647,313.396832 50.6751155,312.28264 C52.0335314,309.309703 54.1153795,307.668779 57.4038284,308.141386 C58.6671947,308.320924 59.6348515,306.658878 58.3384818,305.923564" id="Fill-151" fill="#4E7E97"></path>
                            <path d="M65.9471947,309.761452 C60.620462,308.746271 55.350495,310.107327 53.4679868,315.690165 C52.7419142,317.84462 52.2851485,320.758152 53.490429,322.880924 C54.7471947,325.088185 57.6250825,326.168053 59.9023102,326.03736 C61.3650165,325.954191 61.8719472,323.650561 60.2679868,323.33637 C58.229703,322.93505 55.9894389,322.929769 55.7240924,320.249901 C55.5788779,318.773993 55.8943894,317.225479 56.4607261,315.853861 C58.0316832,312.054521 62.0475248,311.876304 65.619802,312.177294 C66.990099,312.293465 67.309571,310.021518 65.9471947,309.761452" id="Fill-153" fill="#4E7E97"></path>
                            <path d="M71.5514191,314.010693 C66.6867327,312.588911 60.0438284,314.913663 58.6959736,320.17835 C58.0755116,322.598152 58.3342574,325.865479 59.8946535,327.916964 C61.449769,329.963168 63.9778218,330.818614 66.3474587,329.605413 C67.6860726,328.921584 67.239868,326.665479 65.6015842,326.947987 C61.1078548,327.722904 59.8867327,322.87538 62.0293069,319.419274 C63.8642904,316.459538 67.8563696,316.236436 70.9375578,316.318284 C72.1732013,316.349967 72.9613201,314.422574 71.5514191,314.010693" id="Fill-155" fill="#4E7E97"></path>
                            <path d="M77.1361056,318.175974 C74.5460066,317.818218 71.5532673,317.63736 69.1044224,318.752871 C66.530165,319.927789 64.5380858,322.714587 64.0667987,325.481584 C63.6047525,328.179934 64.6423762,331.023498 66.8694389,332.655182 C68.6727393,333.976634 72.6278548,335.700726 74.4351155,333.828779 C75.3578878,332.873003 74.4456766,331.078944 73.0885809,331.515908 C71.4661386,332.03868 68.5539274,330.503366 67.6852805,329.224158 C66.5869307,327.608317 66.8324752,325.573993 67.7407261,323.947591 C69.6113531,320.595776 73.3644884,320.420198 76.8179538,320.524488 C78.1314851,320.565413 78.4905611,318.363432 77.1361056,318.175974" id="Fill-157" fill="#4E7E97"></path>
                            <path d="M84.3465347,321.810297 C78.3491749,318.686865 71.970297,321.83934 69.6574257,328.017558 C68.6805281,330.627459 68.8745875,333.665083 70.7359736,335.851221 C72.5471947,337.977954 75.5716172,338.795116 78.1207921,337.601716 C79.7432343,336.84132 78.5405941,334.533729 76.9617162,334.854521 C71.950495,335.869703 71.5161716,330.164092 73.2574257,327.253201 C75.5610561,323.397096 79.3749175,322.483564 83.3788779,324.104686 C84.6990099,324.64066 85.5953795,322.461122 84.3465347,321.810297" id="Fill-159" fill="#4E7E97"></path>
                            <path d="M90.7112871,324.236568 C85.4822442,322.536238 79.8505611,324.376502 77.0730033,329.237228 C75.7211881,331.601584 74.8208581,334.880792 75.700066,337.550099 C76.6650825,340.484752 80.3614521,342.3633 83.2551815,341.423366 C85.1588119,340.804224 84.3865347,337.996304 82.4287789,338.425347 C79.6763036,339.027327 78.1515512,336.676172 78.4406601,334.224686 C78.6835644,332.171881 79.6050165,330.120396 81.0135974,328.608845 C83.33967,326.113795 86.9225083,325.612145 90.089505,326.492673 C91.549571,326.899274 92.1370297,324.699934 90.7112871,324.236568" id="Fill-161" fill="#4E7E97"></path>
                            <path d="M94.9759736,329.982442 C95.010297,329.950759 95.0472607,329.917756 95.0815842,329.886073 C95.5040264,329.500594 95.5423102,328.826007 95.279604,328.346799 C93.9370297,325.890033 89.0116172,326.836568 87.010297,327.715776 C84.1772937,328.96198 82.0875248,331.422706 81.0063366,334.293993 C79.8644224,337.326337 79.9330693,340.680792 81.9871947,343.288053 C83.8683828,345.678812 87.390495,347.092673 90.3251485,345.920396 C91.799736,345.332937 91.7865347,342.827327 89.9185479,342.918416 C87.8855446,343.017426 85.9713531,343.021386 84.5456106,341.314455 C83.13967,339.633927 83.2545215,337.404224 83.9449505,335.442508 C84.5654125,333.677492 85.709967,332.043168 87.2730033,330.988383 C88.8043564,329.954719 91.7838944,329.049109 93.5423102,330.084092 C93.3337294,329.718416 93.1238284,329.352739 92.9139274,328.987063 C92.9152475,329.034587 92.9178878,329.082112 92.9192079,329.129637 C92.9680528,330.189703 94.1931353,330.696634 94.9759736,329.982442" id="Fill-163" fill="#4E7E97"></path>
                            <path d="M100.326073,333.580594 C98.3524752,327.690165 89.5920792,330.715908 86.8026403,334.13901 C84.8660066,336.515248 84.2719472,339.373333 85.5960396,342.183894 C86.7775578,344.694785 88.8422442,347.831419 92.0224422,347.497426 C93.6382838,347.327129 94.3247525,344.781914 92.439604,344.410957 C90.5452145,344.03736 89.7029703,342.987855 88.8171617,341.349571 C87.7623762,339.401056 87.9221122,337.699406 89.3544554,335.977954 C90.8528053,334.178614 96.5412541,331.370693 98.1716172,334.487525 C98.7841584,335.659802 100.752475,334.854521 100.326073,333.580594" id="Fill-165" fill="#4E7E97"></path>
                            <path d="M104.820198,336.274983 C103.712607,333.777294 99.7429703,334.059802 97.5528713,334.416238 C94.7607921,334.869043 92.1244884,336.451881 90.7753135,338.999736 C89.5977558,341.230759 89.5277888,344.693465 90.8505611,346.887525 C92.4056766,349.469703 95.7046865,350.100726 98.459802,349.651881 C100.306667,349.349571 99.6994059,346.685545 98.0413201,346.564092 C96.4241584,346.446601 94.370033,346.628779 93.5528713,344.883564 C92.9060066,343.501386 93.0512211,341.356172 93.8710231,340.082244 C94.7383498,338.733069 96.1852145,337.972673 97.6928053,337.556832 C99.0036964,337.192475 101.881584,336.602376 102.928449,337.733729 C103.923828,338.814917 105.33769,337.4433 104.820198,336.274983" id="Fill-167" fill="#4E7E97"></path>
                            <path d="M109.070759,336.406469 C103.951287,335.368845 98.7169637,338.673135 96.9347855,343.400528 C95.9737294,345.951023 95.4469967,349.182706 97.2885809,351.470495 C99.2714191,353.931221 102.566469,354.292937 105.474719,353.680396 C107.198812,353.31736 106.771089,350.670495 105.066799,350.661254 C102.839736,350.648053 99.5974917,350.82231 99.3427063,347.850693 C99.1988119,346.168845 99.9578878,344.125281 100.827855,342.739142 C102.363168,340.292937 105.890561,338.769505 108.739406,338.855314 C110.121584,338.897558 110.467459,336.688977 109.070759,336.406469" id="Fill-169" fill="#4E7E97"></path>
                            <path d="M112.588911,340.08198 C108.309043,339.070759 104.171749,343.167129 102.68396,346.77637 C101.613333,349.37571 101.358548,352.500462 102.764488,355.027195 C103.923564,357.109043 106.270759,359.057558 108.709043,357.949967 C109.920924,357.399472 109.662178,355.210693 108.323564,354.999472 C101.630495,353.944686 106.859538,342.408053 112.266799,342.464818 C113.615974,342.47802 113.938086,340.400132 112.588911,340.08198" id="Fill-171" fill="#4E7E97"></path>
                            <path d="M117.986799,343.023894 C117.227723,342.061518 116.011881,342.394191 115.180198,342.586931 C113.338614,343.009373 111.520792,344.263498 110.191419,345.574389 C107.527393,348.196172 106.414521,352.134125 107.046865,355.796172 C107.508911,358.464158 109.120792,360.891881 111.523432,362.190891 C113.240924,363.117624 115.907591,363.715644 117.412541,362.08264 C118.707591,360.67934 117.093069,358.730825 115.436304,359.520264 C113.424422,360.47868 110.842244,357.169109 110.433003,355.373729 C109.882508,352.957888 110.463366,350.171089 112.047525,348.255578 C112.793399,347.355248 113.741254,346.652937 114.724752,346.035116 C115.3967,345.613993 116.077888,345.38165 116.789439,345.037096 C118.183498,344.361188 116.913531,345.195512 116.528053,344.915644 C117.728053,345.788251 118.757756,343.999472 117.986799,343.023894" id="Fill-173" fill="#4E7E97"></path>
                            <path d="M103.485941,325.753927 C112.586931,322.58297 121.607393,319.117624 130.564488,315.559868 C134.705743,313.916304 138.648977,311.856898 142.734785,310.089241 C147.369769,308.086601 152.160528,306.510363 157.030495,305.192871 C158.113003,304.899802 157.656238,303.237756 156.567129,303.512343 C151.994191,304.667459 147.518944,306.17769 143.169109,307.996832 C138.759868,309.841056 134.539406,312.094521 130.095842,313.863498 C121.140066,317.426535 112.127525,320.916964 103.031815,324.110363 C102.004752,324.470759 102.445677,326.115644 103.485941,325.753927" id="Fill-175" fill="#B5C9D4"></path>
                            <path d="M64.2636304,294.601848 C67.6114851,297.9233 71.1837624,300.999208 75.0279868,303.734521 C79.2642904,306.747063 83.8636304,309.157624 88.1989439,312.011749 C92.5633003,314.884356 96.6741914,318.12 101.06231,320.962244 C105.447789,323.800528 109.979802,326.438152 114.666271,328.747063 C115.920396,329.366205 117.027987,327.51934 115.772541,326.856634 C111.383102,324.538482 107.06231,322.12132 102.886733,319.434851 C98.4959736,316.611089 94.379802,313.409769 90.0563696,310.492277 C85.9507591,307.72132 81.5375578,305.441452 77.4134653,302.696898 C73.2088449,299.898218 69.2392079,296.764224 65.5322772,293.333201 C64.6860726,292.551683 63.439868,293.784686 64.2636304,294.601848" id="Fill-177" fill="#B5C9D4"></path>
                            <path d="M90.840264,291.429175 C86.4759076,292.886601 85.5320132,297.829175 88.3663366,301.256238 C90.1023102,303.359208 92.6831683,304.28462 95.330033,304.589571 C97.9953795,304.895842 101.228383,305.015974 103.770957,304.021914 C108.963036,301.991551 107.947855,295.97835 104.20264,292.909043 C102.246205,291.303762 99.190099,290.734785 96.759736,290.38363 C94.1009901,290.000792 91.5848185,290.202772 89.1742574,291.431815 C88.2039604,291.926865 88.8917492,293.648317 89.9306931,293.223234 C93.1359736,291.909703 96.4231023,292.247657 99.690429,293.170429 C101.893729,293.792211 103.275908,294.509043 104.412541,296.560528 C105.654785,298.798152 105.60066,300.97769 102.926073,302.011353 C99.889769,303.18495 94.7452145,302.935446 91.90033,301.429175 C88.370297,299.561188 87.3155116,294.77967 91.4818482,292.951287 C92.3438944,292.572409 91.7313531,291.130825 90.840264,291.429175" id="Fill-179" fill="#7BA1B4"></path>
                            <path d="M143.43802,307.437096 C139.170033,303.77901 133.296766,302.596172 127.852541,301.957228 C122.025479,301.273399 115.946271,301.107063 110.207657,302.507723 C105.554191,303.641716 99.6333993,306.169769 97.9330693,311.091221 C96.1126073,316.354587 100.296106,319.669439 104.863762,321.004092 C106.301386,321.426535 106.777954,319.353927 105.465743,318.817954 C103.555512,318.037756 101.195116,317.359208 100.183894,315.361848 C98.8360396,312.699142 100.83868,309.800132 102.912607,308.251617 C106.611617,305.487261 111.474983,304.330825 116.003036,303.974389 C125.148911,303.252277 134.166733,304.78099 142.406997,308.77571 C143.218878,309.169109 144.222178,308.109043 143.43802,307.437096" id="Fill-181" fill="#7BA1B4"></path>
                            <path d="M119.192211,348.493993 C126.731485,345.683432 134.413333,343.414125 142.029175,340.839868 C149.88264,338.183762 157.687261,335.468251 165.633135,333.090693 C173.237096,330.814785 180.738086,328.290693 188.233795,325.683432 C194.648317,323.449769 201.366469,321.423366 207.416634,318.292013 C208.893861,317.527657 207.594851,315.486733 206.140066,316.109835 C192.390891,321.994983 178.029175,326.672211 163.708383,330.945479 C155.77835,333.312475 148.014653,336.104554 140.169109,338.727657 C132.818614,341.183102 125.450957,343.350759 118.297162,346.371221 C117.097162,346.876832 117.957888,348.953399 119.192211,348.493993" id="Fill-183" fill="#9EB9C8"></path>
                            <path d="M119.50033,353.352871 C122.405941,351.671023 126.027063,350.853861 129.19934,349.84264 C134.80462,348.055182 140.442904,346.378614 146.086469,344.715248 C155.834323,341.84 165.714191,339.234059 175.310231,335.873003 C185.959736,332.14363 196.50099,328.032739 207.09637,324.154191 C208.520792,323.631419 207.972937,321.446601 206.460066,321.847921 C196.617162,324.455182 187.221782,328.774653 177.666667,332.24132 C173.10297,333.896766 168.50231,335.33835 163.850165,336.713927 C152.511551,340.065743 141.151815,343.354191 129.89769,346.979274 C126.09703,348.203036 121.740594,349.201056 118.267327,351.2433 C116.912871,352.04066 118.136634,354.14363 119.50033,353.352871" id="Fill-185" fill="#9EB9C8"></path>
                            <path d="M121.876304,359.686733 C137.773333,353.299934 154.133729,348.127657 170.305347,342.495974 C182.602376,338.213465 194.977294,334.010165 207.547591,330.589703 C209.093465,330.168581 208.43868,327.771221 206.884884,328.184422 C194.13901,331.566601 181.617558,335.629967 169.158152,339.930957 C152.978614,345.517756 136.701386,350.750759 120.921848,357.422706 C119.645281,357.96264 120.572013,360.210825 121.876304,359.686733" id="Fill-187" fill="#9EB9C8"></path>
                            <path d="M122.384158,364.986535 C149.543234,352.73967 178.590099,345.390495 207.008581,336.727789 C208.632343,336.232739 207.949835,333.704686 206.30363,334.174653 C177.617162,342.367393 148.116172,349.886865 121.107591,362.804356 C119.630363,363.510627 120.921452,365.646601 122.384158,364.986535" id="Fill-189" fill="#9EB9C8"></path>
                            <path d="M369.872871,55.400132 C364.946139,50.5050825 358.1567,47.4806601 350.66099,47.4806601 C350.622706,47.4806601 350.584422,47.4833003 350.544818,47.4833003 L350.544818,74.6318152 L350.643828,74.6318152 L369.872871,55.400132 Z" id="Fill-191" fill="#FFBE00"></path>
                            <path d="M350.545347,74.6323432 L323.396832,74.6323432 C323.396832,74.6706271 323.394191,74.710231 323.394191,74.7485149 C323.394191,82.2442244 326.419934,89.0310231 331.314983,93.960396 L350.545347,74.7287129 L350.545347,74.6323432 Z" id="Fill-193" fill="#4747EC"></path>
                            <path d="M350.545347,102.013465 L350.545347,74.7289769 L331.314983,93.9593399 C336.228515,98.9071947 343.028515,101.981782 350.545347,102.013465" id="Fill-195" fill="#0074EF"></path>
                            <polygon id="Fill-197" fill="#2929B5" points="350.6433 74.6323432 350.545611 74.6323432 350.545611 74.7287129"></polygon>
                            <path d="M323.396172,74.6323432 L350.544686,74.6323432 L350.544686,74.5346535 L331.431815,55.420462 C326.494521,60.3326733 323.427855,67.1247525 323.396172,74.6323432" id="Fill-199" fill="#FF5151"></path>
                            <path d="M331.431683,55.4207261 L350.545875,74.5349175 L350.545875,47.4827723 C343.085809,47.5144554 336.335974,50.5415182 331.431683,55.4207261" id="Fill-201" fill="#FF9200"></path>
                            <path d="M369.872871,55.400132 L350.643828,74.6318152 L377.926997,74.6318152 C377.893993,67.1136634 374.820726,60.3149835 369.872871,55.400132" id="Fill-203" fill="#1CF68B"></path>
                            <path d="M350.545347,74.7289769 L350.545347,102.013465 C350.58363,102.013465 350.623234,102.016106 350.661518,102.016106 C358.216634,102.016106 365.052277,98.9428383 369.989571,93.9791419 L350.643036,74.6326073 L350.545347,74.7289769 Z" id="Fill-205" fill="#008DF8"></path>
                            <path d="M377.926469,74.6323432 L350.6433,74.6323432 L369.989835,93.9788779 C374.896766,89.049505 377.929109,82.2521452 377.929109,74.7485149 C377.929109,74.710231 377.926469,74.6706271 377.926469,74.6323432" id="Fill-207" fill="#00D393"></path>
                            <path d="M179.745479,14.0415842 C180.96132,15.2217822 182.653729,15.9570957 184.486073,15.8871287 C189.650429,15.690429 192.137558,9.88580858 190.669571,5.40132013 C189.214785,0.952475248 183.394323,-0.407260726 180.083432,2.88382838 C177.889373,5.0660066 176.438548,12.0825083 179.745479,14.0415842" id="Fill-209" fill="#1CF68B"></path>
                            <path d="M249.262574,30.6554455 C249.61505,30.8468647 251.105479,30.9023102 251.537162,30.1881188 C252.833531,28.0323432 252.943102,25.4950495 253.183366,23.0369637 C253.461914,20.1788779 253.560924,17.29967 253.328581,14.4363036 C253.098878,11.6178218 252.541782,8.81386139 251.554323,6.16039604 C251.32462,5.54389439 248.255314,-0.749174917 247.633531,0.247524752 C247.568845,0.349174917 243.393267,4.81122112 241.71538,6.67524752 C240.432211,8.10363036 238.956304,9.45544554 237.671815,10.9234323 C237.653333,10.9234323 237.638812,10.9181518 237.62165,10.9181518 C236.341122,10.89967 235.060594,10.8811881 233.780066,10.8613861 C233.525281,10.8574257 233.311419,10.9075908 233.129241,10.9894389 C232.551023,10.9287129 231.904158,11.3326733 231.848713,12.0508251 C231.62429,14.9194719 231.971485,17.8673267 231.949043,20.7478548 C231.942442,21.5570957 232.605149,22.1036304 233.364224,22.1643564 C235.002508,22.2924092 236.591947,22.2118812 238.211749,21.9768977 C241.508119,25.2455446 245.22033,28.4627063 249.262574,30.6554455" id="Fill-211" fill="#00E87B"></path>
                            <path d="M255.716172,19.4833003 C254.147855,20.1433663 254.836964,22.7427063 256.430363,22.0733993 C261.581518,19.9057426 260.526733,11.7763696 256.817162,8.70838284 C255.633003,7.72884488 254.194059,9.19287129 255.144554,10.37967 C256.233663,11.7407261 257.135314,13.0516172 257.215842,14.8535974 C257.277888,16.2423762 257.229043,18.8469967 255.716172,19.4833003" id="Fill-213" fill="#00D393"></path>
                            <path d="M260.821386,3.3090429 C259.752079,2.44435644 257.947459,3.53478548 258.784422,4.88 C260.767261,8.06811881 263.1633,10.1156436 263.15802,14.1750495 C263.151419,17.8740594 262.206205,21.0582178 258.954719,23.1163036 C257.319076,24.1526073 258.804224,26.7321452 260.479472,25.7248845 C268.451749,20.9407261 267.581782,8.77306931 260.821386,3.3090429" id="Fill-215" fill="#00D393"></path>
                            <path d="M197.281059,28.0550495 C197.282376,27.9177558 196.754323,24.0708911 196.730561,23.9573597 C196.231551,21.4345875 193.954323,18.8022442 191.81967,17.4807921 C191.729901,17.4240264 190.61835,16.8141254 190.098218,17.0741914 C186.511419,18.8484488 183.387987,19.0411881 179.641452,17.5811221 C179.302178,17.450429 178.145743,17.1639604 177.665215,17.3606601 C174.982706,18.46033 173.226931,20.7190759 172.288317,23.4240264 C171.728581,25.0438284 171.485677,32.1078548 172.463894,32.0986229 C179.7233,32.0194059 187.785347,31.909835 195.044752,31.7210561 C196.627591,31.680132 197.081716,31.1705611 197.22165,30.5844224 C197.273135,29.7421782 197.273135,28.9065347 197.281059,28.0550495" id="Fill-217" fill="#1CF68B"></path>
                            <path d="M193.587459,91.5787459 C193.660066,91.5708251 193.730033,91.5655446 193.80264,91.5576238 C193.788119,91.5193399 193.780198,91.4810561 193.765677,91.4414521 C193.708911,91.4929373 193.649505,91.5365017 193.587459,91.5787459" id="Fill-219" fill="#00E87B"></path>
                            <path d="M190.425083,81.2046551 C186.660066,81.1927393 183.618482,78.1326733 183.630328,74.3663366 C183.639604,70.6026403 186.70231,67.559736 190.466007,67.5715825 C194.232343,67.5834983 197.273927,70.6435644 197.263394,74.409901 C197.251485,78.1735974 194.190099,81.2165017 190.425083,81.2046551 M210.327393,68.9564356 C210.279868,68.7650165 210.174257,68.7188119 210.040924,68.6435644 C209.875908,68.5511551 209.40462,68.6264026 208.871287,68.7056106 C208.69835,68.7240924 208.526733,68.7412541 208.360396,68.7557756 C207.40462,68.8389439 206.466007,68.6079208 205.786139,67.9029703 C204.138614,66.2 206.10297,64.2448845 207.256766,62.9815182 C207.371617,62.8574257 207.50099,62.7729373 207.635644,62.7161716 C206.194059,60.49967 204.332673,58.5828383 202.159736,57.0818482 C201.916832,57.170297 201.69505,57.3551155 201.533993,57.6640264 C201.019142,58.6541254 200.343234,59.3749175 199.453465,59.769637 C199.29637,59.7643564 198.648185,59.9676568 198.468647,60.0547855 C198.236304,60.090429 197.994719,60.1128713 197.739934,60.1141914 C197.140594,60.1141914 195.609241,60.090429 195.159076,59.590099 C194.653465,59.030363 194.934653,57.5518152 194.935974,56.8574257 C194.937294,56.7425743 194.935974,54.9511551 194.017162,54.8125413 C191.205281,54.3834983 187.90495,54.350495 185.062706,54.8534653 C184.360396,54.9735974 184.087129,55.4805281 184.129373,56.1815182 C184.142574,56.4046205 184.225743,58.0455446 184.192739,58.30033 C184.108251,58.9841584 183.258086,60.3848185 183.223762,60.440264 C183.126073,60.6013201 182.986139,60.739934 182.827723,60.8508251 C182.8,60.8877888 182.714191,60.9405941 182.69835,60.9313531 C182.4,61.0976898 182.043564,61.1610561 181.714851,61.050165 C180.227063,60.5485149 178.951815,59.6732673 178.055446,58.4429043 C177.984158,58.3940594 177.912871,58.3465347 177.842904,58.2963696 L177.634323,58.2620462 C175.491749,60.0679868 173.730693,62.3082508 172.485809,64.849505 C172.337954,65.2178218 173.362376,65.7075908 173.383498,65.7075908 C174.440924,66.3716172 175.354455,67.0620462 174.928053,68.2976898 C174.227063,70.3214521 172.682508,70.8957096 171.015182,70.7584158 C170.847525,70.7636964 170.650825,70.8006601 170.632343,70.949835 C170.510891,71.839604 170.439604,72.7452145 170.436865,73.6666667 C170.430363,75.7907591 170.753795,77.8382838 171.354455,79.7630363 C172.765677,79.2587459 174.763036,79.8132013 175.461386,81.0567657 C176.345875,82.630363 175.194719,84.0033003 173.908911,85.0620462 C175.69505,87.6970297 178.385479,90.1854785 180.290429,91.1042904 C180.488449,90.7689769 180.679868,90.6092409 181.036304,90.2805281 C182.063366,89.0330033 183.489109,88.3240924 185.155116,88.9564356 C186.879208,89.609901 186.664026,90.9366337 186.720792,92.3834983 C186.708911,93.0792079 186.708911,93.520132 186.984818,93.6178218 C188.159736,93.8343234 189.368977,93.9557756 190.605941,93.959736 C192.772277,93.9663366 195.064026,93.959736 196.818482,93.0039604 C197.322772,92.7280528 196.59934,91.8158416 196.526733,91.6811881 C195.354455,89.469967 196.905611,87.2283828 199.428383,87.7062706 C200.809241,87.9663366 201.945875,88.8627063 203.032343,89.7353135 C204.844884,88.3333333 206.411881,86.630363 207.660726,84.70033 C206.933333,84.2369637 204.807921,82.969637 204.805281,81.0528053 C204.792079,79.7630363 205.289769,78.6158416 206.739274,78.1392739 C207.869307,77.7669967 209.189439,77.8528053 210.406601,78.1577558 C210.720792,76.7518152 210.893729,75.2917492 210.899111,73.7907591 C210.90429,72.1247525 210.70231,70.5062706 210.327393,68.9564356" id="Fill-221" fill="#00E87B"></path>
                            <path d="M250.932013,71.3655446 C247.766337,71.3655446 245.2,68.7992079 245.2,65.6322112 C245.2,62.4678548 247.766337,59.900198 250.932013,59.900198 C254.09637,59.900198 256.664026,62.4678548 256.664026,65.6322112 C256.664026,68.7992079 254.09637,71.3655446 250.932013,71.3655446 M262.319472,64.4823762 C262.178218,62.7728053 261.730693,61.0711551 260.885809,59.4064686 C258.368317,54.4506931 252.163696,51.9582838 246.928053,53.8236304 C242.135974,55.5318812 239.560396,60.4850165 239.386139,65.3589439 C239.346535,66.490297 239.427063,67.6256106 239.627723,68.739802 C240.941254,76.0256106 245.239604,82.5338614 249.79802,88.2130693 C250.054125,88.5325413 250.4,88.8836964 250.8,88.8005281 C250.992739,88.7609241 251.148515,88.6249505 251.291089,88.4929373 C253.566997,86.3886469 255.148515,83.7563036 256.740594,81.1450825 C259.713531,76.2711551 262.80396,70.3292409 262.319472,64.4823762" id="Fill-223" fill="#00C588"></path>
                            <path d="M329.570165,165.174785 C329.570165,168.71538 326.700198,171.584026 323.160924,171.584026 C319.62033,171.584026 316.751683,168.71538 316.751683,165.174785 C316.751683,161.635512 319.62033,158.766865 323.160924,158.766865 C326.700198,158.766865 329.570165,161.635512 329.570165,165.174785" id="Fill-225" fill="#FFFFFF"></path>
                            <path d="M271.441848,216.797888 C271.441848,221.057954 267.989703,224.510099 263.729637,224.510099 C259.472211,224.510099 256.018746,221.057954 256.018746,216.797888 C256.018746,212.537822 259.472211,209.085677 263.729637,209.085677 C267.989703,209.085677 271.441848,212.537822 271.441848,216.797888" id="Fill-227" fill="#9EB9C8"></path>
                            <path d="M57.9684488,215.736898 C58.3394059,215.66165 82.7829703,203.55736 82.7829703,203.55736 L81.5090429,200.66231 L56.4093729,211.949439 L56.4093729,215.736898 L57.9684488,215.736898 Z" id="Fill-229" fill="#4747EC"></path>
                            <path d="M54.0467327,210.617558 C54.0467327,210.617558 78.1034983,197.482244 79.0223102,197.537515 C79.9411221,197.593135 84.6315512,200.391815 81.9794059,202.057822 C79.3272607,203.721188 57.7233003,213.375314 57.7233003,214.294125 C57.7233003,215.212937 57.5714851,216.798416 57.5714851,216.798416 C57.5714851,216.798416 54.8124092,215.63802 54.0467327,214.353531 C53.2810561,213.067723 53.1279208,212.148911 54.0467327,210.617558" id="Fill-231" fill="#8181F5"></path>
                            <path d="M57.7673927,215.352739 C57.5654125,214.478812 59.070363,213.325017 59.680264,212.948779 C60.1079868,212.683432 60.5687129,212.46429 61.020198,212.241188 C62.4023762,211.55868 63.8426403,210.993663 65.2855446,210.45637 C67.5733333,209.604884 69.8980858,208.86429 72.1871947,208.020726 C76.0433003,206.601584 79.7370297,204.870891 82.889505,202.194983 C83.2934653,201.853069 82.7112871,201.277492 82.3112871,201.616766 C77.5667327,205.631287 71.6129373,207.311815 65.8822442,209.392343 C63.9363696,210.099934 55.949571,212.330957 57.1429703,215.524356 C57.2881848,215.909835 57.8611221,215.76462 57.7673927,215.352739" id="Fill-233" fill="#3333D1"></path>
                            <path d="M28.6019802,229.847129 C31.0640264,230.893993 32.9663366,233.200264 32.7511551,235.989703 C32.6838284,236.850429 34.0184818,236.842508 34.0884488,235.989703 C34.3617162,232.692013 32.0435644,229.843168 29.0653465,228.748779 C28.4330033,228.516436 27.9735974,229.580462 28.6019802,229.847129" id="Fill-235" fill="#3333D1"></path>
                            <path d="M182.597228,1.08132013 C176.631551,3.08924092 175.638812,13.0813201 182.21703,14.8542574 C183.192607,15.1156436 183.530561,13.720264 182.62495,13.370429 C181.089637,12.7737294 180.106139,12.299802 179.551683,10.5770297 C179.259934,9.67273927 179.154323,8.60739274 179.200528,7.65953795 C179.31934,5.25821782 180.680396,3.15128713 182.911419,2.22191419 C183.593927,1.93808581 183.339142,0.831815182 182.597228,1.08132013" id="Fill-237" fill="#00C588"></path>
                            <path d="M173.053333,31.6545215 C172.741782,27.9119472 172.282376,24.1469307 175.145743,21.1937954 C176.881716,19.4036964 178.406469,19.0380198 180.830231,19.3007261 C182.288977,19.4578218 183.673795,19.4763036 185.139142,19.3139274 C186.026271,19.2162376 186.050033,17.819538 185.139142,17.9040264 C182.972805,18.1046865 180.889637,17.419538 178.784026,17.570033 C176.908119,17.7060066 175.088977,19.0591419 173.875776,20.4149175 C171.013729,23.6149175 171.042772,27.8248185 171.871815,31.8142574 C172.009109,32.4690429 173.110099,32.3343894 173.053333,31.6545215" id="Fill-239" fill="#00C588"></path>
                            <path d="M173.824158,67.4114851 C173.948251,68.0464686 173.230099,68.8913531 172.752211,69.2293069 C172.370693,69.4972937 171.970693,69.709835 171.545611,69.8972937 C171.096766,70.0939934 170.386535,70.2128053 170.031419,70.5930033 C169.325149,71.3533993 169.290825,73.1553795 169.104686,74.1335974 C168.927789,75.0642904 170.308647,75.4722112 170.54495,74.529637 C170.667723,74.0345875 170.779934,73.5368977 170.889505,73.0378878 C170.946271,72.7791419 171.04396,71.7362376 171.208977,71.539538 C171.127129,71.6359076 172.356172,71.1329373 172.200396,71.2081848 C172.645281,70.9956436 173.066403,70.7408581 173.466403,70.4530693 C174.573993,69.6543894 175.561452,68.5085149 174.983234,67.0920132 C174.694125,66.3857426 173.674983,66.6365677 173.824158,67.4114851" id="Fill-241" fill="#00C588"></path>
                            <path d="M191.127789,66.8236304 C187.407657,66.7180198 182.817558,69.6790759 182.575974,73.6170297 C182.404356,76.4328713 184.462442,79.4018482 186.816238,80.8038284 C191.288845,83.4638944 197.291485,80.6242904 198.33703,75.6025083 C198.513927,74.7536634 198.545611,73.8546535 198.280264,73.029571 C198.074323,72.3879868 197.621518,71.6447525 196.995776,71.3318812 C196.581254,71.1246205 195.460462,70.9873267 195.511947,71.7622442 C195.526469,71.9853465 195.654521,72.1833663 195.764092,72.3774257 C198.825479,77.8058086 190.998416,82.1332013 186.830759,78.6863366 C185.24,77.370165 183.746931,74.9160396 184.278944,72.7827063 C184.496766,71.9074587 185.065743,71.1510231 185.746931,70.559604 C187.210957,69.2869967 189.199076,68.3259406 191.127789,68.080396 C191.907987,67.9813861 191.960792,66.8487129 191.127789,66.8236304" id="Fill-243" fill="#00C588"></path>
                            <path d="M169.988911,77.7314851 C169.872739,78.6172937 170.122244,79.4542574 170.846997,80.0258746 C171.932145,80.8813201 175.192871,79.9136634 173.786931,82.7031023 C173.344686,83.57967 172.946007,83.6562376 173.338086,84.7493069 C173.888581,86.2885809 175.364488,87.8291749 176.540726,88.919604 C177.299802,89.6219142 178.412673,88.5222442 177.68,87.7790099 C176.604092,86.6885809 174.626535,85.1361056 175.291881,83.5506271 C175.621914,82.7651485 176.237096,82.4747195 176.18429,81.4450165 C176.143366,80.659538 175.755248,79.9308251 175.108383,79.4740594 C174.256898,78.8747195 171.155908,79.17967 171.236436,77.7314851 C171.28264,76.910363 170.090561,76.9605281 169.988911,77.7314851" id="Fill-245" fill="#00C588"></path>
                            <path d="M177.791023,58.6320792 C178.192343,60.3680528 179.779142,61.9310891 181.596964,62.0578218 C183.103234,62.1621122 184.675512,61.059802 184.641188,59.4584818 C184.626667,58.6914851 183.445149,58.4789439 183.26429,59.2723432 C183.013465,60.3825743 182.109175,60.830099 181.037228,60.4182178 C179.977162,60.0089769 179.453069,59.0941254 178.9567,58.1409901 C178.612145,57.4809241 177.633927,57.9469307 177.791023,58.6320792" id="Fill-247" fill="#00C588"></path>
                            <path d="M194.587987,59.1233003 C195.084356,61.0678548 197.143762,61.4546535 198.870495,61.0256106 C200.811089,60.5464026 202.483696,59.3860066 203.205809,57.4876568 C203.543762,56.5965677 202.143102,56.2414521 201.791947,57.0982178 C201.143762,58.6784158 196.836172,61.3411221 195.834191,58.780066 C195.537162,58.0223102 194.376766,58.299538 194.587987,59.1233003" id="Fill-249" fill="#00C588"></path>
                            <path d="M236.79736,12.1516832 C237.091749,14.3787459 237.39538,16.5543234 237.392739,18.8038284 C237.391419,19.6539934 238.579538,19.6011881 238.677228,18.8038284 C238.951815,16.5675248 238.349835,14.1886469 237.960396,11.9945875 C237.845545,11.3464026 236.711551,11.4876568 236.79736,12.1516832" id="Fill-251" fill="#00D393"></path>
                            <path d="M248.963432,72.5090429 C251.865083,73.0661386 254.692805,73.1149835 256.694125,70.6186139 C258.53835,68.3215842 258.554191,65.1836304 257.092805,62.6912211 C254.175314,57.7090429 246.401056,56.949967 244.177954,62.9394059 C243.875644,63.7565677 245.205017,64.320264 245.591815,63.5347855 C247.758152,59.140066 253.315908,59.2192739 255.762112,63.4674587 C256.812937,65.2932013 256.934389,67.540066 255.723828,69.3209241 C254.163432,71.6192739 251.610297,71.4991419 249.14033,71.2034323 C248.401056,71.1136634 248.230759,72.3691089 248.963432,72.5090429" id="Fill-253" fill="#00E87B"></path>
                        </g>
                    </g>
                </g>
            </g>
        </g>
    </g>
</svg>